<svg width="1313" height="1110" viewBox="0 0 1313 1110" fill="none" xmlns="http://www.w3.org/2000/svg">
<circle cx="620.5" cy="596.5" r="456.5" fill="black"/>
<path d="M1303.32 528.022C1305.51 529.877 1307.49 531.985 1309.26 534.346C1311.03 536.622 1312.17 539.362 1312.68 542.566C1313.27 546.107 1312 548.805 1308.88 550.66C1307.03 551.587 1305.21 551.714 1303.44 551.039C1301.67 550.365 1300.41 549.016 1299.65 546.992C1297.63 541.428 1294.55 537.044 1290.42 533.84C1286.37 530.552 1281.94 527.685 1277.14 525.24C1266.52 519.676 1255.56 515.165 1244.26 511.708C1232.96 508.167 1221.58 505.09 1210.11 502.477C1190.97 498.43 1165.47 495.816 1133.6 494.636C1101.82 493.371 1066.41 493.835 1027.37 496.027C988.336 498.135 948.373 502.308 907.482 508.547C866.592 514.701 827.43 523.217 789.997 534.093C752.647 544.884 719.809 558.374 691.48 574.562C663.237 590.665 642.159 609.677 628.248 631.597C616.613 650.651 614.295 670.759 621.292 691.921C626.351 706.422 633.602 719.617 643.044 731.504C657.124 749.294 672.722 765.608 689.836 780.446C704.253 793.599 718.797 806.751 733.467 819.903C747.715 832.55 762.006 845.365 776.338 858.349C792.273 873.019 807.955 887.857 823.383 902.864C824.817 904.298 826.292 905.689 827.81 907.038C836.156 914.794 843.491 923.394 849.814 932.836C856.306 943.628 857.529 951.975 853.482 957.876C849.519 963.862 841.931 967.909 830.718 970.017C819.505 972.125 806.479 972.757 791.641 971.914C776.802 971.155 761.837 969.3 746.746 966.35C731.738 963.483 718.375 960.026 706.656 955.979C695.021 951.933 686.801 947.759 681.996 943.459C672.384 934.523 671.752 925.08 680.099 915.131C689.12 904.93 700.122 897.511 713.106 892.874C731.907 885.623 750.919 885.033 770.142 891.103C773.851 892.452 777.392 894.222 780.765 896.415C781.102 896.583 781.397 896.794 781.65 897.047C782.577 897.553 783.21 898.312 783.547 899.323C783.884 900.335 783.715 901.431 783.041 902.611C781.523 904.466 779.669 905.014 777.477 904.255C775.369 903.497 773.388 902.569 771.533 901.473C758.212 894.813 744.511 893.422 730.432 897.3C716.352 901.178 704.464 908.85 694.769 920.316C690.553 925.881 690.342 930.729 694.136 934.86C697.93 939.075 703.705 942.616 711.462 945.483C719.303 948.434 727.144 950.71 734.984 952.312C742.91 953.998 748.811 955.136 752.689 955.727C753.448 955.727 753.996 955.811 754.333 955.979C755.092 955.979 756.02 956.064 757.116 956.232C762.09 957.328 768.877 958.467 777.477 959.647C786.16 960.912 795.097 961.755 804.287 962.176C813.477 962.682 821.36 962.092 827.936 960.406C834.512 958.72 838.222 955.474 839.065 950.668C839.908 945.862 836.241 938.738 828.062 929.295C819.379 919.263 810.189 909.525 800.493 900.082C776.381 876.728 751.636 854.091 726.258 832.17C717.153 823.992 708.047 815.814 698.942 807.636C683.766 793.978 668.843 779.983 654.173 765.65C640.599 752.498 628.627 738.038 618.257 722.272C610.838 710.806 605.653 698.455 602.702 685.218C598.234 663.551 602.238 643.527 614.716 625.147C628.375 604.576 648.187 586.365 674.155 570.515C700.122 554.664 730.221 541.133 764.451 529.919C798.681 518.706 835.145 509.643 873.843 502.729C912.541 495.732 951.619 490.8 991.076 487.933C1030.62 484.982 1068.51 483.971 1104.77 484.898C1141.02 485.825 1173.82 488.565 1203.16 493.118C1232.58 497.671 1256.69 503.952 1275.5 511.961C1285.44 515.84 1294.72 521.193 1303.32 528.022Z" fill="white"/>
<path d="M1300.32 520.022C1302.51 521.877 1304.49 523.985 1306.26 526.346C1308.03 528.622 1309.17 531.362 1309.68 534.566C1310.27 538.107 1309 540.805 1305.88 542.66C1304.03 543.587 1302.21 543.714 1300.44 543.039C1298.67 542.365 1297.41 541.016 1296.65 538.992C1294.63 533.428 1291.55 529.044 1287.42 525.84C1283.37 522.552 1278.94 519.685 1274.14 517.24C1263.52 511.676 1252.56 507.165 1241.26 503.708C1229.96 500.167 1218.58 497.09 1207.11 494.477C1187.97 490.43 1162.47 487.816 1130.6 486.636C1098.82 485.371 1063.41 485.835 1024.37 488.027C985.336 490.135 945.373 494.308 904.482 500.547C863.592 506.701 824.43 515.217 786.997 526.093C749.647 536.884 716.809 550.374 688.48 566.562C660.237 582.665 639.159 601.677 625.248 623.597C613.613 642.651 611.295 662.759 618.292 683.921C623.351 698.422 630.602 711.617 640.044 723.504C654.124 741.294 669.722 757.608 686.836 772.446C701.253 785.599 715.797 798.751 730.467 811.903C744.715 824.55 759.006 837.365 773.338 850.349C789.273 865.019 804.955 879.857 820.383 894.864C821.817 896.298 823.292 897.689 824.81 899.038C833.156 906.794 840.491 915.394 846.814 924.836C853.306 935.628 854.529 943.975 850.482 949.876C846.519 955.862 838.931 959.909 827.718 962.017C816.505 964.125 803.479 964.757 788.641 963.914C773.802 963.155 758.837 961.3 743.746 958.35C728.738 955.483 715.375 952.026 703.656 947.979C692.021 943.933 683.801 939.759 678.996 935.459C669.384 926.523 668.752 917.08 677.099 907.131C686.12 896.93 697.122 889.511 710.106 884.874C728.907 877.623 747.919 877.033 767.142 883.103C770.851 884.452 774.392 886.222 777.765 888.415C778.102 888.583 778.397 888.794 778.65 889.047C779.577 889.553 780.21 890.312 780.547 891.323C780.884 892.335 780.715 893.431 780.041 894.611C778.523 896.466 776.669 897.014 774.477 896.255C772.369 895.497 770.388 894.569 768.533 893.473C755.212 886.813 741.511 885.422 727.432 889.3C713.352 893.178 701.464 900.85 691.769 912.316C687.553 917.881 687.342 922.729 691.136 926.86C694.93 931.075 700.705 934.616 708.462 937.483C716.303 940.434 724.144 942.71 731.984 944.312C739.91 945.998 745.811 947.136 749.689 947.727C750.448 947.727 750.996 947.811 751.333 947.979C752.092 947.979 753.02 948.064 754.116 948.232C759.09 949.328 765.877 950.467 774.477 951.647C783.16 952.912 792.097 953.755 801.287 954.176C810.477 954.682 818.36 954.092 824.936 952.406C831.512 950.72 835.222 947.474 836.065 942.668C836.908 937.862 833.241 930.738 825.062 921.295C816.379 911.263 807.189 901.525 797.493 892.082C773.381 868.728 748.636 846.091 723.258 824.17C714.153 815.992 705.047 807.814 695.942 799.636C680.766 785.978 665.843 771.983 651.173 757.65C637.599 744.498 625.627 730.038 615.257 714.272C607.838 702.806 602.653 690.455 599.702 677.218C595.234 655.551 599.238 635.527 611.716 617.147C625.375 596.576 645.187 578.365 671.155 562.515C697.122 546.664 727.221 533.133 761.451 521.919C795.681 510.706 832.145 501.643 870.843 494.729C909.541 487.732 948.619 482.8 988.076 479.933C1027.62 476.982 1065.51 475.971 1101.77 476.898C1138.02 477.825 1170.82 480.565 1200.16 485.118C1229.58 489.671 1253.69 495.952 1272.5 503.961C1282.44 507.84 1291.72 513.193 1300.32 520.022Z" fill="white"/>
<path d="M1297.32 512.022C1299.51 513.877 1301.49 515.985 1303.26 518.346C1305.03 520.622 1306.17 523.362 1306.68 526.566C1307.27 530.107 1306 532.805 1302.88 534.66C1301.03 535.587 1299.21 535.714 1297.44 535.039C1295.67 534.365 1294.41 533.016 1293.65 530.992C1291.63 525.428 1288.55 521.044 1284.42 517.84C1280.37 514.552 1275.94 511.685 1271.14 509.24C1260.52 503.676 1249.56 499.165 1238.26 495.708C1226.96 492.167 1215.58 489.09 1204.11 486.477C1184.97 482.43 1159.47 479.816 1127.6 478.636C1095.82 477.371 1060.41 477.835 1021.37 480.027C982.336 482.135 942.373 486.308 901.482 492.547C860.592 498.701 821.43 507.217 783.997 518.093C746.647 528.884 713.809 542.374 685.48 558.562C657.237 574.665 636.159 593.677 622.248 615.597C610.613 634.651 608.295 654.759 615.292 675.921C620.351 690.422 627.602 703.617 637.044 715.504C651.124 733.294 666.722 749.608 683.836 764.446C698.253 777.599 712.797 790.751 727.467 803.903C741.715 816.55 756.006 829.365 770.338 842.349C786.273 857.019 801.955 871.857 817.383 886.864C818.817 888.298 820.292 889.689 821.81 891.038C830.156 898.794 837.491 907.394 843.814 916.836C850.306 927.628 851.529 935.975 847.482 941.876C843.519 947.862 835.931 951.909 824.718 954.017C813.505 956.125 800.479 956.757 785.641 955.914C770.802 955.155 755.837 953.3 740.746 950.35C725.738 947.483 712.375 944.026 700.656 939.979C689.021 935.933 680.801 931.759 675.996 927.459C666.384 918.523 665.752 909.08 674.099 899.131C683.12 888.93 694.122 881.511 707.106 876.874C725.907 869.623 744.919 869.033 764.142 875.103C767.851 876.452 771.392 878.222 774.765 880.415C775.102 880.583 775.397 880.794 775.65 881.047C776.577 881.553 777.21 882.312 777.547 883.323C777.884 884.335 777.715 885.431 777.041 886.611C775.523 888.466 773.669 889.014 771.477 888.255C769.369 887.497 767.388 886.569 765.533 885.473C752.212 878.813 738.511 877.422 724.432 881.3C710.352 885.178 698.464 892.85 688.769 904.316C684.553 909.881 684.342 914.729 688.136 918.86C691.93 923.075 697.705 926.616 705.462 929.483C713.303 932.434 721.144 934.71 728.984 936.312C736.91 937.998 742.811 939.136 746.689 939.727C747.448 939.727 747.996 939.811 748.333 939.979C749.092 939.979 750.02 940.064 751.116 940.232C756.09 941.328 762.877 942.467 771.477 943.647C780.16 944.912 789.097 945.755 798.287 946.176C807.477 946.682 815.36 946.092 821.936 944.406C828.512 942.72 832.222 939.474 833.065 934.668C833.908 929.862 830.241 922.738 822.062 913.295C813.379 903.263 804.189 893.525 794.493 884.082C770.381 860.728 745.636 838.091 720.258 816.17C711.153 807.992 702.047 799.814 692.942 791.636C677.766 777.978 662.843 763.983 648.173 749.65C634.599 736.498 622.627 722.038 612.257 706.272C604.838 694.806 599.653 682.455 596.702 669.218C592.234 647.551 596.238 627.527 608.716 609.147C622.375 588.576 642.187 570.365 668.155 554.515C694.122 538.664 724.221 525.133 758.451 513.919C792.681 502.706 829.145 493.643 867.843 486.729C906.541 479.732 945.619 474.8 985.076 471.933C1024.62 468.982 1062.51 467.971 1098.77 468.898C1135.02 469.825 1167.82 472.565 1197.16 477.118C1226.58 481.671 1250.69 487.952 1269.5 495.961C1279.44 499.84 1288.72 505.193 1297.32 512.022Z" fill="white"/>
<path d="M1294.32 504.022C1296.51 505.877 1298.49 507.985 1300.26 510.346C1302.03 512.622 1303.17 515.362 1303.68 518.566C1304.27 522.107 1303 524.805 1299.88 526.66C1298.03 527.587 1296.21 527.714 1294.44 527.039C1292.67 526.365 1291.41 525.016 1290.65 522.992C1288.63 517.428 1285.55 513.044 1281.42 509.84C1277.37 506.552 1272.94 503.685 1268.14 501.24C1257.52 495.676 1246.56 491.165 1235.26 487.708C1223.96 484.167 1212.58 481.09 1201.11 478.477C1181.97 474.43 1156.47 471.816 1124.6 470.636C1092.82 469.371 1057.41 469.835 1018.37 472.027C979.336 474.135 939.373 478.308 898.482 484.547C857.592 490.701 818.43 499.217 780.997 510.093C743.647 520.884 710.809 534.374 682.48 550.562C654.237 566.665 633.159 585.677 619.248 607.597C607.613 626.651 605.295 646.759 612.292 667.921C617.351 682.422 624.602 695.617 634.044 707.504C648.124 725.294 663.722 741.608 680.836 756.446C695.253 769.599 709.797 782.751 724.467 795.903C738.715 808.55 753.006 821.365 767.338 834.349C783.273 849.019 798.955 863.857 814.383 878.864C815.817 880.298 817.292 881.689 818.81 883.038C827.156 890.794 834.491 899.394 840.814 908.836C847.306 919.628 848.529 927.975 844.482 933.876C840.519 939.862 832.931 943.909 821.718 946.017C810.505 948.125 797.479 948.757 782.641 947.914C767.802 947.155 752.837 945.3 737.746 942.35C722.738 939.483 709.375 936.026 697.656 931.979C686.021 927.933 677.801 923.759 672.996 919.459C663.384 910.523 662.752 901.08 671.099 891.131C680.12 880.93 691.122 873.511 704.106 868.874C722.907 861.623 741.919 861.033 761.142 867.103C764.851 868.452 768.392 870.222 771.765 872.415C772.102 872.583 772.397 872.794 772.65 873.047C773.577 873.553 774.21 874.312 774.547 875.323C774.884 876.335 774.715 877.431 774.041 878.611C772.523 880.466 770.669 881.014 768.477 880.255C766.369 879.497 764.388 878.569 762.533 877.473C749.212 870.813 735.511 869.422 721.432 873.3C707.352 877.178 695.464 884.85 685.769 896.316C681.553 901.881 681.342 906.729 685.136 910.86C688.93 915.075 694.705 918.616 702.462 921.483C710.303 924.434 718.144 926.71 725.984 928.312C733.91 929.998 739.811 931.136 743.689 931.727C744.448 931.727 744.996 931.811 745.333 931.979C746.092 931.979 747.02 932.064 748.116 932.232C753.09 933.328 759.877 934.467 768.477 935.647C777.16 936.912 786.097 937.755 795.287 938.176C804.477 938.682 812.36 938.092 818.936 936.406C825.512 934.72 829.222 931.474 830.065 926.668C830.908 921.862 827.241 914.738 819.062 905.295C810.379 895.263 801.189 885.525 791.493 876.082C767.381 852.728 742.636 830.091 717.258 808.17C708.153 799.992 699.047 791.814 689.942 783.636C674.766 769.978 659.843 755.983 645.173 741.65C631.599 728.498 619.627 714.038 609.257 698.272C601.838 686.806 596.653 674.455 593.702 661.218C589.234 639.551 593.238 619.527 605.716 601.147C619.375 580.576 639.187 562.365 665.155 546.515C691.122 530.664 721.221 517.133 755.451 505.919C789.681 494.706 826.145 485.643 864.843 478.729C903.541 471.732 942.619 466.8 982.076 463.933C1021.62 460.982 1059.51 459.971 1095.77 460.898C1132.02 461.825 1164.82 464.565 1194.16 469.118C1223.58 473.671 1247.69 479.952 1266.5 487.961C1276.44 491.84 1285.72 497.193 1294.32 504.022Z" fill="white"/>
<path d="M1291.32 496.022C1293.51 497.877 1295.49 499.985 1297.26 502.346C1299.03 504.622 1300.17 507.362 1300.68 510.566C1301.27 514.107 1300 516.805 1296.88 518.66C1295.03 519.587 1293.21 519.714 1291.44 519.039C1289.67 518.365 1288.41 517.016 1287.65 514.992C1285.63 509.428 1282.55 505.044 1278.42 501.84C1274.37 498.552 1269.94 495.685 1265.14 493.24C1254.52 487.676 1243.56 483.165 1232.26 479.708C1220.96 476.167 1209.58 473.09 1198.11 470.477C1178.97 466.43 1153.47 463.816 1121.6 462.636C1089.82 461.371 1054.41 461.835 1015.37 464.027C976.336 466.135 936.373 470.308 895.482 476.547C854.592 482.701 815.43 491.217 777.997 502.093C740.647 512.884 707.809 526.374 679.48 542.562C651.237 558.665 630.159 577.677 616.248 599.597C604.613 618.651 602.295 638.759 609.292 659.921C614.351 674.422 621.602 687.617 631.044 699.504C645.124 717.294 660.722 733.608 677.836 748.446C692.253 761.599 706.797 774.751 721.467 787.903C735.715 800.55 750.006 813.365 764.338 826.349C780.273 841.019 795.955 855.857 811.383 870.864C812.817 872.298 814.292 873.689 815.81 875.038C824.156 882.794 831.491 891.394 837.814 900.836C844.306 911.628 845.529 919.975 841.482 925.876C837.519 931.862 829.931 935.909 818.718 938.017C807.505 940.125 794.479 940.757 779.641 939.914C764.802 939.155 749.837 937.3 734.746 934.35C719.738 931.483 706.375 928.026 694.656 923.979C683.021 919.933 674.801 915.759 669.996 911.459C660.384 902.523 659.752 893.08 668.099 883.131C677.12 872.93 688.122 865.511 701.106 860.874C719.907 853.623 738.919 853.033 758.142 859.103C761.851 860.452 765.392 862.222 768.765 864.415C769.102 864.583 769.397 864.794 769.65 865.047C770.577 865.553 771.21 866.312 771.547 867.323C771.884 868.335 771.715 869.431 771.041 870.611C769.523 872.466 767.669 873.014 765.477 872.255C763.369 871.497 761.388 870.569 759.533 869.473C746.212 862.813 732.511 861.422 718.432 865.3C704.352 869.178 692.464 876.85 682.769 888.316C678.553 893.881 678.342 898.729 682.136 902.86C685.93 907.075 691.705 910.616 699.462 913.483C707.303 916.434 715.144 918.71 722.984 920.312C730.91 921.998 736.811 923.136 740.689 923.727C741.448 923.727 741.996 923.811 742.333 923.979C743.092 923.979 744.02 924.064 745.116 924.232C750.09 925.328 756.877 926.467 765.477 927.647C774.16 928.912 783.097 929.755 792.287 930.176C801.477 930.682 809.36 930.092 815.936 928.406C822.512 926.72 826.222 923.474 827.065 918.668C827.908 913.862 824.241 906.738 816.062 897.295C807.379 887.263 798.189 877.525 788.493 868.082C764.381 844.728 739.636 822.091 714.258 800.17C705.153 791.992 696.047 783.814 686.942 775.636C671.766 761.978 656.843 747.983 642.173 733.65C628.599 720.498 616.627 706.038 606.257 690.272C598.838 678.806 593.653 666.455 590.702 653.218C586.234 631.551 590.238 611.527 602.716 593.147C616.375 572.576 636.187 554.365 662.155 538.515C688.122 522.664 718.221 509.133 752.451 497.919C786.681 486.706 823.145 477.643 861.843 470.729C900.541 463.732 939.619 458.8 979.076 455.933C1018.62 452.982 1056.51 451.971 1092.77 452.898C1129.02 453.825 1161.82 456.565 1191.16 461.118C1220.58 465.671 1244.69 471.952 1263.5 479.961C1273.44 483.84 1282.72 489.193 1291.32 496.022Z" fill="white"/>
<path d="M1008.21 312.691C1007.43 314.707 1006.65 316.723 1005.86 318.738C998.025 339.118 989.57 359.163 980.5 378.871C933.693 476.181 883.414 570.299 829.664 661.227C812.195 690.565 794.335 719.4 776.082 747.73C757.829 776.061 739.465 804.28 720.988 832.387C716.621 838.993 712.198 845.6 707.719 852.207C707.495 852.767 707.271 853.159 707.047 853.383C706.039 855.398 704.863 857.078 703.52 858.422C702.176 859.766 700.384 860.438 698.145 860.438C697.137 860.438 696.073 860.158 694.953 859.598C693.833 859.15 692.938 858.534 692.266 857.75C691.706 857.078 691.314 855.958 691.09 854.391C690.866 852.935 690.978 851.759 691.426 850.863C694.449 844.368 697.809 838.21 701.504 832.387C709.79 818.837 718.133 805.288 726.531 791.738C742.32 766.543 757.829 741.292 773.059 715.984C806.876 659.547 839.182 601.934 869.977 543.145C900.771 484.355 930.837 424.951 960.176 364.93C971.934 341.75 981.62 316.947 989.234 290.52C990.802 285.928 991.978 281.169 992.762 276.242C993.658 271.315 994.105 266.22 994.105 260.957C993.322 249.647 988.507 244.72 979.66 246.176C971.822 247.743 964.431 250.207 957.488 253.566C941.027 261.517 924.79 270.307 908.777 279.938C822.777 332.12 744.448 396.9 673.789 474.277C672.781 475.509 671.661 476.741 670.43 477.973C646.018 504.512 621.775 531.275 597.699 558.262C573.736 585.249 550.444 613.02 527.824 641.574C523.121 647.509 518.194 653.052 513.043 658.203C507.556 663.914 501.005 666.154 493.391 664.922C490.143 664.474 487.456 662.906 485.328 660.219C483.312 657.419 482.529 654.172 482.977 650.477C484.544 640.398 486.784 630.656 489.695 621.25C498.766 591.464 508.396 562.069 518.586 533.066C520.042 528.587 521.385 524.276 522.617 520.133C525.305 509.271 529.112 499.249 534.039 490.066C534.039 489.842 533.927 489.73 533.703 489.73C532.471 489.059 531.24 488.555 530.008 488.219C528.776 487.771 527.544 488.163 526.312 489.395C521.833 494.322 517.522 499.473 513.379 504.848C479.337 550.983 445.632 597.51 412.262 644.43C378.892 691.349 346.306 739.052 314.504 787.539C311.816 792.242 308.793 796.049 305.434 798.961C302.186 801.984 297.819 802.992 292.332 801.984C289.868 801.312 287.965 799.801 286.621 797.449C285.277 795.098 284.997 792.802 285.781 790.562C288.693 783.956 291.884 777.685 295.355 771.75C305.21 754.729 314.952 737.708 324.582 720.688C343.954 686.982 363.159 653.108 382.195 619.066C411.758 566.884 438.129 511.958 461.309 454.289C470.379 432.117 477.77 408.826 483.48 384.414C486.616 371.424 487.96 357.875 487.512 343.766C486.056 321.146 478.553 304.965 465.004 295.223C451.454 285.48 433.65 280.889 411.59 281.449C389.53 281.897 365.062 286.376 338.188 294.887C311.312 303.397 283.766 314.651 255.547 328.648C227.328 342.646 200.117 358.099 173.914 375.008C147.711 391.917 124.419 409.049 104.039 426.406C83.5469 443.763 67.5898 460.056 56.168 475.285C44.1862 492.082 33.9961 510.559 25.5977 530.715C21.3424 540.345 18.8789 550.815 18.207 562.125C17.9831 564.365 16.8633 566.044 14.8477 567.164C12.832 568.284 10.5924 568.62 8.12891 568.172C4.20964 566.94 1.74609 563.861 0.738281 558.934C0.0664062 552.439 0.570312 546.504 2.25 541.129C5.94531 527.579 10.8724 514.758 17.0312 502.664C28.3411 481.5 45.5299 459.888 68.5977 437.828C91.6654 415.768 118.54 394.66 149.223 374.504C179.905 354.236 211.931 336.207 245.301 320.418C278.671 304.517 311.312 292.199 343.227 283.465C375.141 274.618 403.863 270.643 429.395 271.539C455.038 272.435 475.25 279.49 490.031 292.703C504.812 305.805 511.979 326.521 511.531 354.852C510.747 373.104 507.892 390.461 502.965 406.922C495.798 431.109 487.512 454.513 478.105 477.133C468.811 499.641 458.901 521.701 448.375 543.312C445.128 550.031 444.4 553.335 446.191 553.223C448.095 552.999 450.895 550.423 454.59 545.496C467.915 527.803 481.241 510.335 494.566 493.09C503.637 481.556 512.875 470.246 522.281 459.16C523.513 457.592 524.745 456.081 525.977 454.625C531.352 448.018 537.846 443.595 545.461 441.355C551.172 440.124 555.987 441.411 559.906 445.219C563.826 449.026 565.169 454.737 563.938 462.352C563.714 463.135 563.49 463.919 563.266 464.703C561.25 474.557 558.898 484.132 556.211 493.426C549.044 516.158 541.654 538.721 534.039 561.117C530.344 572.651 526.648 584.353 522.953 596.223C522.169 597.902 521.049 600.982 519.594 605.461C518.138 609.38 516.738 613.243 515.395 617.051C514.051 620.858 512.987 623.77 512.203 625.785C513.211 625.001 522.337 614.755 539.582 595.047C562.986 568.172 590.701 536.706 622.727 500.648C654.753 464.591 679.892 437.044 698.145 418.008C731.85 384.078 767.348 353.228 804.637 325.457C842.038 297.574 880.783 272.379 920.871 249.871C930.725 244.72 940.859 240.073 951.273 235.93C953.513 235.146 955.697 234.25 957.824 233.242C967.678 229.323 978.148 227.867 989.234 228.875C1010.51 230.891 1020.25 244.328 1018.46 269.188C1017.23 284.641 1013.81 299.142 1008.21 312.691ZM532.863 488.723C533.423 489.171 533.815 489.507 534.039 489.73C534.039 489.73 534.039 489.842 534.039 490.066C534.263 490.066 534.375 489.954 534.375 489.73C533.927 489.507 533.423 489.171 532.863 488.723Z" fill="white"/>
<path d="M1008.21 303.691C1007.43 305.707 1006.65 307.723 1005.86 309.738C998.025 330.118 989.57 350.163 980.5 369.871C933.693 467.181 883.414 561.299 829.664 652.227C812.195 681.565 794.335 710.4 776.082 738.73C757.829 767.061 739.465 795.28 720.988 823.387C716.621 829.993 712.198 836.6 707.719 843.207C707.495 843.767 707.271 844.159 707.047 844.383C706.039 846.398 704.863 848.078 703.52 849.422C702.176 850.766 700.384 851.438 698.145 851.438C697.137 851.438 696.073 851.158 694.953 850.598C693.833 850.15 692.938 849.534 692.266 848.75C691.706 848.078 691.314 846.958 691.09 845.391C690.866 843.935 690.978 842.759 691.426 841.863C694.449 835.368 697.809 829.21 701.504 823.387C709.79 809.837 718.133 796.288 726.531 782.738C742.32 757.543 757.829 732.292 773.059 706.984C806.876 650.547 839.182 592.934 869.977 534.145C900.771 475.355 930.837 415.951 960.176 355.93C971.934 332.75 981.62 307.947 989.234 281.52C990.802 276.928 991.978 272.169 992.762 267.242C993.658 262.315 994.105 257.22 994.105 251.957C993.322 240.647 988.507 235.72 979.66 237.176C971.822 238.743 964.431 241.207 957.488 244.566C941.027 252.517 924.79 261.307 908.777 270.938C822.777 323.12 744.448 387.9 673.789 465.277C672.781 466.509 671.661 467.741 670.43 468.973C646.018 495.512 621.775 522.275 597.699 549.262C573.736 576.249 550.444 604.02 527.824 632.574C523.121 638.509 518.194 644.052 513.043 649.203C507.556 654.914 501.005 657.154 493.391 655.922C490.143 655.474 487.456 653.906 485.328 651.219C483.312 648.419 482.529 645.172 482.977 641.477C484.544 631.398 486.784 621.656 489.695 612.25C498.766 582.464 508.396 553.069 518.586 524.066C520.042 519.587 521.385 515.276 522.617 511.133C525.305 500.271 529.112 490.249 534.039 481.066C534.039 480.842 533.927 480.73 533.703 480.73C532.471 480.059 531.24 479.555 530.008 479.219C528.776 478.771 527.544 479.163 526.312 480.395C521.833 485.322 517.522 490.473 513.379 495.848C479.337 541.983 445.632 588.51 412.262 635.43C378.892 682.349 346.306 730.052 314.504 778.539C311.816 783.242 308.793 787.049 305.434 789.961C302.186 792.984 297.819 793.992 292.332 792.984C289.868 792.312 287.965 790.801 286.621 788.449C285.277 786.098 284.997 783.802 285.781 781.562C288.693 774.956 291.884 768.685 295.355 762.75C305.21 745.729 314.952 728.708 324.582 711.688C343.954 677.982 363.159 644.108 382.195 610.066C411.758 557.884 438.129 502.958 461.309 445.289C470.379 423.117 477.77 399.826 483.48 375.414C486.616 362.424 487.96 348.875 487.512 334.766C486.056 312.146 478.553 295.965 465.004 286.223C451.454 276.48 433.65 271.889 411.59 272.449C389.53 272.897 365.062 277.376 338.188 285.887C311.312 294.397 283.766 305.651 255.547 319.648C227.328 333.646 200.117 349.099 173.914 366.008C147.711 382.917 124.419 400.049 104.039 417.406C83.5469 434.763 67.5898 451.056 56.168 466.285C44.1862 483.082 33.9961 501.559 25.5977 521.715C21.3424 531.345 18.8789 541.815 18.207 553.125C17.9831 555.365 16.8633 557.044 14.8477 558.164C12.832 559.284 10.5924 559.62 8.12891 559.172C4.20964 557.94 1.74609 554.861 0.738281 549.934C0.0664062 543.439 0.570312 537.504 2.25 532.129C5.94531 518.579 10.8724 505.758 17.0312 493.664C28.3411 472.5 45.5299 450.888 68.5977 428.828C91.6654 406.768 118.54 385.66 149.223 365.504C179.905 345.236 211.931 327.207 245.301 311.418C278.671 295.517 311.312 283.199 343.227 274.465C375.141 265.618 403.863 261.643 429.395 262.539C455.038 263.435 475.25 270.49 490.031 283.703C504.812 296.805 511.979 317.521 511.531 345.852C510.747 364.104 507.892 381.461 502.965 397.922C495.798 422.109 487.512 445.513 478.105 468.133C468.811 490.641 458.901 512.701 448.375 534.312C445.128 541.031 444.4 544.335 446.191 544.223C448.095 543.999 450.895 541.423 454.59 536.496C467.915 518.803 481.241 501.335 494.566 484.09C503.637 472.556 512.875 461.246 522.281 450.16C523.513 448.592 524.745 447.081 525.977 445.625C531.352 439.018 537.846 434.595 545.461 432.355C551.172 431.124 555.987 432.411 559.906 436.219C563.826 440.026 565.169 445.737 563.938 453.352C563.714 454.135 563.49 454.919 563.266 455.703C561.25 465.557 558.898 475.132 556.211 484.426C549.044 507.158 541.654 529.721 534.039 552.117C530.344 563.651 526.648 575.353 522.953 587.223C522.169 588.902 521.049 591.982 519.594 596.461C518.138 600.38 516.738 604.243 515.395 608.051C514.051 611.858 512.987 614.77 512.203 616.785C513.211 616.001 522.337 605.755 539.582 586.047C562.986 559.172 590.701 527.706 622.727 491.648C654.753 455.591 679.892 428.044 698.145 409.008C731.85 375.078 767.348 344.228 804.637 316.457C842.038 288.574 880.783 263.379 920.871 240.871C930.725 235.72 940.859 231.073 951.273 226.93C953.513 226.146 955.697 225.25 957.824 224.242C967.678 220.323 978.148 218.867 989.234 219.875C1010.51 221.891 1020.25 235.328 1018.46 260.188C1017.23 275.641 1013.81 290.142 1008.21 303.691ZM532.863 479.723C533.423 480.171 533.815 480.507 534.039 480.73C534.039 480.73 534.039 480.842 534.039 481.066C534.263 481.066 534.375 480.954 534.375 480.73C533.927 480.507 533.423 480.171 532.863 479.723Z" fill="white"/>
<path d="M1008.21 294.691C1007.43 296.707 1006.65 298.723 1005.86 300.738C998.025 321.118 989.57 341.163 980.5 360.871C933.693 458.181 883.414 552.299 829.664 643.227C812.195 672.565 794.335 701.4 776.082 729.73C757.829 758.061 739.465 786.28 720.988 814.387C716.621 820.993 712.198 827.6 707.719 834.207C707.495 834.767 707.271 835.159 707.047 835.383C706.039 837.398 704.863 839.078 703.52 840.422C702.176 841.766 700.384 842.438 698.145 842.438C697.137 842.438 696.073 842.158 694.953 841.598C693.833 841.15 692.938 840.534 692.266 839.75C691.706 839.078 691.314 837.958 691.09 836.391C690.866 834.935 690.978 833.759 691.426 832.863C694.449 826.368 697.809 820.21 701.504 814.387C709.79 800.837 718.133 787.288 726.531 773.738C742.32 748.543 757.829 723.292 773.059 697.984C806.876 641.547 839.182 583.934 869.977 525.145C900.771 466.355 930.837 406.951 960.176 346.93C971.934 323.75 981.62 298.947 989.234 272.52C990.802 267.928 991.978 263.169 992.762 258.242C993.658 253.315 994.105 248.22 994.105 242.957C993.322 231.647 988.507 226.72 979.66 228.176C971.822 229.743 964.431 232.207 957.488 235.566C941.027 243.517 924.79 252.307 908.777 261.938C822.777 314.12 744.448 378.9 673.789 456.277C672.781 457.509 671.661 458.741 670.43 459.973C646.018 486.512 621.775 513.275 597.699 540.262C573.736 567.249 550.444 595.02 527.824 623.574C523.121 629.509 518.194 635.052 513.043 640.203C507.556 645.914 501.005 648.154 493.391 646.922C490.143 646.474 487.456 644.906 485.328 642.219C483.312 639.419 482.529 636.172 482.977 632.477C484.544 622.398 486.784 612.656 489.695 603.25C498.766 573.464 508.396 544.069 518.586 515.066C520.042 510.587 521.385 506.276 522.617 502.133C525.305 491.271 529.112 481.249 534.039 472.066C534.039 471.842 533.927 471.73 533.703 471.73C532.471 471.059 531.24 470.555 530.008 470.219C528.776 469.771 527.544 470.163 526.312 471.395C521.833 476.322 517.522 481.473 513.379 486.848C479.337 532.983 445.632 579.51 412.262 626.43C378.892 673.349 346.306 721.052 314.504 769.539C311.816 774.242 308.793 778.049 305.434 780.961C302.186 783.984 297.819 784.992 292.332 783.984C289.868 783.312 287.965 781.801 286.621 779.449C285.277 777.098 284.997 774.802 285.781 772.562C288.693 765.956 291.884 759.685 295.355 753.75C305.21 736.729 314.952 719.708 324.582 702.688C343.954 668.982 363.159 635.108 382.195 601.066C411.758 548.884 438.129 493.958 461.309 436.289C470.379 414.117 477.77 390.826 483.48 366.414C486.616 353.424 487.96 339.875 487.512 325.766C486.056 303.146 478.553 286.965 465.004 277.223C451.454 267.48 433.65 262.889 411.59 263.449C389.53 263.897 365.062 268.376 338.188 276.887C311.312 285.397 283.766 296.651 255.547 310.648C227.328 324.646 200.117 340.099 173.914 357.008C147.711 373.917 124.419 391.049 104.039 408.406C83.5469 425.763 67.5898 442.056 56.168 457.285C44.1862 474.082 33.9961 492.559 25.5977 512.715C21.3424 522.345 18.8789 532.815 18.207 544.125C17.9831 546.365 16.8633 548.044 14.8477 549.164C12.832 550.284 10.5924 550.62 8.12891 550.172C4.20964 548.94 1.74609 545.861 0.738281 540.934C0.0664062 534.439 0.570312 528.504 2.25 523.129C5.94531 509.579 10.8724 496.758 17.0312 484.664C28.3411 463.5 45.5299 441.888 68.5977 419.828C91.6654 397.768 118.54 376.66 149.223 356.504C179.905 336.236 211.931 318.207 245.301 302.418C278.671 286.517 311.312 274.199 343.227 265.465C375.141 256.618 403.863 252.643 429.395 253.539C455.038 254.435 475.25 261.49 490.031 274.703C504.812 287.805 511.979 308.521 511.531 336.852C510.747 355.104 507.892 372.461 502.965 388.922C495.798 413.109 487.512 436.513 478.105 459.133C468.811 481.641 458.901 503.701 448.375 525.312C445.128 532.031 444.4 535.335 446.191 535.223C448.095 534.999 450.895 532.423 454.59 527.496C467.915 509.803 481.241 492.335 494.566 475.09C503.637 463.556 512.875 452.246 522.281 441.16C523.513 439.592 524.745 438.081 525.977 436.625C531.352 430.018 537.846 425.595 545.461 423.355C551.172 422.124 555.987 423.411 559.906 427.219C563.826 431.026 565.169 436.737 563.938 444.352C563.714 445.135 563.49 445.919 563.266 446.703C561.25 456.557 558.898 466.132 556.211 475.426C549.044 498.158 541.654 520.721 534.039 543.117C530.344 554.651 526.648 566.353 522.953 578.223C522.169 579.902 521.049 582.982 519.594 587.461C518.138 591.38 516.738 595.243 515.395 599.051C514.051 602.858 512.987 605.77 512.203 607.785C513.211 607.001 522.337 596.755 539.582 577.047C562.986 550.172 590.701 518.706 622.727 482.648C654.753 446.591 679.892 419.044 698.145 400.008C731.85 366.078 767.348 335.228 804.637 307.457C842.038 279.574 880.783 254.379 920.871 231.871C930.725 226.72 940.859 222.073 951.273 217.93C953.513 217.146 955.697 216.25 957.824 215.242C967.678 211.323 978.148 209.867 989.234 210.875C1010.51 212.891 1020.25 226.328 1018.46 251.188C1017.23 266.641 1013.81 281.142 1008.21 294.691ZM532.863 470.723C533.423 471.171 533.815 471.507 534.039 471.73C534.039 471.73 534.039 471.842 534.039 472.066C534.263 472.066 534.375 471.954 534.375 471.73C533.927 471.507 533.423 471.171 532.863 470.723Z" fill="white"/>
<path d="M1008.21 285.691C1007.43 287.707 1006.65 289.723 1005.86 291.738C998.025 312.118 989.57 332.163 980.5 351.871C933.693 449.181 883.414 543.299 829.664 634.227C812.195 663.565 794.335 692.4 776.082 720.73C757.829 749.061 739.465 777.28 720.988 805.387C716.621 811.993 712.198 818.6 707.719 825.207C707.495 825.767 707.271 826.159 707.047 826.383C706.039 828.398 704.863 830.078 703.52 831.422C702.176 832.766 700.384 833.438 698.145 833.438C697.137 833.438 696.073 833.158 694.953 832.598C693.833 832.15 692.938 831.534 692.266 830.75C691.706 830.078 691.314 828.958 691.09 827.391C690.866 825.935 690.978 824.759 691.426 823.863C694.449 817.368 697.809 811.21 701.504 805.387C709.79 791.837 718.133 778.288 726.531 764.738C742.32 739.543 757.829 714.292 773.059 688.984C806.876 632.547 839.182 574.934 869.977 516.145C900.771 457.355 930.837 397.951 960.176 337.93C971.934 314.75 981.62 289.947 989.234 263.52C990.802 258.928 991.978 254.169 992.762 249.242C993.658 244.315 994.105 239.22 994.105 233.957C993.322 222.647 988.507 217.72 979.66 219.176C971.822 220.743 964.431 223.207 957.488 226.566C941.027 234.517 924.79 243.307 908.777 252.938C822.777 305.12 744.448 369.9 673.789 447.277C672.781 448.509 671.661 449.741 670.43 450.973C646.018 477.512 621.775 504.275 597.699 531.262C573.736 558.249 550.444 586.02 527.824 614.574C523.121 620.509 518.194 626.052 513.043 631.203C507.556 636.914 501.005 639.154 493.391 637.922C490.143 637.474 487.456 635.906 485.328 633.219C483.312 630.419 482.529 627.172 482.977 623.477C484.544 613.398 486.784 603.656 489.695 594.25C498.766 564.464 508.396 535.069 518.586 506.066C520.042 501.587 521.385 497.276 522.617 493.133C525.305 482.271 529.112 472.249 534.039 463.066C534.039 462.842 533.927 462.73 533.703 462.73C532.471 462.059 531.24 461.555 530.008 461.219C528.776 460.771 527.544 461.163 526.312 462.395C521.833 467.322 517.522 472.473 513.379 477.848C479.337 523.983 445.632 570.51 412.262 617.43C378.892 664.349 346.306 712.052 314.504 760.539C311.816 765.242 308.793 769.049 305.434 771.961C302.186 774.984 297.819 775.992 292.332 774.984C289.868 774.312 287.965 772.801 286.621 770.449C285.277 768.098 284.997 765.802 285.781 763.562C288.693 756.956 291.884 750.685 295.355 744.75C305.21 727.729 314.952 710.708 324.582 693.688C343.954 659.982 363.159 626.108 382.195 592.066C411.758 539.884 438.129 484.958 461.309 427.289C470.379 405.117 477.77 381.826 483.48 357.414C486.616 344.424 487.96 330.875 487.512 316.766C486.056 294.146 478.553 277.965 465.004 268.223C451.454 258.48 433.65 253.889 411.59 254.449C389.53 254.897 365.062 259.376 338.188 267.887C311.312 276.397 283.766 287.651 255.547 301.648C227.328 315.646 200.117 331.099 173.914 348.008C147.711 364.917 124.419 382.049 104.039 399.406C83.5469 416.763 67.5898 433.056 56.168 448.285C44.1862 465.082 33.9961 483.559 25.5977 503.715C21.3424 513.345 18.8789 523.815 18.207 535.125C17.9831 537.365 16.8633 539.044 14.8477 540.164C12.832 541.284 10.5924 541.62 8.12891 541.172C4.20964 539.94 1.74609 536.861 0.738281 531.934C0.0664062 525.439 0.570312 519.504 2.25 514.129C5.94531 500.579 10.8724 487.758 17.0312 475.664C28.3411 454.5 45.5299 432.888 68.5977 410.828C91.6654 388.768 118.54 367.66 149.223 347.504C179.905 327.236 211.931 309.207 245.301 293.418C278.671 277.517 311.312 265.199 343.227 256.465C375.141 247.618 403.863 243.643 429.395 244.539C455.038 245.435 475.25 252.49 490.031 265.703C504.812 278.805 511.979 299.521 511.531 327.852C510.747 346.104 507.892 363.461 502.965 379.922C495.798 404.109 487.512 427.513 478.105 450.133C468.811 472.641 458.901 494.701 448.375 516.312C445.128 523.031 444.4 526.335 446.191 526.223C448.095 525.999 450.895 523.423 454.59 518.496C467.915 500.803 481.241 483.335 494.566 466.09C503.637 454.556 512.875 443.246 522.281 432.16C523.513 430.592 524.745 429.081 525.977 427.625C531.352 421.018 537.846 416.595 545.461 414.355C551.172 413.124 555.987 414.411 559.906 418.219C563.826 422.026 565.169 427.737 563.938 435.352C563.714 436.135 563.49 436.919 563.266 437.703C561.25 447.557 558.898 457.132 556.211 466.426C549.044 489.158 541.654 511.721 534.039 534.117C530.344 545.651 526.648 557.353 522.953 569.223C522.169 570.902 521.049 573.982 519.594 578.461C518.138 582.38 516.738 586.243 515.395 590.051C514.051 593.858 512.987 596.77 512.203 598.785C513.211 598.001 522.337 587.755 539.582 568.047C562.986 541.172 590.701 509.706 622.727 473.648C654.753 437.591 679.892 410.044 698.145 391.008C731.85 357.078 767.348 326.228 804.637 298.457C842.038 270.574 880.783 245.379 920.871 222.871C930.725 217.72 940.859 213.073 951.273 208.93C953.513 208.146 955.697 207.25 957.824 206.242C967.678 202.323 978.148 200.867 989.234 201.875C1010.51 203.891 1020.25 217.328 1018.46 242.188C1017.23 257.641 1013.81 272.142 1008.21 285.691ZM532.863 461.723C533.423 462.171 533.815 462.507 534.039 462.73C534.039 462.73 534.039 462.842 534.039 463.066C534.263 463.066 534.375 462.954 534.375 462.73C533.927 462.507 533.423 462.171 532.863 461.723Z" fill="white"/>
<path d="M1008.21 276.691C1007.43 278.707 1006.65 280.723 1005.86 282.738C998.025 303.118 989.57 323.163 980.5 342.871C933.693 440.181 883.414 534.299 829.664 625.227C812.195 654.565 794.335 683.4 776.082 711.73C757.829 740.061 739.465 768.28 720.988 796.387C716.621 802.993 712.198 809.6 707.719 816.207C707.495 816.767 707.271 817.159 707.047 817.383C706.039 819.398 704.863 821.078 703.52 822.422C702.176 823.766 700.384 824.438 698.145 824.438C697.137 824.438 696.073 824.158 694.953 823.598C693.833 823.15 692.938 822.534 692.266 821.75C691.706 821.078 691.314 819.958 691.09 818.391C690.866 816.935 690.978 815.759 691.426 814.863C694.449 808.368 697.809 802.21 701.504 796.387C709.79 782.837 718.133 769.288 726.531 755.738C742.32 730.543 757.829 705.292 773.059 679.984C806.876 623.547 839.182 565.934 869.977 507.145C900.771 448.355 930.837 388.951 960.176 328.93C971.934 305.75 981.62 280.947 989.234 254.52C990.802 249.928 991.978 245.169 992.762 240.242C993.658 235.315 994.105 230.22 994.105 224.957C993.322 213.647 988.507 208.72 979.66 210.176C971.822 211.743 964.431 214.207 957.488 217.566C941.027 225.517 924.79 234.307 908.777 243.938C822.777 296.12 744.448 360.9 673.789 438.277C672.781 439.509 671.661 440.741 670.43 441.973C646.018 468.512 621.775 495.275 597.699 522.262C573.736 549.249 550.444 577.02 527.824 605.574C523.121 611.509 518.194 617.052 513.043 622.203C507.556 627.914 501.005 630.154 493.391 628.922C490.143 628.474 487.456 626.906 485.328 624.219C483.312 621.419 482.529 618.172 482.977 614.477C484.544 604.398 486.784 594.656 489.695 585.25C498.766 555.464 508.396 526.069 518.586 497.066C520.042 492.587 521.385 488.276 522.617 484.133C525.305 473.271 529.112 463.249 534.039 454.066C534.039 453.842 533.927 453.73 533.703 453.73C532.471 453.059 531.24 452.555 530.008 452.219C528.776 451.771 527.544 452.163 526.312 453.395C521.833 458.322 517.522 463.473 513.379 468.848C479.337 514.983 445.632 561.51 412.262 608.43C378.892 655.349 346.306 703.052 314.504 751.539C311.816 756.242 308.793 760.049 305.434 762.961C302.186 765.984 297.819 766.992 292.332 765.984C289.868 765.312 287.965 763.801 286.621 761.449C285.277 759.098 284.997 756.802 285.781 754.562C288.693 747.956 291.884 741.685 295.355 735.75C305.21 718.729 314.952 701.708 324.582 684.688C343.954 650.982 363.159 617.108 382.195 583.066C411.758 530.884 438.129 475.958 461.309 418.289C470.379 396.117 477.77 372.826 483.48 348.414C486.616 335.424 487.96 321.875 487.512 307.766C486.056 285.146 478.553 268.965 465.004 259.223C451.454 249.48 433.65 244.889 411.59 245.449C389.53 245.897 365.062 250.376 338.188 258.887C311.312 267.397 283.766 278.651 255.547 292.648C227.328 306.646 200.117 322.099 173.914 339.008C147.711 355.917 124.419 373.049 104.039 390.406C83.5469 407.763 67.5898 424.056 56.168 439.285C44.1862 456.082 33.9961 474.559 25.5977 494.715C21.3424 504.345 18.8789 514.815 18.207 526.125C17.9831 528.365 16.8633 530.044 14.8477 531.164C12.832 532.284 10.5924 532.62 8.12891 532.172C4.20964 530.94 1.74609 527.861 0.738281 522.934C0.0664062 516.439 0.570312 510.504 2.25 505.129C5.94531 491.579 10.8724 478.758 17.0312 466.664C28.3411 445.5 45.5299 423.888 68.5977 401.828C91.6654 379.768 118.54 358.66 149.223 338.504C179.905 318.236 211.931 300.207 245.301 284.418C278.671 268.517 311.312 256.199 343.227 247.465C375.141 238.618 403.863 234.643 429.395 235.539C455.038 236.435 475.25 243.49 490.031 256.703C504.812 269.805 511.979 290.521 511.531 318.852C510.747 337.104 507.892 354.461 502.965 370.922C495.798 395.109 487.512 418.513 478.105 441.133C468.811 463.641 458.901 485.701 448.375 507.312C445.128 514.031 444.4 517.335 446.191 517.223C448.095 516.999 450.895 514.423 454.59 509.496C467.915 491.803 481.241 474.335 494.566 457.09C503.637 445.556 512.875 434.246 522.281 423.16C523.513 421.592 524.745 420.081 525.977 418.625C531.352 412.018 537.846 407.595 545.461 405.355C551.172 404.124 555.987 405.411 559.906 409.219C563.826 413.026 565.169 418.737 563.938 426.352C563.714 427.135 563.49 427.919 563.266 428.703C561.25 438.557 558.898 448.132 556.211 457.426C549.044 480.158 541.654 502.721 534.039 525.117C530.344 536.651 526.648 548.353 522.953 560.223C522.169 561.902 521.049 564.982 519.594 569.461C518.138 573.38 516.738 577.243 515.395 581.051C514.051 584.858 512.987 587.77 512.203 589.785C513.211 589.001 522.337 578.755 539.582 559.047C562.986 532.172 590.701 500.706 622.727 464.648C654.753 428.591 679.892 401.044 698.145 382.008C731.85 348.078 767.348 317.228 804.637 289.457C842.038 261.574 880.783 236.379 920.871 213.871C930.725 208.72 940.859 204.073 951.273 199.93C953.513 199.146 955.697 198.25 957.824 197.242C967.678 193.323 978.148 191.867 989.234 192.875C1010.51 194.891 1020.25 208.328 1018.46 233.188C1017.23 248.641 1013.81 263.142 1008.21 276.691ZM532.863 452.723C533.423 453.171 533.815 453.507 534.039 453.73C534.039 453.73 534.039 453.842 534.039 454.066C534.263 454.066 534.375 453.954 534.375 453.73C533.927 453.507 533.423 453.171 532.863 452.723Z" fill="white"/>
<circle cx="620.5" cy="596.5" r="456.5" fill="white"/>
<mask id="mask0" mask-type="alpha" maskUnits="userSpaceOnUse" x="164" y="140" width="913" height="913">
<circle cx="620.5" cy="596.5" r="456.5" fill="white"/>
</mask>
<g mask="url(#mask0)">
<path d="M1303.32 528.022C1305.51 529.877 1307.49 531.985 1309.26 534.346C1311.03 536.622 1312.17 539.362 1312.68 542.566C1313.27 546.107 1312 548.805 1308.88 550.66C1307.03 551.587 1305.21 551.714 1303.44 551.039C1301.67 550.365 1300.41 549.016 1299.65 546.992C1297.63 541.428 1294.55 537.044 1290.42 533.84C1286.37 530.552 1281.94 527.685 1277.14 525.24C1266.52 519.676 1255.56 515.165 1244.26 511.708C1232.96 508.167 1221.58 505.09 1210.11 502.477C1190.97 498.43 1165.47 495.816 1133.6 494.636C1101.82 493.371 1066.41 493.835 1027.37 496.027C988.336 498.135 948.373 502.308 907.482 508.547C866.592 514.701 827.43 523.217 789.997 534.093C752.647 544.884 719.809 558.374 691.48 574.562C663.237 590.665 642.159 609.677 628.248 631.597C616.613 650.651 614.295 670.759 621.292 691.921C626.351 706.422 633.602 719.617 643.044 731.504C657.124 749.294 672.722 765.608 689.836 780.446C704.253 793.599 718.797 806.751 733.467 819.903C747.715 832.55 762.006 845.365 776.338 858.349C792.273 873.019 807.955 887.857 823.383 902.864C824.817 904.298 826.292 905.689 827.81 907.038C836.156 914.794 843.491 923.394 849.814 932.836C856.306 943.628 857.529 951.975 853.482 957.876C849.519 963.862 841.931 967.909 830.718 970.017C819.505 972.125 806.479 972.757 791.641 971.914C776.802 971.155 761.837 969.3 746.746 966.35C731.738 963.483 718.375 960.026 706.656 955.979C695.021 951.933 686.801 947.759 681.996 943.459C672.384 934.523 671.752 925.08 680.099 915.131C689.12 904.93 700.122 897.511 713.106 892.874C731.907 885.623 750.919 885.033 770.142 891.103C773.851 892.452 777.392 894.222 780.765 896.415C781.102 896.583 781.397 896.794 781.65 897.047C782.577 897.553 783.21 898.312 783.547 899.323C783.884 900.335 783.715 901.431 783.041 902.611C781.523 904.466 779.669 905.014 777.477 904.255C775.369 903.497 773.388 902.569 771.533 901.473C758.212 894.813 744.511 893.422 730.432 897.3C716.352 901.178 704.464 908.85 694.769 920.316C690.553 925.881 690.342 930.729 694.136 934.86C697.93 939.075 703.705 942.616 711.462 945.483C719.303 948.434 727.144 950.71 734.984 952.312C742.91 953.998 748.811 955.136 752.689 955.727C753.448 955.727 753.996 955.811 754.333 955.979C755.092 955.979 756.02 956.064 757.116 956.232C762.09 957.328 768.877 958.467 777.477 959.647C786.16 960.912 795.097 961.755 804.287 962.176C813.477 962.682 821.36 962.092 827.936 960.406C834.512 958.72 838.222 955.474 839.065 950.668C839.908 945.862 836.241 938.738 828.062 929.295C819.379 919.263 810.189 909.525 800.493 900.082C776.381 876.728 751.636 854.091 726.258 832.17C717.153 823.992 708.047 815.814 698.942 807.636C683.766 793.978 668.843 779.983 654.173 765.65C640.599 752.498 628.627 738.038 618.257 722.272C610.838 710.806 605.653 698.455 602.702 685.218C598.234 663.551 602.238 643.527 614.716 625.147C628.375 604.576 648.187 586.365 674.155 570.515C700.122 554.664 730.221 541.133 764.451 529.919C798.681 518.706 835.145 509.643 873.843 502.729C912.541 495.732 951.619 490.8 991.076 487.933C1030.62 484.982 1068.51 483.971 1104.77 484.898C1141.02 485.825 1173.82 488.565 1203.16 493.118C1232.58 497.671 1256.69 503.952 1275.5 511.961C1285.44 515.84 1294.72 521.193 1303.32 528.022Z" fill="black"/>
<path d="M1296.32 520.022C1298.51 521.877 1300.49 523.985 1302.26 526.346C1304.03 528.622 1305.17 531.362 1305.68 534.566C1306.27 538.107 1305 540.805 1301.88 542.66C1300.03 543.587 1298.21 543.714 1296.44 543.039C1294.67 542.365 1293.41 541.016 1292.65 538.992C1290.63 533.428 1287.55 529.044 1283.42 525.84C1279.37 522.552 1274.94 519.685 1270.14 517.24C1259.52 511.676 1248.56 507.165 1237.26 503.708C1225.96 500.167 1214.58 497.09 1203.11 494.477C1183.97 490.43 1158.47 487.816 1126.6 486.636C1094.82 485.371 1059.41 485.835 1020.37 488.027C981.336 490.135 941.373 494.308 900.482 500.547C859.592 506.701 820.43 515.217 782.997 526.093C745.647 536.884 712.809 550.374 684.48 566.562C656.237 582.665 635.159 601.677 621.248 623.597C609.613 642.651 607.295 662.759 614.292 683.921C619.351 698.422 626.602 711.617 636.044 723.504C650.124 741.294 665.722 757.608 682.836 772.446C697.253 785.599 711.797 798.751 726.467 811.903C740.715 824.55 755.006 837.365 769.338 850.349C785.273 865.019 800.955 879.857 816.383 894.864C817.817 896.298 819.292 897.689 820.81 899.038C829.156 906.794 836.491 915.394 842.814 924.836C849.306 935.628 850.529 943.975 846.482 949.876C842.519 955.862 834.931 959.909 823.718 962.017C812.505 964.125 799.479 964.757 784.641 963.914C769.802 963.155 754.837 961.3 739.746 958.35C724.738 955.483 711.375 952.026 699.656 947.979C688.021 943.933 679.801 939.759 674.996 935.459C665.384 926.523 664.752 917.08 673.099 907.131C682.12 896.93 693.122 889.511 706.106 884.874C724.907 877.623 743.919 877.033 763.142 883.103C766.851 884.452 770.392 886.222 773.765 888.415C774.102 888.583 774.397 888.794 774.65 889.047C775.577 889.553 776.21 890.312 776.547 891.323C776.884 892.335 776.715 893.431 776.041 894.611C774.523 896.466 772.669 897.014 770.477 896.255C768.369 895.497 766.388 894.569 764.533 893.473C751.212 886.813 737.511 885.422 723.432 889.3C709.352 893.178 697.464 900.85 687.769 912.316C683.553 917.881 683.342 922.729 687.136 926.86C690.93 931.075 696.705 934.616 704.462 937.483C712.303 940.434 720.144 942.71 727.984 944.312C735.91 945.998 741.811 947.136 745.689 947.727C746.448 947.727 746.996 947.811 747.333 947.979C748.092 947.979 749.02 948.064 750.116 948.232C755.09 949.328 761.877 950.467 770.477 951.647C779.16 952.912 788.097 953.755 797.287 954.176C806.477 954.682 814.36 954.092 820.936 952.406C827.512 950.72 831.222 947.474 832.065 942.668C832.908 937.862 829.241 930.738 821.062 921.295C812.379 911.263 803.189 901.525 793.493 892.082C769.381 868.728 744.636 846.091 719.258 824.17C710.153 815.992 701.047 807.814 691.942 799.636C676.766 785.978 661.843 771.983 647.173 757.65C633.599 744.498 621.627 730.038 611.257 714.272C603.838 702.806 598.653 690.455 595.702 677.218C591.234 655.551 595.238 635.527 607.716 617.147C621.375 596.576 641.187 578.365 667.155 562.515C693.122 546.664 723.221 533.133 757.451 521.919C791.681 510.706 828.145 501.643 866.843 494.729C905.541 487.732 944.619 482.8 984.076 479.933C1023.62 476.982 1061.51 475.971 1097.77 476.898C1134.02 477.825 1166.82 480.565 1196.16 485.118C1225.58 489.671 1249.69 495.952 1268.5 503.961C1278.44 507.84 1287.72 513.193 1296.32 520.022Z" fill="black"/>
<path d="M1289.32 512.022C1291.51 513.877 1293.49 515.985 1295.26 518.346C1297.03 520.622 1298.17 523.362 1298.68 526.566C1299.27 530.107 1298 532.805 1294.88 534.66C1293.03 535.587 1291.21 535.714 1289.44 535.039C1287.67 534.365 1286.41 533.016 1285.65 530.992C1283.63 525.428 1280.55 521.044 1276.42 517.84C1272.37 514.552 1267.94 511.685 1263.14 509.24C1252.52 503.676 1241.56 499.165 1230.26 495.708C1218.96 492.167 1207.58 489.09 1196.11 486.477C1176.97 482.43 1151.47 479.816 1119.6 478.636C1087.82 477.371 1052.41 477.835 1013.37 480.027C974.336 482.135 934.373 486.308 893.482 492.547C852.592 498.701 813.43 507.217 775.997 518.093C738.647 528.884 705.809 542.374 677.48 558.562C649.237 574.665 628.159 593.677 614.248 615.597C602.613 634.651 600.295 654.759 607.292 675.921C612.351 690.422 619.602 703.617 629.044 715.504C643.124 733.294 658.722 749.608 675.836 764.446C690.253 777.599 704.797 790.751 719.467 803.903C733.715 816.55 748.006 829.365 762.338 842.349C778.273 857.019 793.955 871.857 809.383 886.864C810.817 888.298 812.292 889.689 813.81 891.038C822.156 898.794 829.491 907.394 835.814 916.836C842.306 927.628 843.529 935.975 839.482 941.876C835.519 947.862 827.931 951.909 816.718 954.017C805.505 956.125 792.479 956.757 777.641 955.914C762.802 955.155 747.837 953.3 732.746 950.35C717.738 947.483 704.375 944.026 692.656 939.979C681.021 935.933 672.801 931.759 667.996 927.459C658.384 918.523 657.752 909.08 666.099 899.131C675.12 888.93 686.122 881.511 699.106 876.874C717.907 869.623 736.919 869.033 756.142 875.103C759.851 876.452 763.392 878.222 766.765 880.415C767.102 880.583 767.397 880.794 767.65 881.047C768.577 881.553 769.21 882.312 769.547 883.323C769.884 884.335 769.715 885.431 769.041 886.611C767.523 888.466 765.669 889.014 763.477 888.255C761.369 887.497 759.388 886.569 757.533 885.473C744.212 878.813 730.511 877.422 716.432 881.3C702.352 885.178 690.464 892.85 680.769 904.316C676.553 909.881 676.342 914.729 680.136 918.86C683.93 923.075 689.705 926.616 697.462 929.483C705.303 932.434 713.144 934.71 720.984 936.312C728.91 937.998 734.811 939.136 738.689 939.727C739.448 939.727 739.996 939.811 740.333 939.979C741.092 939.979 742.02 940.064 743.116 940.232C748.09 941.328 754.877 942.467 763.477 943.647C772.16 944.912 781.097 945.755 790.287 946.176C799.477 946.682 807.36 946.092 813.936 944.406C820.512 942.72 824.222 939.474 825.065 934.668C825.908 929.862 822.241 922.738 814.062 913.295C805.379 903.263 796.189 893.525 786.493 884.082C762.381 860.728 737.636 838.091 712.258 816.17C703.153 807.992 694.047 799.814 684.942 791.636C669.766 777.978 654.843 763.983 640.173 749.65C626.599 736.498 614.627 722.038 604.257 706.272C596.838 694.806 591.653 682.455 588.702 669.218C584.234 647.551 588.238 627.527 600.716 609.147C614.375 588.576 634.187 570.365 660.155 554.515C686.122 538.664 716.221 525.133 750.451 513.919C784.681 502.706 821.145 493.643 859.843 486.729C898.541 479.732 937.619 474.8 977.076 471.933C1016.62 468.982 1054.51 467.971 1090.77 468.898C1127.02 469.825 1159.82 472.565 1189.16 477.118C1218.58 481.671 1242.69 487.952 1261.5 495.961C1271.44 499.84 1280.72 505.193 1289.32 512.022Z" fill="black"/>
<path d="M1282.32 504.022C1284.51 505.877 1286.49 507.985 1288.26 510.346C1290.03 512.622 1291.17 515.362 1291.68 518.566C1292.27 522.107 1291 524.805 1287.88 526.66C1286.03 527.587 1284.21 527.714 1282.44 527.039C1280.67 526.365 1279.41 525.016 1278.65 522.992C1276.63 517.428 1273.55 513.044 1269.42 509.84C1265.37 506.552 1260.94 503.685 1256.14 501.24C1245.52 495.676 1234.56 491.165 1223.26 487.708C1211.96 484.167 1200.58 481.09 1189.11 478.477C1169.97 474.43 1144.47 471.816 1112.6 470.636C1080.82 469.371 1045.41 469.835 1006.37 472.027C967.336 474.135 927.373 478.308 886.482 484.547C845.592 490.701 806.43 499.217 768.997 510.093C731.647 520.884 698.809 534.374 670.48 550.562C642.237 566.665 621.159 585.677 607.248 607.597C595.613 626.651 593.295 646.759 600.292 667.921C605.351 682.422 612.602 695.617 622.044 707.504C636.124 725.294 651.722 741.608 668.836 756.446C683.253 769.599 697.797 782.751 712.467 795.903C726.715 808.55 741.006 821.365 755.338 834.349C771.273 849.019 786.955 863.857 802.383 878.864C803.817 880.298 805.292 881.689 806.81 883.038C815.156 890.794 822.491 899.394 828.814 908.836C835.306 919.628 836.529 927.975 832.482 933.876C828.519 939.862 820.931 943.909 809.718 946.017C798.505 948.125 785.479 948.757 770.641 947.914C755.802 947.155 740.837 945.3 725.746 942.35C710.738 939.483 697.375 936.026 685.656 931.979C674.021 927.933 665.801 923.759 660.996 919.459C651.384 910.523 650.752 901.08 659.099 891.131C668.12 880.93 679.122 873.511 692.106 868.874C710.907 861.623 729.919 861.033 749.142 867.103C752.851 868.452 756.392 870.222 759.765 872.415C760.102 872.583 760.397 872.794 760.65 873.047C761.577 873.553 762.21 874.312 762.547 875.323C762.884 876.335 762.715 877.431 762.041 878.611C760.523 880.466 758.669 881.014 756.477 880.255C754.369 879.497 752.388 878.569 750.533 877.473C737.212 870.813 723.511 869.422 709.432 873.3C695.352 877.178 683.464 884.85 673.769 896.316C669.553 901.881 669.342 906.729 673.136 910.86C676.93 915.075 682.705 918.616 690.462 921.483C698.303 924.434 706.144 926.71 713.984 928.312C721.91 929.998 727.811 931.136 731.689 931.727C732.448 931.727 732.996 931.811 733.333 931.979C734.092 931.979 735.02 932.064 736.116 932.232C741.09 933.328 747.877 934.467 756.477 935.647C765.16 936.912 774.097 937.755 783.287 938.176C792.477 938.682 800.36 938.092 806.936 936.406C813.512 934.72 817.222 931.474 818.065 926.668C818.908 921.862 815.241 914.738 807.062 905.295C798.379 895.263 789.189 885.525 779.493 876.082C755.381 852.728 730.636 830.091 705.258 808.17C696.153 799.992 687.047 791.814 677.942 783.636C662.766 769.978 647.843 755.983 633.173 741.65C619.599 728.498 607.627 714.038 597.257 698.272C589.838 686.806 584.653 674.455 581.702 661.218C577.234 639.551 581.238 619.527 593.716 601.147C607.375 580.576 627.187 562.365 653.155 546.515C679.122 530.664 709.221 517.133 743.451 505.919C777.681 494.706 814.145 485.643 852.843 478.729C891.541 471.732 930.619 466.8 970.076 463.933C1009.62 460.982 1047.51 459.971 1083.77 460.898C1120.02 461.825 1152.82 464.565 1182.16 469.118C1211.58 473.671 1235.69 479.952 1254.5 487.961C1264.44 491.84 1273.72 497.193 1282.32 504.022Z" fill="black"/>
<path d="M1275.32 496.022C1277.51 497.877 1279.49 499.985 1281.26 502.346C1283.03 504.622 1284.17 507.362 1284.68 510.566C1285.27 514.107 1284 516.805 1280.88 518.66C1279.03 519.587 1277.21 519.714 1275.44 519.039C1273.67 518.365 1272.41 517.016 1271.65 514.992C1269.63 509.428 1266.55 505.044 1262.42 501.84C1258.37 498.552 1253.94 495.685 1249.14 493.24C1238.52 487.676 1227.56 483.165 1216.26 479.708C1204.96 476.167 1193.58 473.09 1182.11 470.477C1162.97 466.43 1137.47 463.816 1105.6 462.636C1073.82 461.371 1038.41 461.835 999.371 464.027C960.336 466.135 920.373 470.308 879.482 476.547C838.592 482.701 799.43 491.217 761.997 502.093C724.647 512.884 691.809 526.374 663.48 542.562C635.237 558.665 614.159 577.677 600.248 599.597C588.613 618.651 586.295 638.759 593.292 659.921C598.351 674.422 605.602 687.617 615.044 699.504C629.124 717.294 644.722 733.608 661.836 748.446C676.253 761.599 690.797 774.751 705.467 787.903C719.715 800.55 734.006 813.365 748.338 826.349C764.273 841.019 779.955 855.857 795.383 870.864C796.817 872.298 798.292 873.689 799.81 875.038C808.156 882.794 815.491 891.394 821.814 900.836C828.306 911.628 829.529 919.975 825.482 925.876C821.519 931.862 813.931 935.909 802.718 938.017C791.505 940.125 778.479 940.757 763.641 939.914C748.802 939.155 733.837 937.3 718.746 934.35C703.738 931.483 690.375 928.026 678.656 923.979C667.021 919.933 658.801 915.759 653.996 911.459C644.384 902.523 643.752 893.08 652.099 883.131C661.12 872.93 672.122 865.511 685.106 860.874C703.907 853.623 722.919 853.033 742.142 859.103C745.851 860.452 749.392 862.222 752.765 864.415C753.102 864.583 753.397 864.794 753.65 865.047C754.577 865.553 755.21 866.312 755.547 867.323C755.884 868.335 755.715 869.431 755.041 870.611C753.523 872.466 751.669 873.014 749.477 872.255C747.369 871.497 745.388 870.569 743.533 869.473C730.212 862.813 716.511 861.422 702.432 865.3C688.352 869.178 676.464 876.85 666.769 888.316C662.553 893.881 662.342 898.729 666.136 902.86C669.93 907.075 675.705 910.616 683.462 913.483C691.303 916.434 699.144 918.71 706.984 920.312C714.91 921.998 720.811 923.136 724.689 923.727C725.448 923.727 725.996 923.811 726.333 923.979C727.092 923.979 728.02 924.064 729.116 924.232C734.09 925.328 740.877 926.467 749.477 927.647C758.16 928.912 767.097 929.755 776.287 930.176C785.477 930.682 793.36 930.092 799.936 928.406C806.512 926.72 810.222 923.474 811.065 918.668C811.908 913.862 808.241 906.738 800.062 897.295C791.379 887.263 782.189 877.525 772.493 868.082C748.381 844.728 723.636 822.091 698.258 800.17C689.153 791.992 680.047 783.814 670.942 775.636C655.766 761.978 640.843 747.983 626.173 733.65C612.599 720.498 600.627 706.038 590.257 690.272C582.838 678.806 577.653 666.455 574.702 653.218C570.234 631.551 574.238 611.527 586.716 593.147C600.375 572.576 620.187 554.365 646.155 538.515C672.122 522.664 702.221 509.133 736.451 497.919C770.681 486.706 807.145 477.643 845.843 470.729C884.541 463.732 923.619 458.8 963.076 455.933C1002.62 452.982 1040.51 451.971 1076.77 452.898C1113.02 453.825 1145.82 456.565 1175.16 461.118C1204.58 465.671 1228.69 471.952 1247.5 479.961C1257.44 483.84 1266.72 489.193 1275.32 496.022Z" fill="black"/>
<path d="M1008.21 312.691C1007.43 314.707 1006.65 316.723 1005.86 318.738C998.025 339.118 989.57 359.163 980.5 378.871C933.693 476.181 883.414 570.299 829.664 661.227C812.195 690.565 794.335 719.4 776.082 747.73C757.829 776.061 739.465 804.28 720.988 832.387C716.621 838.993 712.198 845.6 707.719 852.207C707.495 852.767 707.271 853.159 707.047 853.383C706.039 855.398 704.863 857.078 703.52 858.422C702.176 859.766 700.384 860.438 698.145 860.438C697.137 860.438 696.073 860.158 694.953 859.598C693.833 859.15 692.938 858.534 692.266 857.75C691.706 857.078 691.314 855.958 691.09 854.391C690.866 852.935 690.978 851.759 691.426 850.863C694.449 844.368 697.809 838.21 701.504 832.387C709.79 818.837 718.133 805.288 726.531 791.738C742.32 766.543 757.829 741.292 773.059 715.984C806.876 659.547 839.182 601.934 869.977 543.145C900.771 484.355 930.837 424.951 960.176 364.93C971.934 341.75 981.62 316.947 989.234 290.52C990.802 285.928 991.978 281.169 992.762 276.242C993.658 271.315 994.105 266.22 994.105 260.957C993.322 249.647 988.507 244.72 979.66 246.176C971.822 247.743 964.431 250.207 957.488 253.566C941.027 261.517 924.79 270.307 908.777 279.938C822.777 332.12 744.448 396.9 673.789 474.277C672.781 475.509 671.661 476.741 670.43 477.973C646.018 504.512 621.775 531.275 597.699 558.262C573.736 585.249 550.444 613.02 527.824 641.574C523.121 647.509 518.194 653.052 513.043 658.203C507.556 663.914 501.005 666.154 493.391 664.922C490.143 664.474 487.456 662.906 485.328 660.219C483.312 657.419 482.529 654.172 482.977 650.477C484.544 640.398 486.784 630.656 489.695 621.25C498.766 591.464 508.396 562.069 518.586 533.066C520.042 528.587 521.385 524.276 522.617 520.133C525.305 509.271 529.112 499.249 534.039 490.066C534.039 489.842 533.927 489.73 533.703 489.73C532.471 489.059 531.24 488.555 530.008 488.219C528.776 487.771 527.544 488.163 526.312 489.395C521.833 494.322 517.522 499.473 513.379 504.848C479.337 550.983 445.632 597.51 412.262 644.43C378.892 691.349 346.306 739.052 314.504 787.539C311.816 792.242 308.793 796.049 305.434 798.961C302.186 801.984 297.819 802.992 292.332 801.984C289.868 801.312 287.965 799.801 286.621 797.449C285.277 795.098 284.997 792.802 285.781 790.562C288.693 783.956 291.884 777.685 295.355 771.75C305.21 754.729 314.952 737.708 324.582 720.688C343.954 686.982 363.159 653.108 382.195 619.066C411.758 566.884 438.129 511.958 461.309 454.289C470.379 432.117 477.77 408.826 483.48 384.414C486.616 371.424 487.96 357.875 487.512 343.766C486.056 321.146 478.553 304.965 465.004 295.223C451.454 285.48 433.65 280.889 411.59 281.449C389.53 281.897 365.062 286.376 338.188 294.887C311.312 303.397 283.766 314.651 255.547 328.648C227.328 342.646 200.117 358.099 173.914 375.008C147.711 391.917 124.419 409.049 104.039 426.406C83.5469 443.763 67.5898 460.056 56.168 475.285C44.1862 492.082 33.9961 510.559 25.5977 530.715C21.3424 540.345 18.8789 550.815 18.207 562.125C17.9831 564.365 16.8633 566.044 14.8477 567.164C12.832 568.284 10.5924 568.62 8.12891 568.172C4.20964 566.94 1.74609 563.861 0.738281 558.934C0.0664062 552.439 0.570312 546.504 2.25 541.129C5.94531 527.579 10.8724 514.758 17.0312 502.664C28.3411 481.5 45.5299 459.888 68.5977 437.828C91.6654 415.768 118.54 394.66 149.223 374.504C179.905 354.236 211.931 336.207 245.301 320.418C278.671 304.517 311.312 292.199 343.227 283.465C375.141 274.618 403.863 270.643 429.395 271.539C455.038 272.435 475.25 279.49 490.031 292.703C504.812 305.805 511.979 326.521 511.531 354.852C510.747 373.104 507.892 390.461 502.965 406.922C495.798 431.109 487.512 454.513 478.105 477.133C468.811 499.641 458.901 521.701 448.375 543.312C445.128 550.031 444.4 553.335 446.191 553.223C448.095 552.999 450.895 550.423 454.59 545.496C467.915 527.803 481.241 510.335 494.566 493.09C503.637 481.556 512.875 470.246 522.281 459.16C523.513 457.592 524.745 456.081 525.977 454.625C531.352 448.018 537.846 443.595 545.461 441.355C551.172 440.124 555.987 441.411 559.906 445.219C563.826 449.026 565.169 454.737 563.938 462.352C563.714 463.135 563.49 463.919 563.266 464.703C561.25 474.557 558.898 484.132 556.211 493.426C549.044 516.158 541.654 538.721 534.039 561.117C530.344 572.651 526.648 584.353 522.953 596.223C522.169 597.902 521.049 600.982 519.594 605.461C518.138 609.38 516.738 613.243 515.395 617.051C514.051 620.858 512.987 623.77 512.203 625.785C513.211 625.001 522.337 614.755 539.582 595.047C562.986 568.172 590.701 536.706 622.727 500.648C654.753 464.591 679.892 437.044 698.145 418.008C731.85 384.078 767.348 353.228 804.637 325.457C842.038 297.574 880.783 272.379 920.871 249.871C930.725 244.72 940.859 240.073 951.273 235.93C953.513 235.146 955.697 234.25 957.824 233.242C967.678 229.323 978.148 227.867 989.234 228.875C1010.51 230.891 1020.25 244.328 1018.46 269.188C1017.23 284.641 1013.81 299.142 1008.21 312.691ZM532.863 488.723C533.423 489.171 533.815 489.507 534.039 489.73C534.039 489.73 534.039 489.842 534.039 490.066C534.263 490.066 534.375 489.954 534.375 489.73C533.927 489.507 533.423 489.171 532.863 488.723Z" fill="black"/>
<path d="M1008.21 303.691C1007.43 305.707 1006.65 307.723 1005.86 309.738C998.025 330.118 989.57 350.163 980.5 369.871C933.693 467.181 883.414 561.299 829.664 652.227C812.195 681.565 794.335 710.4 776.082 738.73C757.829 767.061 739.465 795.28 720.988 823.387C716.621 829.993 712.198 836.6 707.719 843.207C707.495 843.767 707.271 844.159 707.047 844.383C706.039 846.398 704.863 848.078 703.52 849.422C702.176 850.766 700.384 851.438 698.145 851.438C697.137 851.438 696.073 851.158 694.953 850.598C693.833 850.15 692.938 849.534 692.266 848.75C691.706 848.078 691.314 846.958 691.09 845.391C690.866 843.935 690.978 842.759 691.426 841.863C694.449 835.368 697.809 829.21 701.504 823.387C709.79 809.837 718.133 796.288 726.531 782.738C742.32 757.543 757.829 732.292 773.059 706.984C806.876 650.547 839.182 592.934 869.977 534.145C900.771 475.355 930.837 415.951 960.176 355.93C971.934 332.75 981.62 307.947 989.234 281.52C990.802 276.928 991.978 272.169 992.762 267.242C993.658 262.315 994.105 257.22 994.105 251.957C993.322 240.647 988.507 235.72 979.66 237.176C971.822 238.743 964.431 241.207 957.488 244.566C941.027 252.517 924.79 261.307 908.777 270.938C822.777 323.12 744.448 387.9 673.789 465.277C672.781 466.509 671.661 467.741 670.43 468.973C646.018 495.512 621.775 522.275 597.699 549.262C573.736 576.249 550.444 604.02 527.824 632.574C523.121 638.509 518.194 644.052 513.043 649.203C507.556 654.914 501.005 657.154 493.391 655.922C490.143 655.474 487.456 653.906 485.328 651.219C483.312 648.419 482.529 645.172 482.977 641.477C484.544 631.398 486.784 621.656 489.695 612.25C498.766 582.464 508.396 553.069 518.586 524.066C520.042 519.587 521.385 515.276 522.617 511.133C525.305 500.271 529.112 490.249 534.039 481.066C534.039 480.842 533.927 480.73 533.703 480.73C532.471 480.059 531.24 479.555 530.008 479.219C528.776 478.771 527.544 479.163 526.312 480.395C521.833 485.322 517.522 490.473 513.379 495.848C479.337 541.983 445.632 588.51 412.262 635.43C378.892 682.349 346.306 730.052 314.504 778.539C311.816 783.242 308.793 787.049 305.434 789.961C302.186 792.984 297.819 793.992 292.332 792.984C289.868 792.312 287.965 790.801 286.621 788.449C285.277 786.098 284.997 783.802 285.781 781.562C288.693 774.956 291.884 768.685 295.355 762.75C305.21 745.729 314.952 728.708 324.582 711.688C343.954 677.982 363.159 644.108 382.195 610.066C411.758 557.884 438.129 502.958 461.309 445.289C470.379 423.117 477.77 399.826 483.48 375.414C486.616 362.424 487.96 348.875 487.512 334.766C486.056 312.146 478.553 295.965 465.004 286.223C451.454 276.48 433.65 271.889 411.59 272.449C389.53 272.897 365.062 277.376 338.188 285.887C311.312 294.397 283.766 305.651 255.547 319.648C227.328 333.646 200.117 349.099 173.914 366.008C147.711 382.917 124.419 400.049 104.039 417.406C83.5469 434.763 67.5898 451.056 56.168 466.285C44.1862 483.082 33.9961 501.559 25.5977 521.715C21.3424 531.345 18.8789 541.815 18.207 553.125C17.9831 555.365 16.8633 557.044 14.8477 558.164C12.832 559.284 10.5924 559.62 8.12891 559.172C4.20964 557.94 1.74609 554.861 0.738281 549.934C0.0664062 543.439 0.570312 537.504 2.25 532.129C5.94531 518.579 10.8724 505.758 17.0312 493.664C28.3411 472.5 45.5299 450.888 68.5977 428.828C91.6654 406.768 118.54 385.66 149.223 365.504C179.905 345.236 211.931 327.207 245.301 311.418C278.671 295.517 311.312 283.199 343.227 274.465C375.141 265.618 403.863 261.643 429.395 262.539C455.038 263.435 475.25 270.49 490.031 283.703C504.812 296.805 511.979 317.521 511.531 345.852C510.747 364.104 507.892 381.461 502.965 397.922C495.798 422.109 487.512 445.513 478.105 468.133C468.811 490.641 458.901 512.701 448.375 534.312C445.128 541.031 444.4 544.335 446.191 544.223C448.095 543.999 450.895 541.423 454.59 536.496C467.915 518.803 481.241 501.335 494.566 484.09C503.637 472.556 512.875 461.246 522.281 450.16C523.513 448.592 524.745 447.081 525.977 445.625C531.352 439.018 537.846 434.595 545.461 432.355C551.172 431.124 555.987 432.411 559.906 436.219C563.826 440.026 565.169 445.737 563.938 453.352C563.714 454.135 563.49 454.919 563.266 455.703C561.25 465.557 558.898 475.132 556.211 484.426C549.044 507.158 541.654 529.721 534.039 552.117C530.344 563.651 526.648 575.353 522.953 587.223C522.169 588.902 521.049 591.982 519.594 596.461C518.138 600.38 516.738 604.243 515.395 608.051C514.051 611.858 512.987 614.77 512.203 616.785C513.211 616.001 522.337 605.755 539.582 586.047C562.986 559.172 590.701 527.706 622.727 491.648C654.753 455.591 679.892 428.044 698.145 409.008C731.85 375.078 767.348 344.228 804.637 316.457C842.038 288.574 880.783 263.379 920.871 240.871C930.725 235.72 940.859 231.073 951.273 226.93C953.513 226.146 955.697 225.25 957.824 224.242C967.678 220.323 978.148 218.867 989.234 219.875C1010.51 221.891 1020.25 235.328 1018.46 260.188C1017.23 275.641 1013.81 290.142 1008.21 303.691ZM532.863 479.723C533.423 480.171 533.815 480.507 534.039 480.73C534.039 480.73 534.039 480.842 534.039 481.066C534.263 481.066 534.375 480.954 534.375 480.73C533.927 480.507 533.423 480.171 532.863 479.723Z" fill="black"/>
<path d="M1008.21 294.691C1007.43 296.707 1006.65 298.723 1005.86 300.738C998.025 321.118 989.57 341.163 980.5 360.871C933.693 458.181 883.414 552.299 829.664 643.227C812.195 672.565 794.335 701.4 776.082 729.73C757.829 758.061 739.465 786.28 720.988 814.387C716.621 820.993 712.198 827.6 707.719 834.207C707.495 834.767 707.271 835.159 707.047 835.383C706.039 837.398 704.863 839.078 703.52 840.422C702.176 841.766 700.384 842.438 698.145 842.438C697.137 842.438 696.073 842.158 694.953 841.598C693.833 841.15 692.938 840.534 692.266 839.75C691.706 839.078 691.314 837.958 691.09 836.391C690.866 834.935 690.978 833.759 691.426 832.863C694.449 826.368 697.809 820.21 701.504 814.387C709.79 800.837 718.133 787.288 726.531 773.738C742.32 748.543 757.829 723.292 773.059 697.984C806.876 641.547 839.182 583.934 869.977 525.145C900.771 466.355 930.837 406.951 960.176 346.93C971.934 323.75 981.62 298.947 989.234 272.52C990.802 267.928 991.978 263.169 992.762 258.242C993.658 253.315 994.105 248.22 994.105 242.957C993.322 231.647 988.507 226.72 979.66 228.176C971.822 229.743 964.431 232.207 957.488 235.566C941.027 243.517 924.79 252.307 908.777 261.938C822.777 314.12 744.448 378.9 673.789 456.277C672.781 457.509 671.661 458.741 670.43 459.973C646.018 486.512 621.775 513.275 597.699 540.262C573.736 567.249 550.444 595.02 527.824 623.574C523.121 629.509 518.194 635.052 513.043 640.203C507.556 645.914 501.005 648.154 493.391 646.922C490.143 646.474 487.456 644.906 485.328 642.219C483.312 639.419 482.529 636.172 482.977 632.477C484.544 622.398 486.784 612.656 489.695 603.25C498.766 573.464 508.396 544.069 518.586 515.066C520.042 510.587 521.385 506.276 522.617 502.133C525.305 491.271 529.112 481.249 534.039 472.066C534.039 471.842 533.927 471.73 533.703 471.73C532.471 471.059 531.24 470.555 530.008 470.219C528.776 469.771 527.544 470.163 526.312 471.395C521.833 476.322 517.522 481.473 513.379 486.848C479.337 532.983 445.632 579.51 412.262 626.43C378.892 673.349 346.306 721.052 314.504 769.539C311.816 774.242 308.793 778.049 305.434 780.961C302.186 783.984 297.819 784.992 292.332 783.984C289.868 783.312 287.965 781.801 286.621 779.449C285.277 777.098 284.997 774.802 285.781 772.562C288.693 765.956 291.884 759.685 295.355 753.75C305.21 736.729 314.952 719.708 324.582 702.688C343.954 668.982 363.159 635.108 382.195 601.066C411.758 548.884 438.129 493.958 461.309 436.289C470.379 414.117 477.77 390.826 483.48 366.414C486.616 353.424 487.96 339.875 487.512 325.766C486.056 303.146 478.553 286.965 465.004 277.223C451.454 267.48 433.65 262.889 411.59 263.449C389.53 263.897 365.062 268.376 338.188 276.887C311.312 285.397 283.766 296.651 255.547 310.648C227.328 324.646 200.117 340.099 173.914 357.008C147.711 373.917 124.419 391.049 104.039 408.406C83.5469 425.763 67.5898 442.056 56.168 457.285C44.1862 474.082 33.9961 492.559 25.5977 512.715C21.3424 522.345 18.8789 532.815 18.207 544.125C17.9831 546.365 16.8633 548.044 14.8477 549.164C12.832 550.284 10.5924 550.62 8.12891 550.172C4.20964 548.94 1.74609 545.861 0.738281 540.934C0.0664062 534.439 0.570312 528.504 2.25 523.129C5.94531 509.579 10.8724 496.758 17.0312 484.664C28.3411 463.5 45.5299 441.888 68.5977 419.828C91.6654 397.768 118.54 376.66 149.223 356.504C179.905 336.236 211.931 318.207 245.301 302.418C278.671 286.517 311.312 274.199 343.227 265.465C375.141 256.618 403.863 252.643 429.395 253.539C455.038 254.435 475.25 261.49 490.031 274.703C504.812 287.805 511.979 308.521 511.531 336.852C510.747 355.104 507.892 372.461 502.965 388.922C495.798 413.109 487.512 436.513 478.105 459.133C468.811 481.641 458.901 503.701 448.375 525.312C445.128 532.031 444.4 535.335 446.191 535.223C448.095 534.999 450.895 532.423 454.59 527.496C467.915 509.803 481.241 492.335 494.566 475.09C503.637 463.556 512.875 452.246 522.281 441.16C523.513 439.592 524.745 438.081 525.977 436.625C531.352 430.018 537.846 425.595 545.461 423.355C551.172 422.124 555.987 423.411 559.906 427.219C563.826 431.026 565.169 436.737 563.938 444.352C563.714 445.135 563.49 445.919 563.266 446.703C561.25 456.557 558.898 466.132 556.211 475.426C549.044 498.158 541.654 520.721 534.039 543.117C530.344 554.651 526.648 566.353 522.953 578.223C522.169 579.902 521.049 582.982 519.594 587.461C518.138 591.38 516.738 595.243 515.395 599.051C514.051 602.858 512.987 605.77 512.203 607.785C513.211 607.001 522.337 596.755 539.582 577.047C562.986 550.172 590.701 518.706 622.727 482.648C654.753 446.591 679.892 419.044 698.145 400.008C731.85 366.078 767.348 335.228 804.637 307.457C842.038 279.574 880.783 254.379 920.871 231.871C930.725 226.72 940.859 222.073 951.273 217.93C953.513 217.146 955.697 216.25 957.824 215.242C967.678 211.323 978.148 209.867 989.234 210.875C1010.51 212.891 1020.25 226.328 1018.46 251.188C1017.23 266.641 1013.81 281.142 1008.21 294.691ZM532.863 470.723C533.423 471.171 533.815 471.507 534.039 471.73C534.039 471.73 534.039 471.842 534.039 472.066C534.263 472.066 534.375 471.954 534.375 471.73C533.927 471.507 533.423 471.171 532.863 470.723Z" fill="black"/>
<path d="M1008.21 285.691C1007.43 287.707 1006.65 289.723 1005.86 291.738C998.025 312.118 989.57 332.163 980.5 351.871C933.693 449.181 883.414 543.299 829.664 634.227C812.195 663.565 794.335 692.4 776.082 720.73C757.829 749.061 739.465 777.28 720.988 805.387C716.621 811.993 712.198 818.6 707.719 825.207C707.495 825.767 707.271 826.159 707.047 826.383C706.039 828.398 704.863 830.078 703.52 831.422C702.176 832.766 700.384 833.438 698.145 833.438C697.137 833.438 696.073 833.158 694.953 832.598C693.833 832.15 692.938 831.534 692.266 830.75C691.706 830.078 691.314 828.958 691.09 827.391C690.866 825.935 690.978 824.759 691.426 823.863C694.449 817.368 697.809 811.21 701.504 805.387C709.79 791.837 718.133 778.288 726.531 764.738C742.32 739.543 757.829 714.292 773.059 688.984C806.876 632.547 839.182 574.934 869.977 516.145C900.771 457.355 930.837 397.951 960.176 337.93C971.934 314.75 981.62 289.947 989.234 263.52C990.802 258.928 991.978 254.169 992.762 249.242C993.658 244.315 994.105 239.22 994.105 233.957C993.322 222.647 988.507 217.72 979.66 219.176C971.822 220.743 964.431 223.207 957.488 226.566C941.027 234.517 924.79 243.307 908.777 252.938C822.777 305.12 744.448 369.9 673.789 447.277C672.781 448.509 671.661 449.741 670.43 450.973C646.018 477.512 621.775 504.275 597.699 531.262C573.736 558.249 550.444 586.02 527.824 614.574C523.121 620.509 518.194 626.052 513.043 631.203C507.556 636.914 501.005 639.154 493.391 637.922C490.143 637.474 487.456 635.906 485.328 633.219C483.312 630.419 482.529 627.172 482.977 623.477C484.544 613.398 486.784 603.656 489.695 594.25C498.766 564.464 508.396 535.069 518.586 506.066C520.042 501.587 521.385 497.276 522.617 493.133C525.305 482.271 529.112 472.249 534.039 463.066C534.039 462.842 533.927 462.73 533.703 462.73C532.471 462.059 531.24 461.555 530.008 461.219C528.776 460.771 527.544 461.163 526.312 462.395C521.833 467.322 517.522 472.473 513.379 477.848C479.337 523.983 445.632 570.51 412.262 617.43C378.892 664.349 346.306 712.052 314.504 760.539C311.816 765.242 308.793 769.049 305.434 771.961C302.186 774.984 297.819 775.992 292.332 774.984C289.868 774.312 287.965 772.801 286.621 770.449C285.277 768.098 284.997 765.802 285.781 763.562C288.693 756.956 291.884 750.685 295.355 744.75C305.21 727.729 314.952 710.708 324.582 693.688C343.954 659.982 363.159 626.108 382.195 592.066C411.758 539.884 438.129 484.958 461.309 427.289C470.379 405.117 477.77 381.826 483.48 357.414C486.616 344.424 487.96 330.875 487.512 316.766C486.056 294.146 478.553 277.965 465.004 268.223C451.454 258.48 433.65 253.889 411.59 254.449C389.53 254.897 365.062 259.376 338.188 267.887C311.312 276.397 283.766 287.651 255.547 301.648C227.328 315.646 200.117 331.099 173.914 348.008C147.711 364.917 124.419 382.049 104.039 399.406C83.5469 416.763 67.5898 433.056 56.168 448.285C44.1862 465.082 33.9961 483.559 25.5977 503.715C21.3424 513.345 18.8789 523.815 18.207 535.125C17.9831 537.365 16.8633 539.044 14.8477 540.164C12.832 541.284 10.5924 541.62 8.12891 541.172C4.20964 539.94 1.74609 536.861 0.738281 531.934C0.0664062 525.439 0.570312 519.504 2.25 514.129C5.94531 500.579 10.8724 487.758 17.0312 475.664C28.3411 454.5 45.5299 432.888 68.5977 410.828C91.6654 388.768 118.54 367.66 149.223 347.504C179.905 327.236 211.931 309.207 245.301 293.418C278.671 277.517 311.312 265.199 343.227 256.465C375.141 247.618 403.863 243.643 429.395 244.539C455.038 245.435 475.25 252.49 490.031 265.703C504.812 278.805 511.979 299.521 511.531 327.852C510.747 346.104 507.892 363.461 502.965 379.922C495.798 404.109 487.512 427.513 478.105 450.133C468.811 472.641 458.901 494.701 448.375 516.312C445.128 523.031 444.4 526.335 446.191 526.223C448.095 525.999 450.895 523.423 454.59 518.496C467.915 500.803 481.241 483.335 494.566 466.09C503.637 454.556 512.875 443.246 522.281 432.16C523.513 430.592 524.745 429.081 525.977 427.625C531.352 421.018 537.846 416.595 545.461 414.355C551.172 413.124 555.987 414.411 559.906 418.219C563.826 422.026 565.169 427.737 563.938 435.352C563.714 436.135 563.49 436.919 563.266 437.703C561.25 447.557 558.898 457.132 556.211 466.426C549.044 489.158 541.654 511.721 534.039 534.117C530.344 545.651 526.648 557.353 522.953 569.223C522.169 570.902 521.049 573.982 519.594 578.461C518.138 582.38 516.738 586.243 515.395 590.051C514.051 593.858 512.987 596.77 512.203 598.785C513.211 598.001 522.337 587.755 539.582 568.047C562.986 541.172 590.701 509.706 622.727 473.648C654.753 437.591 679.892 410.044 698.145 391.008C731.85 357.078 767.348 326.228 804.637 298.457C842.038 270.574 880.783 245.379 920.871 222.871C930.725 217.72 940.859 213.073 951.273 208.93C953.513 208.146 955.697 207.25 957.824 206.242C967.678 202.323 978.148 200.867 989.234 201.875C1010.51 203.891 1020.25 217.328 1018.46 242.188C1017.23 257.641 1013.81 272.142 1008.21 285.691ZM532.863 461.723C533.423 462.171 533.815 462.507 534.039 462.73C534.039 462.73 534.039 462.842 534.039 463.066C534.263 463.066 534.375 462.954 534.375 462.73C533.927 462.507 533.423 462.171 532.863 461.723Z" fill="black"/>
<path d="M1008.21 276.691C1007.43 278.707 1006.65 280.723 1005.86 282.738C998.025 303.118 989.57 323.163 980.5 342.871C933.693 440.181 883.414 534.299 829.664 625.227C812.195 654.565 794.335 683.4 776.082 711.73C757.829 740.061 739.465 768.28 720.988 796.387C716.621 802.993 712.198 809.6 707.719 816.207C707.495 816.767 707.271 817.159 707.047 817.383C706.039 819.398 704.863 821.078 703.52 822.422C702.176 823.766 700.384 824.438 698.145 824.438C697.137 824.438 696.073 824.158 694.953 823.598C693.833 823.15 692.938 822.534 692.266 821.75C691.706 821.078 691.314 819.958 691.09 818.391C690.866 816.935 690.978 815.759 691.426 814.863C694.449 808.368 697.809 802.21 701.504 796.387C709.79 782.837 718.133 769.288 726.531 755.738C742.32 730.543 757.829 705.292 773.059 679.984C806.876 623.547 839.182 565.934 869.977 507.145C900.771 448.355 930.837 388.951 960.176 328.93C971.934 305.75 981.62 280.947 989.234 254.52C990.802 249.928 991.978 245.169 992.762 240.242C993.658 235.315 994.105 230.22 994.105 224.957C993.322 213.647 988.507 208.72 979.66 210.176C971.822 211.743 964.431 214.207 957.488 217.566C941.027 225.517 924.79 234.307 908.777 243.938C822.777 296.12 744.448 360.9 673.789 438.277C672.781 439.509 671.661 440.741 670.43 441.973C646.018 468.512 621.775 495.275 597.699 522.262C573.736 549.249 550.444 577.02 527.824 605.574C523.121 611.509 518.194 617.052 513.043 622.203C507.556 627.914 501.005 630.154 493.391 628.922C490.143 628.474 487.456 626.906 485.328 624.219C483.312 621.419 482.529 618.172 482.977 614.477C484.544 604.398 486.784 594.656 489.695 585.25C498.766 555.464 508.396 526.069 518.586 497.066C520.042 492.587 521.385 488.276 522.617 484.133C525.305 473.271 529.112 463.249 534.039 454.066C534.039 453.842 533.927 453.73 533.703 453.73C532.471 453.059 531.24 452.555 530.008 452.219C528.776 451.771 527.544 452.163 526.312 453.395C521.833 458.322 517.522 463.473 513.379 468.848C479.337 514.983 445.632 561.51 412.262 608.43C378.892 655.349 346.306 703.052 314.504 751.539C311.816 756.242 308.793 760.049 305.434 762.961C302.186 765.984 297.819 766.992 292.332 765.984C289.868 765.312 287.965 763.801 286.621 761.449C285.277 759.098 284.997 756.802 285.781 754.562C288.693 747.956 291.884 741.685 295.355 735.75C305.21 718.729 314.952 701.708 324.582 684.688C343.954 650.982 363.159 617.108 382.195 583.066C411.758 530.884 438.129 475.958 461.309 418.289C470.379 396.117 477.77 372.826 483.48 348.414C486.616 335.424 487.96 321.875 487.512 307.766C486.056 285.146 478.553 268.965 465.004 259.223C451.454 249.48 433.65 244.889 411.59 245.449C389.53 245.897 365.062 250.376 338.188 258.887C311.312 267.397 283.766 278.651 255.547 292.648C227.328 306.646 200.117 322.099 173.914 339.008C147.711 355.917 124.419 373.049 104.039 390.406C83.5469 407.763 67.5898 424.056 56.168 439.285C44.1862 456.082 33.9961 474.559 25.5977 494.715C21.3424 504.345 18.8789 514.815 18.207 526.125C17.9831 528.365 16.8633 530.044 14.8477 531.164C12.832 532.284 10.5924 532.62 8.12891 532.172C4.20964 530.94 1.74609 527.861 0.738281 522.934C0.0664062 516.439 0.570312 510.504 2.25 505.129C5.94531 491.579 10.8724 478.758 17.0312 466.664C28.3411 445.5 45.5299 423.888 68.5977 401.828C91.6654 379.768 118.54 358.66 149.223 338.504C179.905 318.236 211.931 300.207 245.301 284.418C278.671 268.517 311.312 256.199 343.227 247.465C375.141 238.618 403.863 234.643 429.395 235.539C455.038 236.435 475.25 243.49 490.031 256.703C504.812 269.805 511.979 290.521 511.531 318.852C510.747 337.104 507.892 354.461 502.965 370.922C495.798 395.109 487.512 418.513 478.105 441.133C468.811 463.641 458.901 485.701 448.375 507.312C445.128 514.031 444.4 517.335 446.191 517.223C448.095 516.999 450.895 514.423 454.59 509.496C467.915 491.803 481.241 474.335 494.566 457.09C503.637 445.556 512.875 434.246 522.281 423.16C523.513 421.592 524.745 420.081 525.977 418.625C531.352 412.018 537.846 407.595 545.461 405.355C551.172 404.124 555.987 405.411 559.906 409.219C563.826 413.026 565.169 418.737 563.938 426.352C563.714 427.135 563.49 427.919 563.266 428.703C561.25 438.557 558.898 448.132 556.211 457.426C549.044 480.158 541.654 502.721 534.039 525.117C530.344 536.651 526.648 548.353 522.953 560.223C522.169 561.902 521.049 564.982 519.594 569.461C518.138 573.38 516.738 577.243 515.395 581.051C514.051 584.858 512.987 587.77 512.203 589.785C513.211 589.001 522.337 578.755 539.582 559.047C562.986 532.172 590.701 500.706 622.727 464.648C654.753 428.591 679.892 401.044 698.145 382.008C731.85 348.078 767.348 317.228 804.637 289.457C842.038 261.574 880.783 236.379 920.871 213.871C930.725 208.72 940.859 204.073 951.273 199.93C953.513 199.146 955.697 198.25 957.824 197.242C967.678 193.323 978.148 191.867 989.234 192.875C1010.51 194.891 1020.25 208.328 1018.46 233.188C1017.23 248.641 1013.81 263.142 1008.21 276.691ZM532.863 452.723C533.423 453.171 533.815 453.507 534.039 453.73C534.039 453.73 534.039 453.842 534.039 454.066C534.263 454.066 534.375 453.954 534.375 453.73C533.927 453.507 533.423 453.171 532.863 452.723Z" fill="black"/>
<path d="M986.215 310.691C985.431 312.707 984.647 314.723 983.863 316.738C976.025 337.118 967.57 357.163 958.5 376.871C911.693 474.181 861.414 568.299 807.664 659.227C790.195 688.565 772.335 717.4 754.082 745.73C735.829 774.061 717.465 802.28 698.988 830.387C694.621 836.993 690.198 843.6 685.719 850.207C685.495 850.767 685.271 851.159 685.047 851.383C684.039 853.398 682.863 855.078 681.52 856.422C680.176 857.766 678.384 858.438 676.145 858.438C675.137 858.438 674.073 858.158 672.953 857.598C671.833 857.15 670.938 856.534 670.266 855.75C669.706 855.078 669.314 853.958 669.09 852.391C668.866 850.935 668.978 849.759 669.426 848.863C672.449 842.368 675.809 836.21 679.504 830.387C687.79 816.837 696.133 803.288 704.531 789.738C720.32 764.543 735.829 739.292 751.059 713.984C784.876 657.547 817.182 599.934 847.977 541.145C878.771 482.355 908.837 422.951 938.176 362.93C949.934 339.75 959.62 314.947 967.234 288.52C968.802 283.928 969.978 279.169 970.762 274.242C971.658 269.315 972.105 264.22 972.105 258.957C971.322 247.647 966.507 242.72 957.66 244.176C949.822 245.743 942.431 248.207 935.488 251.566C919.027 259.517 902.79 268.307 886.777 277.938C800.777 330.12 722.448 394.9 651.789 472.277C650.781 473.509 649.661 474.741 648.43 475.973C624.018 502.512 599.775 529.275 575.699 556.262C551.736 583.249 528.444 611.02 505.824 639.574C501.121 645.509 496.194 651.052 491.043 656.203C485.556 661.914 479.005 664.154 471.391 662.922C468.143 662.474 465.456 660.906 463.328 658.219C461.312 655.419 460.529 652.172 460.977 648.477C462.544 638.398 464.784 628.656 467.695 619.25C476.766 589.464 486.396 560.069 496.586 531.066C498.042 526.587 499.385 522.276 500.617 518.133C503.305 507.271 507.112 497.249 512.039 488.066C512.039 487.842 511.927 487.73 511.703 487.73C510.471 487.059 509.24 486.555 508.008 486.219C506.776 485.771 505.544 486.163 504.312 487.395C499.833 492.322 495.522 497.473 491.379 502.848C457.337 548.983 423.632 595.51 390.262 642.43C356.892 689.349 324.306 737.052 292.504 785.539C289.816 790.242 286.793 794.049 283.434 796.961C280.186 799.984 275.819 800.992 270.332 799.984C267.868 799.312 265.965 797.801 264.621 795.449C263.277 793.098 262.997 790.802 263.781 788.562C266.693 781.956 269.884 775.685 273.355 769.75C283.21 752.729 292.952 735.708 302.582 718.688C321.954 684.982 341.159 651.108 360.195 617.066C389.758 564.884 416.129 509.958 439.309 452.289C448.379 430.117 455.77 406.826 461.48 382.414C464.616 369.424 465.96 355.875 465.512 341.766C464.056 319.146 456.553 302.965 443.004 293.223C429.454 283.48 411.65 278.889 389.59 279.449C367.53 279.897 343.062 284.376 316.188 292.887C289.312 301.397 261.766 312.651 233.547 326.648C205.328 340.646 178.117 356.099 151.914 373.008C125.711 389.917 102.419 407.049 82.0391 424.406C61.5469 441.763 45.5898 458.056 34.168 473.285C22.1862 490.082 11.9961 508.559 3.59766 528.715C-0.657552 538.345 -3.12109 548.815 -3.79297 560.125C-4.01693 562.365 -5.13672 564.044 -7.15234 565.164C-9.16797 566.284 -11.4076 566.62 -13.8711 566.172C-17.7904 564.94 -20.2539 561.861 -21.2617 556.934C-21.9336 550.439 -21.4297 544.504 -19.75 539.129C-16.0547 525.579 -11.1276 512.758 -4.96875 500.664C6.34115 479.5 23.5299 457.888 46.5977 435.828C69.6654 413.768 96.5404 392.66 127.223 372.504C157.905 352.236 189.931 334.207 223.301 318.418C256.671 302.517 289.312 290.199 321.227 281.465C353.141 272.618 381.863 268.643 407.395 269.539C433.038 270.435 453.25 277.49 468.031 290.703C482.812 303.805 489.979 324.521 489.531 352.852C488.747 371.104 485.892 388.461 480.965 404.922C473.798 429.109 465.512 452.513 456.105 475.133C446.811 497.641 436.901 519.701 426.375 541.312C423.128 548.031 422.4 551.335 424.191 551.223C426.095 550.999 428.895 548.423 432.59 543.496C445.915 525.803 459.241 508.335 472.566 491.09C481.637 479.556 490.875 468.246 500.281 457.16C501.513 455.592 502.745 454.081 503.977 452.625C509.352 446.018 515.846 441.595 523.461 439.355C529.172 438.124 533.987 439.411 537.906 443.219C541.826 447.026 543.169 452.737 541.938 460.352C541.714 461.135 541.49 461.919 541.266 462.703C539.25 472.557 536.898 482.132 534.211 491.426C527.044 514.158 519.654 536.721 512.039 559.117C508.344 570.651 504.648 582.353 500.953 594.223C500.169 595.902 499.049 598.982 497.594 603.461C496.138 607.38 494.738 611.243 493.395 615.051C492.051 618.858 490.987 621.77 490.203 623.785C491.211 623.001 500.337 612.755 517.582 593.047C540.986 566.172 568.701 534.706 600.727 498.648C632.753 462.591 657.892 435.044 676.145 416.008C709.85 382.078 745.348 351.228 782.637 323.457C820.038 295.574 858.783 270.379 898.871 247.871C908.725 242.72 918.859 238.073 929.273 233.93C931.513 233.146 933.697 232.25 935.824 231.242C945.678 227.323 956.148 225.867 967.234 226.875C988.51 228.891 998.253 242.328 996.461 267.188C995.229 282.641 991.814 297.142 986.215 310.691ZM510.863 486.723C511.423 487.171 511.815 487.507 512.039 487.73C512.039 487.73 512.039 487.842 512.039 488.066C512.263 488.066 512.375 487.954 512.375 487.73C511.927 487.507 511.423 487.171 510.863 486.723Z" fill="black"/>
</g>
</svg>
