<svg width="1325" height="1110" viewBox="0 0 1325 1110" fill="none" xmlns="http://www.w3.org/2000/svg">
<circle cx="632.5" cy="596.5" r="456.5" fill="black"/>
<path d="M1315.32 528.022C1317.51 529.877 1319.49 531.985 1321.26 534.346C1323.03 536.622 1324.17 539.362 1324.68 542.566C1325.27 546.107 1324 548.805 1320.88 550.66C1319.03 551.587 1317.21 551.714 1315.44 551.039C1313.67 550.365 1312.41 549.016 1311.65 546.992C1309.63 541.428 1306.55 537.044 1302.42 533.84C1298.37 530.552 1293.94 527.685 1289.14 525.24C1278.52 519.676 1267.56 515.165 1256.26 511.708C1244.96 508.167 1233.58 505.09 1222.11 502.477C1202.97 498.43 1177.47 495.816 1145.6 494.636C1113.82 493.371 1078.41 493.835 1039.37 496.027C1000.34 498.135 960.373 502.308 919.482 508.547C878.592 514.701 839.43 523.217 801.997 534.093C764.647 544.884 731.809 558.374 703.48 574.562C675.237 590.665 654.159 609.677 640.248 631.597C628.613 650.651 626.295 670.759 633.292 691.921C638.351 706.422 645.602 719.617 655.044 731.504C669.124 749.294 684.722 765.608 701.836 780.446C716.253 793.599 730.797 806.751 745.467 819.903C759.715 832.55 774.006 845.365 788.338 858.349C804.273 873.019 819.955 887.857 835.383 902.864C836.817 904.298 838.292 905.689 839.81 907.038C848.156 914.794 855.491 923.394 861.814 932.836C868.306 943.628 869.529 951.975 865.482 957.876C861.519 963.862 853.931 967.909 842.718 970.017C831.505 972.125 818.479 972.757 803.641 971.914C788.802 971.155 773.837 969.3 758.746 966.35C743.738 963.483 730.375 960.026 718.656 955.979C707.021 951.933 698.801 947.759 693.996 943.459C684.384 934.523 683.752 925.08 692.099 915.131C701.12 904.93 712.122 897.511 725.106 892.874C743.907 885.623 762.919 885.033 782.142 891.103C785.851 892.452 789.392 894.222 792.765 896.415C793.102 896.583 793.397 896.794 793.65 897.047C794.577 897.553 795.21 898.312 795.547 899.323C795.884 900.335 795.715 901.431 795.041 902.611C793.523 904.466 791.669 905.014 789.477 904.255C787.369 903.497 785.388 902.569 783.533 901.473C770.212 894.813 756.511 893.422 742.432 897.3C728.352 901.178 716.464 908.85 706.769 920.316C702.553 925.881 702.342 930.729 706.136 934.86C709.93 939.075 715.705 942.616 723.462 945.483C731.303 948.434 739.144 950.71 746.984 952.312C754.91 953.998 760.811 955.136 764.689 955.727C765.448 955.727 765.996 955.811 766.333 955.979C767.092 955.979 768.02 956.064 769.116 956.232C774.09 957.328 780.877 958.467 789.477 959.647C798.16 960.912 807.097 961.755 816.287 962.176C825.477 962.682 833.36 962.092 839.936 960.406C846.512 958.72 850.222 955.474 851.065 950.668C851.908 945.862 848.241 938.738 840.062 929.295C831.379 919.263 822.189 909.525 812.493 900.082C788.381 876.728 763.636 854.091 738.258 832.17C729.153 823.992 720.047 815.814 710.942 807.636C695.766 793.978 680.843 779.983 666.173 765.65C652.599 752.498 640.627 738.038 630.257 722.272C622.838 710.806 617.653 698.455 614.702 685.218C610.234 663.551 614.238 643.527 626.716 625.147C640.375 604.576 660.187 586.365 686.155 570.515C712.122 554.664 742.221 541.133 776.451 529.919C810.681 518.706 847.145 509.643 885.843 502.729C924.541 495.732 963.619 490.8 1003.08 487.933C1042.62 484.982 1080.51 483.971 1116.77 484.898C1153.02 485.825 1185.82 488.565 1215.16 493.118C1244.58 497.671 1268.69 503.952 1287.5 511.961C1297.44 515.84 1306.72 521.193 1315.32 528.022Z" fill="black"/>
<path d="M1312.32 520.022C1314.51 521.877 1316.49 523.985 1318.26 526.346C1320.03 528.622 1321.17 531.362 1321.68 534.566C1322.27 538.107 1321 540.805 1317.88 542.66C1316.03 543.587 1314.21 543.714 1312.44 543.039C1310.67 542.365 1309.41 541.016 1308.65 538.992C1306.63 533.428 1303.55 529.044 1299.42 525.84C1295.37 522.552 1290.94 519.685 1286.14 517.24C1275.52 511.676 1264.56 507.165 1253.26 503.708C1241.96 500.167 1230.58 497.09 1219.11 494.477C1199.97 490.43 1174.47 487.816 1142.6 486.636C1110.82 485.371 1075.41 485.835 1036.37 488.027C997.336 490.135 957.373 494.308 916.482 500.547C875.592 506.701 836.43 515.217 798.997 526.093C761.647 536.884 728.809 550.374 700.48 566.562C672.237 582.665 651.159 601.677 637.248 623.597C625.613 642.651 623.295 662.759 630.292 683.921C635.351 698.422 642.602 711.617 652.044 723.504C666.124 741.294 681.722 757.608 698.836 772.446C713.253 785.599 727.797 798.751 742.467 811.903C756.715 824.55 771.006 837.365 785.338 850.349C801.273 865.019 816.955 879.857 832.383 894.864C833.817 896.298 835.292 897.689 836.81 899.038C845.156 906.794 852.491 915.394 858.814 924.836C865.306 935.628 866.529 943.975 862.482 949.876C858.519 955.862 850.931 959.909 839.718 962.017C828.505 964.125 815.479 964.757 800.641 963.914C785.802 963.155 770.837 961.3 755.746 958.35C740.738 955.483 727.375 952.026 715.656 947.979C704.021 943.933 695.801 939.759 690.996 935.459C681.384 926.523 680.752 917.08 689.099 907.131C698.12 896.93 709.122 889.511 722.106 884.874C740.907 877.623 759.919 877.033 779.142 883.103C782.851 884.452 786.392 886.222 789.765 888.415C790.102 888.583 790.397 888.794 790.65 889.047C791.577 889.553 792.21 890.312 792.547 891.323C792.884 892.335 792.715 893.431 792.041 894.611C790.523 896.466 788.669 897.014 786.477 896.255C784.369 895.497 782.388 894.569 780.533 893.473C767.212 886.813 753.511 885.422 739.432 889.3C725.352 893.178 713.464 900.85 703.769 912.316C699.553 917.881 699.342 922.729 703.136 926.86C706.93 931.075 712.705 934.616 720.462 937.483C728.303 940.434 736.144 942.71 743.984 944.312C751.91 945.998 757.811 947.136 761.689 947.727C762.448 947.727 762.996 947.811 763.333 947.979C764.092 947.979 765.02 948.064 766.116 948.232C771.09 949.328 777.877 950.467 786.477 951.647C795.16 952.912 804.097 953.755 813.287 954.176C822.477 954.682 830.36 954.092 836.936 952.406C843.512 950.72 847.222 947.474 848.065 942.668C848.908 937.862 845.241 930.738 837.062 921.295C828.379 911.263 819.189 901.525 809.493 892.082C785.381 868.728 760.636 846.091 735.258 824.17C726.153 815.992 717.047 807.814 707.942 799.636C692.766 785.978 677.843 771.983 663.173 757.65C649.599 744.498 637.627 730.038 627.257 714.272C619.838 702.806 614.653 690.455 611.702 677.218C607.234 655.551 611.238 635.527 623.716 617.147C637.375 596.576 657.187 578.365 683.155 562.515C709.122 546.664 739.221 533.133 773.451 521.919C807.681 510.706 844.145 501.643 882.843 494.729C921.541 487.732 960.619 482.8 1000.08 479.933C1039.62 476.982 1077.51 475.971 1113.77 476.898C1150.02 477.825 1182.82 480.565 1212.16 485.118C1241.58 489.671 1265.69 495.952 1284.5 503.961C1294.44 507.84 1303.72 513.193 1312.32 520.022Z" fill="black"/>
<path d="M1309.32 512.022C1311.51 513.877 1313.49 515.985 1315.26 518.346C1317.03 520.622 1318.17 523.362 1318.68 526.566C1319.27 530.107 1318 532.805 1314.88 534.66C1313.03 535.587 1311.21 535.714 1309.44 535.039C1307.67 534.365 1306.41 533.016 1305.65 530.992C1303.63 525.428 1300.55 521.044 1296.42 517.84C1292.37 514.552 1287.94 511.685 1283.14 509.24C1272.52 503.676 1261.56 499.165 1250.26 495.708C1238.96 492.167 1227.58 489.09 1216.11 486.477C1196.97 482.43 1171.47 479.816 1139.6 478.636C1107.82 477.371 1072.41 477.835 1033.37 480.027C994.336 482.135 954.373 486.308 913.482 492.547C872.592 498.701 833.43 507.217 795.997 518.093C758.647 528.884 725.809 542.374 697.48 558.562C669.237 574.665 648.159 593.677 634.248 615.597C622.613 634.651 620.295 654.759 627.292 675.921C632.351 690.422 639.602 703.617 649.044 715.504C663.124 733.294 678.722 749.608 695.836 764.446C710.253 777.599 724.797 790.751 739.467 803.903C753.715 816.55 768.006 829.365 782.338 842.349C798.273 857.019 813.955 871.857 829.383 886.864C830.817 888.298 832.292 889.689 833.81 891.038C842.156 898.794 849.491 907.394 855.814 916.836C862.306 927.628 863.529 935.975 859.482 941.876C855.519 947.862 847.931 951.909 836.718 954.017C825.505 956.125 812.479 956.757 797.641 955.914C782.802 955.155 767.837 953.3 752.746 950.35C737.738 947.483 724.375 944.026 712.656 939.979C701.021 935.933 692.801 931.759 687.996 927.459C678.384 918.523 677.752 909.08 686.099 899.131C695.12 888.93 706.122 881.511 719.106 876.874C737.907 869.623 756.919 869.033 776.142 875.103C779.851 876.452 783.392 878.222 786.765 880.415C787.102 880.583 787.397 880.794 787.65 881.047C788.577 881.553 789.21 882.312 789.547 883.323C789.884 884.335 789.715 885.431 789.041 886.611C787.523 888.466 785.669 889.014 783.477 888.255C781.369 887.497 779.388 886.569 777.533 885.473C764.212 878.813 750.511 877.422 736.432 881.3C722.352 885.178 710.464 892.85 700.769 904.316C696.553 909.881 696.342 914.729 700.136 918.86C703.93 923.075 709.705 926.616 717.462 929.483C725.303 932.434 733.144 934.71 740.984 936.312C748.91 937.998 754.811 939.136 758.689 939.727C759.448 939.727 759.996 939.811 760.333 939.979C761.092 939.979 762.02 940.064 763.116 940.232C768.09 941.328 774.877 942.467 783.477 943.647C792.16 944.912 801.097 945.755 810.287 946.176C819.477 946.682 827.36 946.092 833.936 944.406C840.512 942.72 844.222 939.474 845.065 934.668C845.908 929.862 842.241 922.738 834.062 913.295C825.379 903.263 816.189 893.525 806.493 884.082C782.381 860.728 757.636 838.091 732.258 816.17C723.153 807.992 714.047 799.814 704.942 791.636C689.766 777.978 674.843 763.983 660.173 749.65C646.599 736.498 634.627 722.038 624.257 706.272C616.838 694.806 611.653 682.455 608.702 669.218C604.234 647.551 608.238 627.527 620.716 609.147C634.375 588.576 654.187 570.365 680.155 554.515C706.122 538.664 736.221 525.133 770.451 513.919C804.681 502.706 841.145 493.643 879.843 486.729C918.541 479.732 957.619 474.8 997.076 471.933C1036.62 468.982 1074.51 467.971 1110.77 468.898C1147.02 469.825 1179.82 472.565 1209.16 477.118C1238.58 481.671 1262.69 487.952 1281.5 495.961C1291.44 499.84 1300.72 505.193 1309.32 512.022Z" fill="black"/>
<path d="M1306.32 504.022C1308.51 505.877 1310.49 507.985 1312.26 510.346C1314.03 512.622 1315.17 515.362 1315.68 518.566C1316.27 522.107 1315 524.805 1311.88 526.66C1310.03 527.587 1308.21 527.714 1306.44 527.039C1304.67 526.365 1303.41 525.016 1302.65 522.992C1300.63 517.428 1297.55 513.044 1293.42 509.84C1289.37 506.552 1284.94 503.685 1280.14 501.24C1269.52 495.676 1258.56 491.165 1247.26 487.708C1235.96 484.167 1224.58 481.09 1213.11 478.477C1193.97 474.43 1168.47 471.816 1136.6 470.636C1104.82 469.371 1069.41 469.835 1030.37 472.027C991.336 474.135 951.373 478.308 910.482 484.547C869.592 490.701 830.43 499.217 792.997 510.093C755.647 520.884 722.809 534.374 694.48 550.562C666.237 566.665 645.159 585.677 631.248 607.597C619.613 626.651 617.295 646.759 624.292 667.921C629.351 682.422 636.602 695.617 646.044 707.504C660.124 725.294 675.722 741.608 692.836 756.446C707.253 769.599 721.797 782.751 736.467 795.903C750.715 808.55 765.006 821.365 779.338 834.349C795.273 849.019 810.955 863.857 826.383 878.864C827.817 880.298 829.292 881.689 830.81 883.038C839.156 890.794 846.491 899.394 852.814 908.836C859.306 919.628 860.529 927.975 856.482 933.876C852.519 939.862 844.931 943.909 833.718 946.017C822.505 948.125 809.479 948.757 794.641 947.914C779.802 947.155 764.837 945.3 749.746 942.35C734.738 939.483 721.375 936.026 709.656 931.979C698.021 927.933 689.801 923.759 684.996 919.459C675.384 910.523 674.752 901.08 683.099 891.131C692.12 880.93 703.122 873.511 716.106 868.874C734.907 861.623 753.919 861.033 773.142 867.103C776.851 868.452 780.392 870.222 783.765 872.415C784.102 872.583 784.397 872.794 784.65 873.047C785.577 873.553 786.21 874.312 786.547 875.323C786.884 876.335 786.715 877.431 786.041 878.611C784.523 880.466 782.669 881.014 780.477 880.255C778.369 879.497 776.388 878.569 774.533 877.473C761.212 870.813 747.511 869.422 733.432 873.3C719.352 877.178 707.464 884.85 697.769 896.316C693.553 901.881 693.342 906.729 697.136 910.86C700.93 915.075 706.705 918.616 714.462 921.483C722.303 924.434 730.144 926.71 737.984 928.312C745.91 929.998 751.811 931.136 755.689 931.727C756.448 931.727 756.996 931.811 757.333 931.979C758.092 931.979 759.02 932.064 760.116 932.232C765.09 933.328 771.877 934.467 780.477 935.647C789.16 936.912 798.097 937.755 807.287 938.176C816.477 938.682 824.36 938.092 830.936 936.406C837.512 934.72 841.222 931.474 842.065 926.668C842.908 921.862 839.241 914.738 831.062 905.295C822.379 895.263 813.189 885.525 803.493 876.082C779.381 852.728 754.636 830.091 729.258 808.17C720.153 799.992 711.047 791.814 701.942 783.636C686.766 769.978 671.843 755.983 657.173 741.65C643.599 728.498 631.627 714.038 621.257 698.272C613.838 686.806 608.653 674.455 605.702 661.218C601.234 639.551 605.238 619.527 617.716 601.147C631.375 580.576 651.187 562.365 677.155 546.515C703.122 530.664 733.221 517.133 767.451 505.919C801.681 494.706 838.145 485.643 876.843 478.729C915.541 471.732 954.619 466.8 994.076 463.933C1033.62 460.982 1071.51 459.971 1107.77 460.898C1144.02 461.825 1176.82 464.565 1206.16 469.118C1235.58 473.671 1259.69 479.952 1278.5 487.961C1288.44 491.84 1297.72 497.193 1306.32 504.022Z" fill="black"/>
<path d="M1303.32 496.022C1305.51 497.877 1307.49 499.985 1309.26 502.346C1311.03 504.622 1312.17 507.362 1312.68 510.566C1313.27 514.107 1312 516.805 1308.88 518.66C1307.03 519.587 1305.21 519.714 1303.44 519.039C1301.67 518.365 1300.41 517.016 1299.65 514.992C1297.63 509.428 1294.55 505.044 1290.42 501.84C1286.37 498.552 1281.94 495.685 1277.14 493.24C1266.52 487.676 1255.56 483.165 1244.26 479.708C1232.96 476.167 1221.58 473.09 1210.11 470.477C1190.97 466.43 1165.47 463.816 1133.6 462.636C1101.82 461.371 1066.41 461.835 1027.37 464.027C988.336 466.135 948.373 470.308 907.482 476.547C866.592 482.701 827.43 491.217 789.997 502.093C752.647 512.884 719.809 526.374 691.48 542.562C663.237 558.665 642.159 577.677 628.248 599.597C616.613 618.651 614.295 638.759 621.292 659.921C626.351 674.422 633.602 687.617 643.044 699.504C657.124 717.294 672.722 733.608 689.836 748.446C704.253 761.599 718.797 774.751 733.467 787.903C747.715 800.55 762.006 813.365 776.338 826.349C792.273 841.019 807.955 855.857 823.383 870.864C824.817 872.298 826.292 873.689 827.81 875.038C836.156 882.794 843.491 891.394 849.814 900.836C856.306 911.628 857.529 919.975 853.482 925.876C849.519 931.862 841.931 935.909 830.718 938.017C819.505 940.125 806.479 940.757 791.641 939.914C776.802 939.155 761.837 937.3 746.746 934.35C731.738 931.483 718.375 928.026 706.656 923.979C695.021 919.933 686.801 915.759 681.996 911.459C672.384 902.523 671.752 893.08 680.099 883.131C689.12 872.93 700.122 865.511 713.106 860.874C731.907 853.623 750.919 853.033 770.142 859.103C773.851 860.452 777.392 862.222 780.765 864.415C781.102 864.583 781.397 864.794 781.65 865.047C782.577 865.553 783.21 866.312 783.547 867.323C783.884 868.335 783.715 869.431 783.041 870.611C781.523 872.466 779.669 873.014 777.477 872.255C775.369 871.497 773.388 870.569 771.533 869.473C758.212 862.813 744.511 861.422 730.432 865.3C716.352 869.178 704.464 876.85 694.769 888.316C690.553 893.881 690.342 898.729 694.136 902.86C697.93 907.075 703.705 910.616 711.462 913.483C719.303 916.434 727.144 918.71 734.984 920.312C742.91 921.998 748.811 923.136 752.689 923.727C753.448 923.727 753.996 923.811 754.333 923.979C755.092 923.979 756.02 924.064 757.116 924.232C762.09 925.328 768.877 926.467 777.477 927.647C786.16 928.912 795.097 929.755 804.287 930.176C813.477 930.682 821.36 930.092 827.936 928.406C834.512 926.72 838.222 923.474 839.065 918.668C839.908 913.862 836.241 906.738 828.062 897.295C819.379 887.263 810.189 877.525 800.493 868.082C776.381 844.728 751.636 822.091 726.258 800.17C717.153 791.992 708.047 783.814 698.942 775.636C683.766 761.978 668.843 747.983 654.173 733.65C640.599 720.498 628.627 706.038 618.257 690.272C610.838 678.806 605.653 666.455 602.702 653.218C598.234 631.551 602.238 611.527 614.716 593.147C628.375 572.576 648.187 554.365 674.155 538.515C700.122 522.664 730.221 509.133 764.451 497.919C798.681 486.706 835.145 477.643 873.843 470.729C912.541 463.732 951.619 458.8 991.076 455.933C1030.62 452.982 1068.51 451.971 1104.77 452.898C1141.02 453.825 1173.82 456.565 1203.16 461.118C1232.58 465.671 1256.69 471.952 1275.5 479.961C1285.44 483.84 1294.72 489.193 1303.32 496.022Z" fill="black"/>
<path d="M1020.21 312.691C1019.43 314.707 1018.65 316.723 1017.86 318.738C1010.02 339.118 1001.57 359.163 992.5 378.871C945.693 476.181 895.414 570.299 841.664 661.227C824.195 690.565 806.335 719.4 788.082 747.73C769.829 776.061 751.465 804.28 732.988 832.387C728.621 838.993 724.198 845.6 719.719 852.207C719.495 852.767 719.271 853.159 719.047 853.383C718.039 855.398 716.863 857.078 715.52 858.422C714.176 859.766 712.384 860.438 710.145 860.438C709.137 860.438 708.073 860.158 706.953 859.598C705.833 859.15 704.938 858.534 704.266 857.75C703.706 857.078 703.314 855.958 703.09 854.391C702.866 852.935 702.978 851.759 703.426 850.863C706.449 844.368 709.809 838.21 713.504 832.387C721.79 818.837 730.133 805.288 738.531 791.738C754.32 766.543 769.829 741.292 785.059 715.984C818.876 659.547 851.182 601.934 881.977 543.145C912.771 484.355 942.837 424.951 972.176 364.93C983.934 341.75 993.62 316.947 1001.23 290.52C1002.8 285.928 1003.98 281.169 1004.76 276.242C1005.66 271.315 1006.11 266.22 1006.11 260.957C1005.32 249.647 1000.51 244.72 991.66 246.176C983.822 247.743 976.431 250.207 969.488 253.566C953.027 261.517 936.79 270.307 920.777 279.938C834.777 332.12 756.448 396.9 685.789 474.277C684.781 475.509 683.661 476.741 682.43 477.973C658.018 504.512 633.775 531.275 609.699 558.262C585.736 585.249 562.444 613.02 539.824 641.574C535.121 647.509 530.194 653.052 525.043 658.203C519.556 663.914 513.005 666.154 505.391 664.922C502.143 664.474 499.456 662.906 497.328 660.219C495.312 657.419 494.529 654.172 494.977 650.477C496.544 640.398 498.784 630.656 501.695 621.25C510.766 591.464 520.396 562.069 530.586 533.066C532.042 528.587 533.385 524.276 534.617 520.133C537.305 509.271 541.112 499.249 546.039 490.066C546.039 489.842 545.927 489.73 545.703 489.73C544.471 489.059 543.24 488.555 542.008 488.219C540.776 487.771 539.544 488.163 538.312 489.395C533.833 494.322 529.522 499.473 525.379 504.848C491.337 550.983 457.632 597.51 424.262 644.43C390.892 691.349 358.306 739.052 326.504 787.539C323.816 792.242 320.793 796.049 317.434 798.961C314.186 801.984 309.819 802.992 304.332 801.984C301.868 801.312 299.965 799.801 298.621 797.449C297.277 795.098 296.997 792.802 297.781 790.562C300.693 783.956 303.884 777.685 307.355 771.75C317.21 754.729 326.952 737.708 336.582 720.688C355.954 686.982 375.159 653.108 394.195 619.066C423.758 566.884 450.129 511.958 473.309 454.289C482.379 432.117 489.77 408.826 495.48 384.414C498.616 371.424 499.96 357.875 499.512 343.766C498.056 321.146 490.553 304.965 477.004 295.223C463.454 285.48 445.65 280.889 423.59 281.449C401.53 281.897 377.062 286.376 350.188 294.887C323.312 303.397 295.766 314.651 267.547 328.648C239.328 342.646 212.117 358.099 185.914 375.008C159.711 391.917 136.419 409.049 116.039 426.406C95.5469 443.763 79.5898 460.056 68.168 475.285C56.1862 492.082 45.9961 510.559 37.5977 530.715C33.3424 540.345 30.8789 550.815 30.207 562.125C29.9831 564.365 28.8633 566.044 26.8477 567.164C24.832 568.284 22.5924 568.62 20.1289 568.172C16.2096 566.94 13.7461 563.861 12.7383 558.934C12.0664 552.439 12.5703 546.504 14.25 541.129C17.9453 527.579 22.8724 514.758 29.0312 502.664C40.3411 481.5 57.5299 459.888 80.5977 437.828C103.665 415.768 130.54 394.66 161.223 374.504C191.905 354.236 223.931 336.207 257.301 320.418C290.671 304.517 323.312 292.199 355.227 283.465C387.141 274.618 415.863 270.643 441.395 271.539C467.038 272.435 487.25 279.49 502.031 292.703C516.812 305.805 523.979 326.521 523.531 354.852C522.747 373.104 519.892 390.461 514.965 406.922C507.798 431.109 499.512 454.513 490.105 477.133C480.811 499.641 470.901 521.701 460.375 543.312C457.128 550.031 456.4 553.335 458.191 553.223C460.095 552.999 462.895 550.423 466.59 545.496C479.915 527.803 493.241 510.335 506.566 493.09C515.637 481.556 524.875 470.246 534.281 459.16C535.513 457.592 536.745 456.081 537.977 454.625C543.352 448.018 549.846 443.595 557.461 441.355C563.172 440.124 567.987 441.411 571.906 445.219C575.826 449.026 577.169 454.737 575.938 462.352C575.714 463.135 575.49 463.919 575.266 464.703C573.25 474.557 570.898 484.132 568.211 493.426C561.044 516.158 553.654 538.721 546.039 561.117C542.344 572.651 538.648 584.353 534.953 596.223C534.169 597.902 533.049 600.982 531.594 605.461C530.138 609.38 528.738 613.243 527.395 617.051C526.051 620.858 524.987 623.77 524.203 625.785C525.211 625.001 534.337 614.755 551.582 595.047C574.986 568.172 602.701 536.706 634.727 500.648C666.753 464.591 691.892 437.044 710.145 418.008C743.85 384.078 779.348 353.228 816.637 325.457C854.038 297.574 892.783 272.379 932.871 249.871C942.725 244.72 952.859 240.073 963.273 235.93C965.513 235.146 967.697 234.25 969.824 233.242C979.678 229.323 990.148 227.867 1001.23 228.875C1022.51 230.891 1032.25 244.328 1030.46 269.188C1029.23 284.641 1025.81 299.142 1020.21 312.691ZM544.863 488.723C545.423 489.171 545.815 489.507 546.039 489.73C546.039 489.73 546.039 489.842 546.039 490.066C546.263 490.066 546.375 489.954 546.375 489.73C545.927 489.507 545.423 489.171 544.863 488.723Z" fill="black"/>
<path d="M1020.21 303.691C1019.43 305.707 1018.65 307.723 1017.86 309.738C1010.02 330.118 1001.57 350.163 992.5 369.871C945.693 467.181 895.414 561.299 841.664 652.227C824.195 681.565 806.335 710.4 788.082 738.73C769.829 767.061 751.465 795.28 732.988 823.387C728.621 829.993 724.198 836.6 719.719 843.207C719.495 843.767 719.271 844.159 719.047 844.383C718.039 846.398 716.863 848.078 715.52 849.422C714.176 850.766 712.384 851.438 710.145 851.438C709.137 851.438 708.073 851.158 706.953 850.598C705.833 850.15 704.938 849.534 704.266 848.75C703.706 848.078 703.314 846.958 703.09 845.391C702.866 843.935 702.978 842.759 703.426 841.863C706.449 835.368 709.809 829.21 713.504 823.387C721.79 809.837 730.133 796.288 738.531 782.738C754.32 757.543 769.829 732.292 785.059 706.984C818.876 650.547 851.182 592.934 881.977 534.145C912.771 475.355 942.837 415.951 972.176 355.93C983.934 332.75 993.62 307.947 1001.23 281.52C1002.8 276.928 1003.98 272.169 1004.76 267.242C1005.66 262.315 1006.11 257.22 1006.11 251.957C1005.32 240.647 1000.51 235.72 991.66 237.176C983.822 238.743 976.431 241.207 969.488 244.566C953.027 252.517 936.79 261.307 920.777 270.938C834.777 323.12 756.448 387.9 685.789 465.277C684.781 466.509 683.661 467.741 682.43 468.973C658.018 495.512 633.775 522.275 609.699 549.262C585.736 576.249 562.444 604.02 539.824 632.574C535.121 638.509 530.194 644.052 525.043 649.203C519.556 654.914 513.005 657.154 505.391 655.922C502.143 655.474 499.456 653.906 497.328 651.219C495.312 648.419 494.529 645.172 494.977 641.477C496.544 631.398 498.784 621.656 501.695 612.25C510.766 582.464 520.396 553.069 530.586 524.066C532.042 519.587 533.385 515.276 534.617 511.133C537.305 500.271 541.112 490.249 546.039 481.066C546.039 480.842 545.927 480.73 545.703 480.73C544.471 480.059 543.24 479.555 542.008 479.219C540.776 478.771 539.544 479.163 538.312 480.395C533.833 485.322 529.522 490.473 525.379 495.848C491.337 541.983 457.632 588.51 424.262 635.43C390.892 682.349 358.306 730.052 326.504 778.539C323.816 783.242 320.793 787.049 317.434 789.961C314.186 792.984 309.819 793.992 304.332 792.984C301.868 792.312 299.965 790.801 298.621 788.449C297.277 786.098 296.997 783.802 297.781 781.562C300.693 774.956 303.884 768.685 307.355 762.75C317.21 745.729 326.952 728.708 336.582 711.688C355.954 677.982 375.159 644.108 394.195 610.066C423.758 557.884 450.129 502.958 473.309 445.289C482.379 423.117 489.77 399.826 495.48 375.414C498.616 362.424 499.96 348.875 499.512 334.766C498.056 312.146 490.553 295.965 477.004 286.223C463.454 276.48 445.65 271.889 423.59 272.449C401.53 272.897 377.062 277.376 350.188 285.887C323.312 294.397 295.766 305.651 267.547 319.648C239.328 333.646 212.117 349.099 185.914 366.008C159.711 382.917 136.419 400.049 116.039 417.406C95.5469 434.763 79.5898 451.056 68.168 466.285C56.1862 483.082 45.9961 501.559 37.5977 521.715C33.3424 531.345 30.8789 541.815 30.207 553.125C29.9831 555.365 28.8633 557.044 26.8477 558.164C24.832 559.284 22.5924 559.62 20.1289 559.172C16.2096 557.94 13.7461 554.861 12.7383 549.934C12.0664 543.439 12.5703 537.504 14.25 532.129C17.9453 518.579 22.8724 505.758 29.0312 493.664C40.3411 472.5 57.5299 450.888 80.5977 428.828C103.665 406.768 130.54 385.66 161.223 365.504C191.905 345.236 223.931 327.207 257.301 311.418C290.671 295.517 323.312 283.199 355.227 274.465C387.141 265.618 415.863 261.643 441.395 262.539C467.038 263.435 487.25 270.49 502.031 283.703C516.812 296.805 523.979 317.521 523.531 345.852C522.747 364.104 519.892 381.461 514.965 397.922C507.798 422.109 499.512 445.513 490.105 468.133C480.811 490.641 470.901 512.701 460.375 534.312C457.128 541.031 456.4 544.335 458.191 544.223C460.095 543.999 462.895 541.423 466.59 536.496C479.915 518.803 493.241 501.335 506.566 484.09C515.637 472.556 524.875 461.246 534.281 450.16C535.513 448.592 536.745 447.081 537.977 445.625C543.352 439.018 549.846 434.595 557.461 432.355C563.172 431.124 567.987 432.411 571.906 436.219C575.826 440.026 577.169 445.737 575.938 453.352C575.714 454.135 575.49 454.919 575.266 455.703C573.25 465.557 570.898 475.132 568.211 484.426C561.044 507.158 553.654 529.721 546.039 552.117C542.344 563.651 538.648 575.353 534.953 587.223C534.169 588.902 533.049 591.982 531.594 596.461C530.138 600.38 528.738 604.243 527.395 608.051C526.051 611.858 524.987 614.77 524.203 616.785C525.211 616.001 534.337 605.755 551.582 586.047C574.986 559.172 602.701 527.706 634.727 491.648C666.753 455.591 691.892 428.044 710.145 409.008C743.85 375.078 779.348 344.228 816.637 316.457C854.038 288.574 892.783 263.379 932.871 240.871C942.725 235.72 952.859 231.073 963.273 226.93C965.513 226.146 967.697 225.25 969.824 224.242C979.678 220.323 990.148 218.867 1001.23 219.875C1022.51 221.891 1032.25 235.328 1030.46 260.188C1029.23 275.641 1025.81 290.142 1020.21 303.691ZM544.863 479.723C545.423 480.171 545.815 480.507 546.039 480.73C546.039 480.73 546.039 480.842 546.039 481.066C546.263 481.066 546.375 480.954 546.375 480.73C545.927 480.507 545.423 480.171 544.863 479.723Z" fill="black"/>
<path d="M1020.21 294.691C1019.43 296.707 1018.65 298.723 1017.86 300.738C1010.02 321.118 1001.57 341.163 992.5 360.871C945.693 458.181 895.414 552.299 841.664 643.227C824.195 672.565 806.335 701.4 788.082 729.73C769.829 758.061 751.465 786.28 732.988 814.387C728.621 820.993 724.198 827.6 719.719 834.207C719.495 834.767 719.271 835.159 719.047 835.383C718.039 837.398 716.863 839.078 715.52 840.422C714.176 841.766 712.384 842.438 710.145 842.438C709.137 842.438 708.073 842.158 706.953 841.598C705.833 841.15 704.938 840.534 704.266 839.75C703.706 839.078 703.314 837.958 703.09 836.391C702.866 834.935 702.978 833.759 703.426 832.863C706.449 826.368 709.809 820.21 713.504 814.387C721.79 800.837 730.133 787.288 738.531 773.738C754.32 748.543 769.829 723.292 785.059 697.984C818.876 641.547 851.182 583.934 881.977 525.145C912.771 466.355 942.837 406.951 972.176 346.93C983.934 323.75 993.62 298.947 1001.23 272.52C1002.8 267.928 1003.98 263.169 1004.76 258.242C1005.66 253.315 1006.11 248.22 1006.11 242.957C1005.32 231.647 1000.51 226.72 991.66 228.176C983.822 229.743 976.431 232.207 969.488 235.566C953.027 243.517 936.79 252.307 920.777 261.938C834.777 314.12 756.448 378.9 685.789 456.277C684.781 457.509 683.661 458.741 682.43 459.973C658.018 486.512 633.775 513.275 609.699 540.262C585.736 567.249 562.444 595.02 539.824 623.574C535.121 629.509 530.194 635.052 525.043 640.203C519.556 645.914 513.005 648.154 505.391 646.922C502.143 646.474 499.456 644.906 497.328 642.219C495.312 639.419 494.529 636.172 494.977 632.477C496.544 622.398 498.784 612.656 501.695 603.25C510.766 573.464 520.396 544.069 530.586 515.066C532.042 510.587 533.385 506.276 534.617 502.133C537.305 491.271 541.112 481.249 546.039 472.066C546.039 471.842 545.927 471.73 545.703 471.73C544.471 471.059 543.24 470.555 542.008 470.219C540.776 469.771 539.544 470.163 538.312 471.395C533.833 476.322 529.522 481.473 525.379 486.848C491.337 532.983 457.632 579.51 424.262 626.43C390.892 673.349 358.306 721.052 326.504 769.539C323.816 774.242 320.793 778.049 317.434 780.961C314.186 783.984 309.819 784.992 304.332 783.984C301.868 783.312 299.965 781.801 298.621 779.449C297.277 777.098 296.997 774.802 297.781 772.562C300.693 765.956 303.884 759.685 307.355 753.75C317.21 736.729 326.952 719.708 336.582 702.688C355.954 668.982 375.159 635.108 394.195 601.066C423.758 548.884 450.129 493.958 473.309 436.289C482.379 414.117 489.77 390.826 495.48 366.414C498.616 353.424 499.96 339.875 499.512 325.766C498.056 303.146 490.553 286.965 477.004 277.223C463.454 267.48 445.65 262.889 423.59 263.449C401.53 263.897 377.062 268.376 350.188 276.887C323.312 285.397 295.766 296.651 267.547 310.648C239.328 324.646 212.117 340.099 185.914 357.008C159.711 373.917 136.419 391.049 116.039 408.406C95.5469 425.763 79.5898 442.056 68.168 457.285C56.1862 474.082 45.9961 492.559 37.5977 512.715C33.3424 522.345 30.8789 532.815 30.207 544.125C29.9831 546.365 28.8633 548.044 26.8477 549.164C24.832 550.284 22.5924 550.62 20.1289 550.172C16.2096 548.94 13.7461 545.861 12.7383 540.934C12.0664 534.439 12.5703 528.504 14.25 523.129C17.9453 509.579 22.8724 496.758 29.0312 484.664C40.3411 463.5 57.5299 441.888 80.5977 419.828C103.665 397.768 130.54 376.66 161.223 356.504C191.905 336.236 223.931 318.207 257.301 302.418C290.671 286.517 323.312 274.199 355.227 265.465C387.141 256.618 415.863 252.643 441.395 253.539C467.038 254.435 487.25 261.49 502.031 274.703C516.812 287.805 523.979 308.521 523.531 336.852C522.747 355.104 519.892 372.461 514.965 388.922C507.798 413.109 499.512 436.513 490.105 459.133C480.811 481.641 470.901 503.701 460.375 525.312C457.128 532.031 456.4 535.335 458.191 535.223C460.095 534.999 462.895 532.423 466.59 527.496C479.915 509.803 493.241 492.335 506.566 475.09C515.637 463.556 524.875 452.246 534.281 441.16C535.513 439.592 536.745 438.081 537.977 436.625C543.352 430.018 549.846 425.595 557.461 423.355C563.172 422.124 567.987 423.411 571.906 427.219C575.826 431.026 577.169 436.737 575.938 444.352C575.714 445.135 575.49 445.919 575.266 446.703C573.25 456.557 570.898 466.132 568.211 475.426C561.044 498.158 553.654 520.721 546.039 543.117C542.344 554.651 538.648 566.353 534.953 578.223C534.169 579.902 533.049 582.982 531.594 587.461C530.138 591.38 528.738 595.243 527.395 599.051C526.051 602.858 524.987 605.77 524.203 607.785C525.211 607.001 534.337 596.755 551.582 577.047C574.986 550.172 602.701 518.706 634.727 482.648C666.753 446.591 691.892 419.044 710.145 400.008C743.85 366.078 779.348 335.228 816.637 307.457C854.038 279.574 892.783 254.379 932.871 231.871C942.725 226.72 952.859 222.073 963.273 217.93C965.513 217.146 967.697 216.25 969.824 215.242C979.678 211.323 990.148 209.867 1001.23 210.875C1022.51 212.891 1032.25 226.328 1030.46 251.188C1029.23 266.641 1025.81 281.142 1020.21 294.691ZM544.863 470.723C545.423 471.171 545.815 471.507 546.039 471.73C546.039 471.73 546.039 471.842 546.039 472.066C546.263 472.066 546.375 471.954 546.375 471.73C545.927 471.507 545.423 471.171 544.863 470.723Z" fill="black"/>
<path d="M1020.21 285.691C1019.43 287.707 1018.65 289.723 1017.86 291.738C1010.02 312.118 1001.57 332.163 992.5 351.871C945.693 449.181 895.414 543.299 841.664 634.227C824.195 663.565 806.335 692.4 788.082 720.73C769.829 749.061 751.465 777.28 732.988 805.387C728.621 811.993 724.198 818.6 719.719 825.207C719.495 825.767 719.271 826.159 719.047 826.383C718.039 828.398 716.863 830.078 715.52 831.422C714.176 832.766 712.384 833.438 710.145 833.438C709.137 833.438 708.073 833.158 706.953 832.598C705.833 832.15 704.938 831.534 704.266 830.75C703.706 830.078 703.314 828.958 703.09 827.391C702.866 825.935 702.978 824.759 703.426 823.863C706.449 817.368 709.809 811.21 713.504 805.387C721.79 791.837 730.133 778.288 738.531 764.738C754.32 739.543 769.829 714.292 785.059 688.984C818.876 632.547 851.182 574.934 881.977 516.145C912.771 457.355 942.837 397.951 972.176 337.93C983.934 314.75 993.62 289.947 1001.23 263.52C1002.8 258.928 1003.98 254.169 1004.76 249.242C1005.66 244.315 1006.11 239.22 1006.11 233.957C1005.32 222.647 1000.51 217.72 991.66 219.176C983.822 220.743 976.431 223.207 969.488 226.566C953.027 234.517 936.79 243.307 920.777 252.938C834.777 305.12 756.448 369.9 685.789 447.277C684.781 448.509 683.661 449.741 682.43 450.973C658.018 477.512 633.775 504.275 609.699 531.262C585.736 558.249 562.444 586.02 539.824 614.574C535.121 620.509 530.194 626.052 525.043 631.203C519.556 636.914 513.005 639.154 505.391 637.922C502.143 637.474 499.456 635.906 497.328 633.219C495.312 630.419 494.529 627.172 494.977 623.477C496.544 613.398 498.784 603.656 501.695 594.25C510.766 564.464 520.396 535.069 530.586 506.066C532.042 501.587 533.385 497.276 534.617 493.133C537.305 482.271 541.112 472.249 546.039 463.066C546.039 462.842 545.927 462.73 545.703 462.73C544.471 462.059 543.24 461.555 542.008 461.219C540.776 460.771 539.544 461.163 538.312 462.395C533.833 467.322 529.522 472.473 525.379 477.848C491.337 523.983 457.632 570.51 424.262 617.43C390.892 664.349 358.306 712.052 326.504 760.539C323.816 765.242 320.793 769.049 317.434 771.961C314.186 774.984 309.819 775.992 304.332 774.984C301.868 774.312 299.965 772.801 298.621 770.449C297.277 768.098 296.997 765.802 297.781 763.562C300.693 756.956 303.884 750.685 307.355 744.75C317.21 727.729 326.952 710.708 336.582 693.688C355.954 659.982 375.159 626.108 394.195 592.066C423.758 539.884 450.129 484.958 473.309 427.289C482.379 405.117 489.77 381.826 495.48 357.414C498.616 344.424 499.96 330.875 499.512 316.766C498.056 294.146 490.553 277.965 477.004 268.223C463.454 258.48 445.65 253.889 423.59 254.449C401.53 254.897 377.062 259.376 350.188 267.887C323.312 276.397 295.766 287.651 267.547 301.648C239.328 315.646 212.117 331.099 185.914 348.008C159.711 364.917 136.419 382.049 116.039 399.406C95.5469 416.763 79.5898 433.056 68.168 448.285C56.1862 465.082 45.9961 483.559 37.5977 503.715C33.3424 513.345 30.8789 523.815 30.207 535.125C29.9831 537.365 28.8633 539.044 26.8477 540.164C24.832 541.284 22.5924 541.62 20.1289 541.172C16.2096 539.94 13.7461 536.861 12.7383 531.934C12.0664 525.439 12.5703 519.504 14.25 514.129C17.9453 500.579 22.8724 487.758 29.0312 475.664C40.3411 454.5 57.5299 432.888 80.5977 410.828C103.665 388.768 130.54 367.66 161.223 347.504C191.905 327.236 223.931 309.207 257.301 293.418C290.671 277.517 323.312 265.199 355.227 256.465C387.141 247.618 415.863 243.643 441.395 244.539C467.038 245.435 487.25 252.49 502.031 265.703C516.812 278.805 523.979 299.521 523.531 327.852C522.747 346.104 519.892 363.461 514.965 379.922C507.798 404.109 499.512 427.513 490.105 450.133C480.811 472.641 470.901 494.701 460.375 516.312C457.128 523.031 456.4 526.335 458.191 526.223C460.095 525.999 462.895 523.423 466.59 518.496C479.915 500.803 493.241 483.335 506.566 466.09C515.637 454.556 524.875 443.246 534.281 432.16C535.513 430.592 536.745 429.081 537.977 427.625C543.352 421.018 549.846 416.595 557.461 414.355C563.172 413.124 567.987 414.411 571.906 418.219C575.826 422.026 577.169 427.737 575.938 435.352C575.714 436.135 575.49 436.919 575.266 437.703C573.25 447.557 570.898 457.132 568.211 466.426C561.044 489.158 553.654 511.721 546.039 534.117C542.344 545.651 538.648 557.353 534.953 569.223C534.169 570.902 533.049 573.982 531.594 578.461C530.138 582.38 528.738 586.243 527.395 590.051C526.051 593.858 524.987 596.77 524.203 598.785C525.211 598.001 534.337 587.755 551.582 568.047C574.986 541.172 602.701 509.706 634.727 473.648C666.753 437.591 691.892 410.044 710.145 391.008C743.85 357.078 779.348 326.228 816.637 298.457C854.038 270.574 892.783 245.379 932.871 222.871C942.725 217.72 952.859 213.073 963.273 208.93C965.513 208.146 967.697 207.25 969.824 206.242C979.678 202.323 990.148 200.867 1001.23 201.875C1022.51 203.891 1032.25 217.328 1030.46 242.188C1029.23 257.641 1025.81 272.142 1020.21 285.691ZM544.863 461.723C545.423 462.171 545.815 462.507 546.039 462.73C546.039 462.73 546.039 462.842 546.039 463.066C546.263 463.066 546.375 462.954 546.375 462.73C545.927 462.507 545.423 462.171 544.863 461.723Z" fill="black"/>
<path d="M1020.21 276.691C1019.43 278.707 1018.65 280.723 1017.86 282.738C1010.02 303.118 1001.57 323.163 992.5 342.871C945.693 440.181 895.414 534.299 841.664 625.227C824.195 654.565 806.335 683.4 788.082 711.73C769.829 740.061 751.465 768.28 732.988 796.387C728.621 802.993 724.198 809.6 719.719 816.207C719.495 816.767 719.271 817.159 719.047 817.383C718.039 819.398 716.863 821.078 715.52 822.422C714.176 823.766 712.384 824.438 710.145 824.438C709.137 824.438 708.073 824.158 706.953 823.598C705.833 823.15 704.938 822.534 704.266 821.75C703.706 821.078 703.314 819.958 703.09 818.391C702.866 816.935 702.978 815.759 703.426 814.863C706.449 808.368 709.809 802.21 713.504 796.387C721.79 782.837 730.133 769.288 738.531 755.738C754.32 730.543 769.829 705.292 785.059 679.984C818.876 623.547 851.182 565.934 881.977 507.145C912.771 448.355 942.837 388.951 972.176 328.93C983.934 305.75 993.62 280.947 1001.23 254.52C1002.8 249.928 1003.98 245.169 1004.76 240.242C1005.66 235.315 1006.11 230.22 1006.11 224.957C1005.32 213.647 1000.51 208.72 991.66 210.176C983.822 211.743 976.431 214.207 969.488 217.566C953.027 225.517 936.79 234.307 920.777 243.938C834.777 296.12 756.448 360.9 685.789 438.277C684.781 439.509 683.661 440.741 682.43 441.973C658.018 468.512 633.775 495.275 609.699 522.262C585.736 549.249 562.444 577.02 539.824 605.574C535.121 611.509 530.194 617.052 525.043 622.203C519.556 627.914 513.005 630.154 505.391 628.922C502.143 628.474 499.456 626.906 497.328 624.219C495.312 621.419 494.529 618.172 494.977 614.477C496.544 604.398 498.784 594.656 501.695 585.25C510.766 555.464 520.396 526.069 530.586 497.066C532.042 492.587 533.385 488.276 534.617 484.133C537.305 473.271 541.112 463.249 546.039 454.066C546.039 453.842 545.927 453.73 545.703 453.73C544.471 453.059 543.24 452.555 542.008 452.219C540.776 451.771 539.544 452.163 538.312 453.395C533.833 458.322 529.522 463.473 525.379 468.848C491.337 514.983 457.632 561.51 424.262 608.43C390.892 655.349 358.306 703.052 326.504 751.539C323.816 756.242 320.793 760.049 317.434 762.961C314.186 765.984 309.819 766.992 304.332 765.984C301.868 765.312 299.965 763.801 298.621 761.449C297.277 759.098 296.997 756.802 297.781 754.562C300.693 747.956 303.884 741.685 307.355 735.75C317.21 718.729 326.952 701.708 336.582 684.688C355.954 650.982 375.159 617.108 394.195 583.066C423.758 530.884 450.129 475.958 473.309 418.289C482.379 396.117 489.77 372.826 495.48 348.414C498.616 335.424 499.96 321.875 499.512 307.766C498.056 285.146 490.553 268.965 477.004 259.223C463.454 249.48 445.65 244.889 423.59 245.449C401.53 245.897 377.062 250.376 350.188 258.887C323.312 267.397 295.766 278.651 267.547 292.648C239.328 306.646 212.117 322.099 185.914 339.008C159.711 355.917 136.419 373.049 116.039 390.406C95.5469 407.763 79.5898 424.056 68.168 439.285C56.1862 456.082 45.9961 474.559 37.5977 494.715C33.3424 504.345 30.8789 514.815 30.207 526.125C29.9831 528.365 28.8633 530.044 26.8477 531.164C24.832 532.284 22.5924 532.62 20.1289 532.172C16.2096 530.94 13.7461 527.861 12.7383 522.934C12.0664 516.439 12.5703 510.504 14.25 505.129C17.9453 491.579 22.8724 478.758 29.0312 466.664C40.3411 445.5 57.5299 423.888 80.5977 401.828C103.665 379.768 130.54 358.66 161.223 338.504C191.905 318.236 223.931 300.207 257.301 284.418C290.671 268.517 323.312 256.199 355.227 247.465C387.141 238.618 415.863 234.643 441.395 235.539C467.038 236.435 487.25 243.49 502.031 256.703C516.812 269.805 523.979 290.521 523.531 318.852C522.747 337.104 519.892 354.461 514.965 370.922C507.798 395.109 499.512 418.513 490.105 441.133C480.811 463.641 470.901 485.701 460.375 507.312C457.128 514.031 456.4 517.335 458.191 517.223C460.095 516.999 462.895 514.423 466.59 509.496C479.915 491.803 493.241 474.335 506.566 457.09C515.637 445.556 524.875 434.246 534.281 423.16C535.513 421.592 536.745 420.081 537.977 418.625C543.352 412.018 549.846 407.595 557.461 405.355C563.172 404.124 567.987 405.411 571.906 409.219C575.826 413.026 577.169 418.737 575.938 426.352C575.714 427.135 575.49 427.919 575.266 428.703C573.25 438.557 570.898 448.132 568.211 457.426C561.044 480.158 553.654 502.721 546.039 525.117C542.344 536.651 538.648 548.353 534.953 560.223C534.169 561.902 533.049 564.982 531.594 569.461C530.138 573.38 528.738 577.243 527.395 581.051C526.051 584.858 524.987 587.77 524.203 589.785C525.211 589.001 534.337 578.755 551.582 559.047C574.986 532.172 602.701 500.706 634.727 464.648C666.753 428.591 691.892 401.044 710.145 382.008C743.85 348.078 779.348 317.228 816.637 289.457C854.038 261.574 892.783 236.379 932.871 213.871C942.725 208.72 952.859 204.073 963.273 199.93C965.513 199.146 967.697 198.25 969.824 197.242C979.678 193.323 990.148 191.867 1001.23 192.875C1022.51 194.891 1032.25 208.328 1030.46 233.188C1029.23 248.641 1025.81 263.142 1020.21 276.691ZM544.863 452.723C545.423 453.171 545.815 453.507 546.039 453.73C546.039 453.73 546.039 453.842 546.039 454.066C546.263 454.066 546.375 453.954 546.375 453.73C545.927 453.507 545.423 453.171 544.863 452.723Z" fill="black"/>
<path d="M1008.21 283.691C1007.43 285.707 1006.65 287.723 1005.86 289.738C998.025 310.118 989.57 330.163 980.5 349.871C933.693 447.181 883.414 541.299 829.664 632.227C812.195 661.565 794.335 690.4 776.082 718.73C757.829 747.061 739.465 775.28 720.988 803.387C716.621 809.993 712.198 816.6 707.719 823.207C707.495 823.767 707.271 824.159 707.047 824.383C706.039 826.398 704.863 828.078 703.52 829.422C702.176 830.766 700.384 831.438 698.145 831.438C697.137 831.438 696.073 831.158 694.953 830.598C693.833 830.15 692.938 829.534 692.266 828.75C691.706 828.078 691.314 826.958 691.09 825.391C690.866 823.935 690.978 822.759 691.426 821.863C694.449 815.368 697.809 809.21 701.504 803.387C709.79 789.837 718.133 776.288 726.531 762.738C742.32 737.543 757.829 712.292 773.059 686.984C806.876 630.547 839.182 572.934 869.977 514.145C900.771 455.355 930.837 395.951 960.176 335.93C971.934 312.75 981.62 287.947 989.234 261.52C990.802 256.928 991.978 252.169 992.762 247.242C993.658 242.315 994.105 237.22 994.105 231.957C993.322 220.647 988.507 215.72 979.66 217.176C971.822 218.743 964.431 221.207 957.488 224.566C941.027 232.517 924.79 241.307 908.777 250.938C822.777 303.12 744.448 367.9 673.789 445.277C672.781 446.509 671.661 447.741 670.43 448.973C646.018 475.512 621.775 502.275 597.699 529.262C573.736 556.249 550.444 584.02 527.824 612.574C523.121 618.509 518.194 624.052 513.043 629.203C507.556 634.914 501.005 637.154 493.391 635.922C490.143 635.474 487.456 633.906 485.328 631.219C483.312 628.419 482.529 625.172 482.977 621.477C484.544 611.398 486.784 601.656 489.695 592.25C498.766 562.464 508.396 533.069 518.586 504.066C520.042 499.587 521.385 495.276 522.617 491.133C525.305 480.271 529.112 470.249 534.039 461.066C534.039 460.842 533.927 460.73 533.703 460.73C532.471 460.059 531.24 459.555 530.008 459.219C528.776 458.771 527.544 459.163 526.312 460.395C521.833 465.322 517.522 470.473 513.379 475.848C479.337 521.983 445.632 568.51 412.262 615.43C378.892 662.349 346.306 710.052 314.504 758.539C311.816 763.242 308.793 767.049 305.434 769.961C302.186 772.984 297.819 773.992 292.332 772.984C289.868 772.312 287.965 770.801 286.621 768.449C285.277 766.098 284.997 763.802 285.781 761.562C288.693 754.956 291.884 748.685 295.355 742.75C305.21 725.729 314.952 708.708 324.582 691.688C343.954 657.982 363.159 624.108 382.195 590.066C411.758 537.884 438.129 482.958 461.309 425.289C470.379 403.117 477.77 379.826 483.48 355.414C486.616 342.424 487.96 328.875 487.512 314.766C486.056 292.146 478.553 275.965 465.004 266.223C451.454 256.48 433.65 251.889 411.59 252.449C389.53 252.897 365.062 257.376 338.188 265.887C311.312 274.397 283.766 285.651 255.547 299.648C227.328 313.646 200.117 329.099 173.914 346.008C147.711 362.917 124.419 380.049 104.039 397.406C83.5469 414.763 67.5898 431.056 56.168 446.285C44.1862 463.082 33.9961 481.559 25.5977 501.715C21.3424 511.345 18.8789 521.815 18.207 533.125C17.9831 535.365 16.8633 537.044 14.8477 538.164C12.832 539.284 10.5924 539.62 8.12891 539.172C4.20964 537.94 1.74609 534.861 0.738281 529.934C0.0664062 523.439 0.570312 517.504 2.25 512.129C5.94531 498.579 10.8724 485.758 17.0312 473.664C28.3411 452.5 45.5299 430.888 68.5977 408.828C91.6654 386.768 118.54 365.66 149.223 345.504C179.905 325.236 211.931 307.207 245.301 291.418C278.671 275.517 311.312 263.199 343.227 254.465C375.141 245.618 403.863 241.643 429.395 242.539C455.038 243.435 475.25 250.49 490.031 263.703C504.812 276.805 511.979 297.521 511.531 325.852C510.747 344.104 507.892 361.461 502.965 377.922C495.798 402.109 487.512 425.513 478.105 448.133C468.811 470.641 458.901 492.701 448.375 514.312C445.128 521.031 444.4 524.335 446.191 524.223C448.095 523.999 450.895 521.423 454.59 516.496C467.915 498.803 481.241 481.335 494.566 464.09C503.637 452.556 512.875 441.246 522.281 430.16C523.513 428.592 524.745 427.081 525.977 425.625C531.352 419.018 537.846 414.595 545.461 412.355C551.172 411.124 555.987 412.411 559.906 416.219C563.826 420.026 565.169 425.737 563.938 433.352C563.714 434.135 563.49 434.919 563.266 435.703C561.25 445.557 558.898 455.132 556.211 464.426C549.044 487.158 541.654 509.721 534.039 532.117C530.344 543.651 526.648 555.353 522.953 567.223C522.169 568.902 521.049 571.982 519.594 576.461C518.138 580.38 516.738 584.243 515.395 588.051C514.051 591.858 512.987 594.77 512.203 596.785C513.211 596.001 522.337 585.755 539.582 566.047C562.986 539.172 590.701 507.706 622.727 471.648C654.753 435.591 679.892 408.044 698.145 389.008C731.85 355.078 767.348 324.228 804.637 296.457C842.038 268.574 880.783 243.379 920.871 220.871C930.725 215.72 940.859 211.073 951.273 206.93C953.513 206.146 955.697 205.25 957.824 204.242C967.678 200.323 978.148 198.867 989.234 199.875C1010.51 201.891 1020.25 215.328 1018.46 240.188C1017.23 255.641 1013.81 270.142 1008.21 283.691ZM532.863 459.723C533.423 460.171 533.815 460.507 534.039 460.73C534.039 460.73 534.039 460.842 534.039 461.066C534.263 461.066 534.375 460.954 534.375 460.73C533.927 460.507 533.423 460.171 532.863 459.723Z" fill="black"/>
<circle cx="632.5" cy="596.5" r="456.5" fill="black"/>
<mask id="mask0" mask-type="alpha" maskUnits="userSpaceOnUse" x="176" y="140" width="913" height="913">
<circle cx="632.5" cy="596.5" r="456.5" fill="white"/>
</mask>
<g mask="url(#mask0)">
<path d="M1315.32 528.022C1317.51 529.877 1319.49 531.985 1321.26 534.346C1323.03 536.622 1324.17 539.362 1324.68 542.566C1325.27 546.107 1324 548.805 1320.88 550.66C1319.03 551.587 1317.21 551.714 1315.44 551.039C1313.67 550.365 1312.41 549.016 1311.65 546.992C1309.63 541.428 1306.55 537.044 1302.42 533.84C1298.37 530.552 1293.94 527.685 1289.14 525.24C1278.52 519.676 1267.56 515.165 1256.26 511.708C1244.96 508.167 1233.58 505.09 1222.11 502.477C1202.97 498.43 1177.47 495.816 1145.6 494.636C1113.82 493.371 1078.41 493.835 1039.37 496.027C1000.34 498.135 960.373 502.308 919.482 508.547C878.592 514.701 839.43 523.217 801.997 534.093C764.647 544.884 731.809 558.374 703.48 574.562C675.237 590.665 654.159 609.677 640.248 631.597C628.613 650.651 626.295 670.759 633.292 691.921C638.351 706.422 645.602 719.617 655.044 731.504C669.124 749.294 684.722 765.608 701.836 780.446C716.253 793.599 730.797 806.751 745.467 819.903C759.715 832.55 774.006 845.365 788.338 858.349C804.273 873.019 819.955 887.857 835.383 902.864C836.817 904.298 838.292 905.689 839.81 907.038C848.156 914.794 855.491 923.394 861.814 932.836C868.306 943.628 869.529 951.975 865.482 957.876C861.519 963.862 853.931 967.909 842.718 970.017C831.505 972.125 818.479 972.757 803.641 971.914C788.802 971.155 773.837 969.3 758.746 966.35C743.738 963.483 730.375 960.026 718.656 955.979C707.021 951.933 698.801 947.759 693.996 943.459C684.384 934.523 683.752 925.08 692.099 915.131C701.12 904.93 712.122 897.511 725.106 892.874C743.907 885.623 762.919 885.033 782.142 891.103C785.851 892.452 789.392 894.222 792.765 896.415C793.102 896.583 793.397 896.794 793.65 897.047C794.577 897.553 795.21 898.312 795.547 899.323C795.884 900.335 795.715 901.431 795.041 902.611C793.523 904.466 791.669 905.014 789.477 904.255C787.369 903.497 785.388 902.569 783.533 901.473C770.212 894.813 756.511 893.422 742.432 897.3C728.352 901.178 716.464 908.85 706.769 920.316C702.553 925.881 702.342 930.729 706.136 934.86C709.93 939.075 715.705 942.616 723.462 945.483C731.303 948.434 739.144 950.71 746.984 952.312C754.91 953.998 760.811 955.136 764.689 955.727C765.448 955.727 765.996 955.811 766.333 955.979C767.092 955.979 768.02 956.064 769.116 956.232C774.09 957.328 780.877 958.467 789.477 959.647C798.16 960.912 807.097 961.755 816.287 962.176C825.477 962.682 833.36 962.092 839.936 960.406C846.512 958.72 850.222 955.474 851.065 950.668C851.908 945.862 848.241 938.738 840.062 929.295C831.379 919.263 822.189 909.525 812.493 900.082C788.381 876.728 763.636 854.091 738.258 832.17C729.153 823.992 720.047 815.814 710.942 807.636C695.766 793.978 680.843 779.983 666.173 765.65C652.599 752.498 640.627 738.038 630.257 722.272C622.838 710.806 617.653 698.455 614.702 685.218C610.234 663.551 614.238 643.527 626.716 625.147C640.375 604.576 660.187 586.365 686.155 570.515C712.122 554.664 742.221 541.133 776.451 529.919C810.681 518.706 847.145 509.643 885.843 502.729C924.541 495.732 963.619 490.8 1003.08 487.933C1042.62 484.982 1080.51 483.971 1116.77 484.898C1153.02 485.825 1185.82 488.565 1215.16 493.118C1244.58 497.671 1268.69 503.952 1287.5 511.961C1297.44 515.84 1306.72 521.193 1315.32 528.022Z" fill="white"/>
<path d="M1308.32 520.022C1310.51 521.877 1312.49 523.985 1314.26 526.346C1316.03 528.622 1317.17 531.362 1317.68 534.566C1318.27 538.107 1317 540.805 1313.88 542.66C1312.03 543.587 1310.21 543.714 1308.44 543.039C1306.67 542.365 1305.41 541.016 1304.65 538.992C1302.63 533.428 1299.55 529.044 1295.42 525.84C1291.37 522.552 1286.94 519.685 1282.14 517.24C1271.52 511.676 1260.56 507.165 1249.26 503.708C1237.96 500.167 1226.58 497.09 1215.11 494.477C1195.97 490.43 1170.47 487.816 1138.6 486.636C1106.82 485.371 1071.41 485.835 1032.37 488.027C993.336 490.135 953.373 494.308 912.482 500.547C871.592 506.701 832.43 515.217 794.997 526.093C757.647 536.884 724.809 550.374 696.48 566.562C668.237 582.665 647.159 601.677 633.248 623.597C621.613 642.651 619.295 662.759 626.292 683.921C631.351 698.422 638.602 711.617 648.044 723.504C662.124 741.294 677.722 757.608 694.836 772.446C709.253 785.599 723.797 798.751 738.467 811.903C752.715 824.55 767.006 837.365 781.338 850.349C797.273 865.019 812.955 879.857 828.383 894.864C829.817 896.298 831.292 897.689 832.81 899.038C841.156 906.794 848.491 915.394 854.814 924.836C861.306 935.628 862.529 943.975 858.482 949.876C854.519 955.862 846.931 959.909 835.718 962.017C824.505 964.125 811.479 964.757 796.641 963.914C781.802 963.155 766.837 961.3 751.746 958.35C736.738 955.483 723.375 952.026 711.656 947.979C700.021 943.933 691.801 939.759 686.996 935.459C677.384 926.523 676.752 917.08 685.099 907.131C694.12 896.93 705.122 889.511 718.106 884.874C736.907 877.623 755.919 877.033 775.142 883.103C778.851 884.452 782.392 886.222 785.765 888.415C786.102 888.583 786.397 888.794 786.65 889.047C787.577 889.553 788.21 890.312 788.547 891.323C788.884 892.335 788.715 893.431 788.041 894.611C786.523 896.466 784.669 897.014 782.477 896.255C780.369 895.497 778.388 894.569 776.533 893.473C763.212 886.813 749.511 885.422 735.432 889.3C721.352 893.178 709.464 900.85 699.769 912.316C695.553 917.881 695.342 922.729 699.136 926.86C702.93 931.075 708.705 934.616 716.462 937.483C724.303 940.434 732.144 942.71 739.984 944.312C747.91 945.998 753.811 947.136 757.689 947.727C758.448 947.727 758.996 947.811 759.333 947.979C760.092 947.979 761.02 948.064 762.116 948.232C767.09 949.328 773.877 950.467 782.477 951.647C791.16 952.912 800.097 953.755 809.287 954.176C818.477 954.682 826.36 954.092 832.936 952.406C839.512 950.72 843.222 947.474 844.065 942.668C844.908 937.862 841.241 930.738 833.062 921.295C824.379 911.263 815.189 901.525 805.493 892.082C781.381 868.728 756.636 846.091 731.258 824.17C722.153 815.992 713.047 807.814 703.942 799.636C688.766 785.978 673.843 771.983 659.173 757.65C645.599 744.498 633.627 730.038 623.257 714.272C615.838 702.806 610.653 690.455 607.702 677.218C603.234 655.551 607.238 635.527 619.716 617.147C633.375 596.576 653.187 578.365 679.155 562.515C705.122 546.664 735.221 533.133 769.451 521.919C803.681 510.706 840.145 501.643 878.843 494.729C917.541 487.732 956.619 482.8 996.076 479.933C1035.62 476.982 1073.51 475.971 1109.77 476.898C1146.02 477.825 1178.82 480.565 1208.16 485.118C1237.58 489.671 1261.69 495.952 1280.5 503.961C1290.44 507.84 1299.72 513.193 1308.32 520.022Z" fill="white"/>
<path d="M1301.32 512.022C1303.51 513.877 1305.49 515.985 1307.26 518.346C1309.03 520.622 1310.17 523.362 1310.68 526.566C1311.27 530.107 1310 532.805 1306.88 534.66C1305.03 535.587 1303.21 535.714 1301.44 535.039C1299.67 534.365 1298.41 533.016 1297.65 530.992C1295.63 525.428 1292.55 521.044 1288.42 517.84C1284.37 514.552 1279.94 511.685 1275.14 509.24C1264.52 503.676 1253.56 499.165 1242.26 495.708C1230.96 492.167 1219.58 489.09 1208.11 486.477C1188.97 482.43 1163.47 479.816 1131.6 478.636C1099.82 477.371 1064.41 477.835 1025.37 480.027C986.336 482.135 946.373 486.308 905.482 492.547C864.592 498.701 825.43 507.217 787.997 518.093C750.647 528.884 717.809 542.374 689.48 558.562C661.237 574.665 640.159 593.677 626.248 615.597C614.613 634.651 612.295 654.759 619.292 675.921C624.351 690.422 631.602 703.617 641.044 715.504C655.124 733.294 670.722 749.608 687.836 764.446C702.253 777.599 716.797 790.751 731.467 803.903C745.715 816.55 760.006 829.365 774.338 842.349C790.273 857.019 805.955 871.857 821.383 886.864C822.817 888.298 824.292 889.689 825.81 891.038C834.156 898.794 841.491 907.394 847.814 916.836C854.306 927.628 855.529 935.975 851.482 941.876C847.519 947.862 839.931 951.909 828.718 954.017C817.505 956.125 804.479 956.757 789.641 955.914C774.802 955.155 759.837 953.3 744.746 950.35C729.738 947.483 716.375 944.026 704.656 939.979C693.021 935.933 684.801 931.759 679.996 927.459C670.384 918.523 669.752 909.08 678.099 899.131C687.12 888.93 698.122 881.511 711.106 876.874C729.907 869.623 748.919 869.033 768.142 875.103C771.851 876.452 775.392 878.222 778.765 880.415C779.102 880.583 779.397 880.794 779.65 881.047C780.577 881.553 781.21 882.312 781.547 883.323C781.884 884.335 781.715 885.431 781.041 886.611C779.523 888.466 777.669 889.014 775.477 888.255C773.369 887.497 771.388 886.569 769.533 885.473C756.212 878.813 742.511 877.422 728.432 881.3C714.352 885.178 702.464 892.85 692.769 904.316C688.553 909.881 688.342 914.729 692.136 918.86C695.93 923.075 701.705 926.616 709.462 929.483C717.303 932.434 725.144 934.71 732.984 936.312C740.91 937.998 746.811 939.136 750.689 939.727C751.448 939.727 751.996 939.811 752.333 939.979C753.092 939.979 754.02 940.064 755.116 940.232C760.09 941.328 766.877 942.467 775.477 943.647C784.16 944.912 793.097 945.755 802.287 946.176C811.477 946.682 819.36 946.092 825.936 944.406C832.512 942.72 836.222 939.474 837.065 934.668C837.908 929.862 834.241 922.738 826.062 913.295C817.379 903.263 808.189 893.525 798.493 884.082C774.381 860.728 749.636 838.091 724.258 816.17C715.153 807.992 706.047 799.814 696.942 791.636C681.766 777.978 666.843 763.983 652.173 749.65C638.599 736.498 626.627 722.038 616.257 706.272C608.838 694.806 603.653 682.455 600.702 669.218C596.234 647.551 600.238 627.527 612.716 609.147C626.375 588.576 646.187 570.365 672.155 554.515C698.122 538.664 728.221 525.133 762.451 513.919C796.681 502.706 833.145 493.643 871.843 486.729C910.541 479.732 949.619 474.8 989.076 471.933C1028.62 468.982 1066.51 467.971 1102.77 468.898C1139.02 469.825 1171.82 472.565 1201.16 477.118C1230.58 481.671 1254.69 487.952 1273.5 495.961C1283.44 499.84 1292.72 505.193 1301.32 512.022Z" fill="white"/>
<path d="M1294.32 504.022C1296.51 505.877 1298.49 507.985 1300.26 510.346C1302.03 512.622 1303.17 515.362 1303.68 518.566C1304.27 522.107 1303 524.805 1299.88 526.66C1298.03 527.587 1296.21 527.714 1294.44 527.039C1292.67 526.365 1291.41 525.016 1290.65 522.992C1288.63 517.428 1285.55 513.044 1281.42 509.84C1277.37 506.552 1272.94 503.685 1268.14 501.24C1257.52 495.676 1246.56 491.165 1235.26 487.708C1223.96 484.167 1212.58 481.09 1201.11 478.477C1181.97 474.43 1156.47 471.816 1124.6 470.636C1092.82 469.371 1057.41 469.835 1018.37 472.027C979.336 474.135 939.373 478.308 898.482 484.547C857.592 490.701 818.43 499.217 780.997 510.093C743.647 520.884 710.809 534.374 682.48 550.562C654.237 566.665 633.159 585.677 619.248 607.597C607.613 626.651 605.295 646.759 612.292 667.921C617.351 682.422 624.602 695.617 634.044 707.504C648.124 725.294 663.722 741.608 680.836 756.446C695.253 769.599 709.797 782.751 724.467 795.903C738.715 808.55 753.006 821.365 767.338 834.349C783.273 849.019 798.955 863.857 814.383 878.864C815.817 880.298 817.292 881.689 818.81 883.038C827.156 890.794 834.491 899.394 840.814 908.836C847.306 919.628 848.529 927.975 844.482 933.876C840.519 939.862 832.931 943.909 821.718 946.017C810.505 948.125 797.479 948.757 782.641 947.914C767.802 947.155 752.837 945.3 737.746 942.35C722.738 939.483 709.375 936.026 697.656 931.979C686.021 927.933 677.801 923.759 672.996 919.459C663.384 910.523 662.752 901.08 671.099 891.131C680.12 880.93 691.122 873.511 704.106 868.874C722.907 861.623 741.919 861.033 761.142 867.103C764.851 868.452 768.392 870.222 771.765 872.415C772.102 872.583 772.397 872.794 772.65 873.047C773.577 873.553 774.21 874.312 774.547 875.323C774.884 876.335 774.715 877.431 774.041 878.611C772.523 880.466 770.669 881.014 768.477 880.255C766.369 879.497 764.388 878.569 762.533 877.473C749.212 870.813 735.511 869.422 721.432 873.3C707.352 877.178 695.464 884.85 685.769 896.316C681.553 901.881 681.342 906.729 685.136 910.86C688.93 915.075 694.705 918.616 702.462 921.483C710.303 924.434 718.144 926.71 725.984 928.312C733.91 929.998 739.811 931.136 743.689 931.727C744.448 931.727 744.996 931.811 745.333 931.979C746.092 931.979 747.02 932.064 748.116 932.232C753.09 933.328 759.877 934.467 768.477 935.647C777.16 936.912 786.097 937.755 795.287 938.176C804.477 938.682 812.36 938.092 818.936 936.406C825.512 934.72 829.222 931.474 830.065 926.668C830.908 921.862 827.241 914.738 819.062 905.295C810.379 895.263 801.189 885.525 791.493 876.082C767.381 852.728 742.636 830.091 717.258 808.17C708.153 799.992 699.047 791.814 689.942 783.636C674.766 769.978 659.843 755.983 645.173 741.65C631.599 728.498 619.627 714.038 609.257 698.272C601.838 686.806 596.653 674.455 593.702 661.218C589.234 639.551 593.238 619.527 605.716 601.147C619.375 580.576 639.187 562.365 665.155 546.515C691.122 530.664 721.221 517.133 755.451 505.919C789.681 494.706 826.145 485.643 864.843 478.729C903.541 471.732 942.619 466.8 982.076 463.933C1021.62 460.982 1059.51 459.971 1095.77 460.898C1132.02 461.825 1164.82 464.565 1194.16 469.118C1223.58 473.671 1247.69 479.952 1266.5 487.961C1276.44 491.84 1285.72 497.193 1294.32 504.022Z" fill="white"/>
<path d="M1287.32 496.022C1289.51 497.877 1291.49 499.985 1293.26 502.346C1295.03 504.622 1296.17 507.362 1296.68 510.566C1297.27 514.107 1296 516.805 1292.88 518.66C1291.03 519.587 1289.21 519.714 1287.44 519.039C1285.67 518.365 1284.41 517.016 1283.65 514.992C1281.63 509.428 1278.55 505.044 1274.42 501.84C1270.37 498.552 1265.94 495.685 1261.14 493.24C1250.52 487.676 1239.56 483.165 1228.26 479.708C1216.96 476.167 1205.58 473.09 1194.11 470.477C1174.97 466.43 1149.47 463.816 1117.6 462.636C1085.82 461.371 1050.41 461.835 1011.37 464.027C972.336 466.135 932.373 470.308 891.482 476.547C850.592 482.701 811.43 491.217 773.997 502.093C736.647 512.884 703.809 526.374 675.48 542.562C647.237 558.665 626.159 577.677 612.248 599.597C600.613 618.651 598.295 638.759 605.292 659.921C610.351 674.422 617.602 687.617 627.044 699.504C641.124 717.294 656.722 733.608 673.836 748.446C688.253 761.599 702.797 774.751 717.467 787.903C731.715 800.55 746.006 813.365 760.338 826.349C776.273 841.019 791.955 855.857 807.383 870.864C808.817 872.298 810.292 873.689 811.81 875.038C820.156 882.794 827.491 891.394 833.814 900.836C840.306 911.628 841.529 919.975 837.482 925.876C833.519 931.862 825.931 935.909 814.718 938.017C803.505 940.125 790.479 940.757 775.641 939.914C760.802 939.155 745.837 937.3 730.746 934.35C715.738 931.483 702.375 928.026 690.656 923.979C679.021 919.933 670.801 915.759 665.996 911.459C656.384 902.523 655.752 893.08 664.099 883.131C673.12 872.93 684.122 865.511 697.106 860.874C715.907 853.623 734.919 853.033 754.142 859.103C757.851 860.452 761.392 862.222 764.765 864.415C765.102 864.583 765.397 864.794 765.65 865.047C766.577 865.553 767.21 866.312 767.547 867.323C767.884 868.335 767.715 869.431 767.041 870.611C765.523 872.466 763.669 873.014 761.477 872.255C759.369 871.497 757.388 870.569 755.533 869.473C742.212 862.813 728.511 861.422 714.432 865.3C700.352 869.178 688.464 876.85 678.769 888.316C674.553 893.881 674.342 898.729 678.136 902.86C681.93 907.075 687.705 910.616 695.462 913.483C703.303 916.434 711.144 918.71 718.984 920.312C726.91 921.998 732.811 923.136 736.689 923.727C737.448 923.727 737.996 923.811 738.333 923.979C739.092 923.979 740.02 924.064 741.116 924.232C746.09 925.328 752.877 926.467 761.477 927.647C770.16 928.912 779.097 929.755 788.287 930.176C797.477 930.682 805.36 930.092 811.936 928.406C818.512 926.72 822.222 923.474 823.065 918.668C823.908 913.862 820.241 906.738 812.062 897.295C803.379 887.263 794.189 877.525 784.493 868.082C760.381 844.728 735.636 822.091 710.258 800.17C701.153 791.992 692.047 783.814 682.942 775.636C667.766 761.978 652.843 747.983 638.173 733.65C624.599 720.498 612.627 706.038 602.257 690.272C594.838 678.806 589.653 666.455 586.702 653.218C582.234 631.551 586.238 611.527 598.716 593.147C612.375 572.576 632.187 554.365 658.155 538.515C684.122 522.664 714.221 509.133 748.451 497.919C782.681 486.706 819.145 477.643 857.843 470.729C896.541 463.732 935.619 458.8 975.076 455.933C1014.62 452.982 1052.51 451.971 1088.77 452.898C1125.02 453.825 1157.82 456.565 1187.16 461.118C1216.58 465.671 1240.69 471.952 1259.5 479.961C1269.44 483.84 1278.72 489.193 1287.32 496.022Z" fill="white"/>
<path d="M1020.21 312.691C1019.43 314.707 1018.65 316.723 1017.86 318.738C1010.02 339.118 1001.57 359.163 992.5 378.871C945.693 476.181 895.414 570.299 841.664 661.227C824.195 690.565 806.335 719.4 788.082 747.73C769.829 776.061 751.465 804.28 732.988 832.387C728.621 838.993 724.198 845.6 719.719 852.207C719.495 852.767 719.271 853.159 719.047 853.383C718.039 855.398 716.863 857.078 715.52 858.422C714.176 859.766 712.384 860.438 710.145 860.438C709.137 860.438 708.073 860.158 706.953 859.598C705.833 859.15 704.938 858.534 704.266 857.75C703.706 857.078 703.314 855.958 703.09 854.391C702.866 852.935 702.978 851.759 703.426 850.863C706.449 844.368 709.809 838.21 713.504 832.387C721.79 818.837 730.133 805.288 738.531 791.738C754.32 766.543 769.829 741.292 785.059 715.984C818.876 659.547 851.182 601.934 881.977 543.145C912.771 484.355 942.837 424.951 972.176 364.93C983.934 341.75 993.62 316.947 1001.23 290.52C1002.8 285.928 1003.98 281.169 1004.76 276.242C1005.66 271.315 1006.11 266.22 1006.11 260.957C1005.32 249.647 1000.51 244.72 991.66 246.176C983.822 247.743 976.431 250.207 969.488 253.566C953.027 261.517 936.79 270.307 920.777 279.938C834.777 332.12 756.448 396.9 685.789 474.277C684.781 475.509 683.661 476.741 682.43 477.973C658.018 504.512 633.775 531.275 609.699 558.262C585.736 585.249 562.444 613.02 539.824 641.574C535.121 647.509 530.194 653.052 525.043 658.203C519.556 663.914 513.005 666.154 505.391 664.922C502.143 664.474 499.456 662.906 497.328 660.219C495.312 657.419 494.529 654.172 494.977 650.477C496.544 640.398 498.784 630.656 501.695 621.25C510.766 591.464 520.396 562.069 530.586 533.066C532.042 528.587 533.385 524.276 534.617 520.133C537.305 509.271 541.112 499.249 546.039 490.066C546.039 489.842 545.927 489.73 545.703 489.73C544.471 489.059 543.24 488.555 542.008 488.219C540.776 487.771 539.544 488.163 538.312 489.395C533.833 494.322 529.522 499.473 525.379 504.848C491.337 550.983 457.632 597.51 424.262 644.43C390.892 691.349 358.306 739.052 326.504 787.539C323.816 792.242 320.793 796.049 317.434 798.961C314.186 801.984 309.819 802.992 304.332 801.984C301.868 801.312 299.965 799.801 298.621 797.449C297.277 795.098 296.997 792.802 297.781 790.562C300.693 783.956 303.884 777.685 307.355 771.75C317.21 754.729 326.952 737.708 336.582 720.688C355.954 686.982 375.159 653.108 394.195 619.066C423.758 566.884 450.129 511.958 473.309 454.289C482.379 432.117 489.77 408.826 495.48 384.414C498.616 371.424 499.96 357.875 499.512 343.766C498.056 321.146 490.553 304.965 477.004 295.223C463.454 285.48 445.65 280.889 423.59 281.449C401.53 281.897 377.062 286.376 350.188 294.887C323.312 303.397 295.766 314.651 267.547 328.648C239.328 342.646 212.117 358.099 185.914 375.008C159.711 391.917 136.419 409.049 116.039 426.406C95.5469 443.763 79.5898 460.056 68.168 475.285C56.1862 492.082 45.9961 510.559 37.5977 530.715C33.3424 540.345 30.8789 550.815 30.207 562.125C29.9831 564.365 28.8633 566.044 26.8477 567.164C24.832 568.284 22.5924 568.62 20.1289 568.172C16.2096 566.94 13.7461 563.861 12.7383 558.934C12.0664 552.439 12.5703 546.504 14.25 541.129C17.9453 527.579 22.8724 514.758 29.0312 502.664C40.3411 481.5 57.5299 459.888 80.5977 437.828C103.665 415.768 130.54 394.66 161.223 374.504C191.905 354.236 223.931 336.207 257.301 320.418C290.671 304.517 323.312 292.199 355.227 283.465C387.141 274.618 415.863 270.643 441.395 271.539C467.038 272.435 487.25 279.49 502.031 292.703C516.812 305.805 523.979 326.521 523.531 354.852C522.747 373.104 519.892 390.461 514.965 406.922C507.798 431.109 499.512 454.513 490.105 477.133C480.811 499.641 470.901 521.701 460.375 543.312C457.128 550.031 456.4 553.335 458.191 553.223C460.095 552.999 462.895 550.423 466.59 545.496C479.915 527.803 493.241 510.335 506.566 493.09C515.637 481.556 524.875 470.246 534.281 459.16C535.513 457.592 536.745 456.081 537.977 454.625C543.352 448.018 549.846 443.595 557.461 441.355C563.172 440.124 567.987 441.411 571.906 445.219C575.826 449.026 577.169 454.737 575.938 462.352C575.714 463.135 575.49 463.919 575.266 464.703C573.25 474.557 570.898 484.132 568.211 493.426C561.044 516.158 553.654 538.721 546.039 561.117C542.344 572.651 538.648 584.353 534.953 596.223C534.169 597.902 533.049 600.982 531.594 605.461C530.138 609.38 528.738 613.243 527.395 617.051C526.051 620.858 524.987 623.77 524.203 625.785C525.211 625.001 534.337 614.755 551.582 595.047C574.986 568.172 602.701 536.706 634.727 500.648C666.753 464.591 691.892 437.044 710.145 418.008C743.85 384.078 779.348 353.228 816.637 325.457C854.038 297.574 892.783 272.379 932.871 249.871C942.725 244.72 952.859 240.073 963.273 235.93C965.513 235.146 967.697 234.25 969.824 233.242C979.678 229.323 990.148 227.867 1001.23 228.875C1022.51 230.891 1032.25 244.328 1030.46 269.188C1029.23 284.641 1025.81 299.142 1020.21 312.691ZM544.863 488.723C545.423 489.171 545.815 489.507 546.039 489.73C546.039 489.73 546.039 489.842 546.039 490.066C546.263 490.066 546.375 489.954 546.375 489.73C545.927 489.507 545.423 489.171 544.863 488.723Z" fill="white"/>
<path d="M1020.21 303.691C1019.43 305.707 1018.65 307.723 1017.86 309.738C1010.02 330.118 1001.57 350.163 992.5 369.871C945.693 467.181 895.414 561.299 841.664 652.227C824.195 681.565 806.335 710.4 788.082 738.73C769.829 767.061 751.465 795.28 732.988 823.387C728.621 829.993 724.198 836.6 719.719 843.207C719.495 843.767 719.271 844.159 719.047 844.383C718.039 846.398 716.863 848.078 715.52 849.422C714.176 850.766 712.384 851.438 710.145 851.438C709.137 851.438 708.073 851.158 706.953 850.598C705.833 850.15 704.938 849.534 704.266 848.75C703.706 848.078 703.314 846.958 703.09 845.391C702.866 843.935 702.978 842.759 703.426 841.863C706.449 835.368 709.809 829.21 713.504 823.387C721.79 809.837 730.133 796.288 738.531 782.738C754.32 757.543 769.829 732.292 785.059 706.984C818.876 650.547 851.182 592.934 881.977 534.145C912.771 475.355 942.837 415.951 972.176 355.93C983.934 332.75 993.62 307.947 1001.23 281.52C1002.8 276.928 1003.98 272.169 1004.76 267.242C1005.66 262.315 1006.11 257.22 1006.11 251.957C1005.32 240.647 1000.51 235.72 991.66 237.176C983.822 238.743 976.431 241.207 969.488 244.566C953.027 252.517 936.79 261.307 920.777 270.938C834.777 323.12 756.448 387.9 685.789 465.277C684.781 466.509 683.661 467.741 682.43 468.973C658.018 495.512 633.775 522.275 609.699 549.262C585.736 576.249 562.444 604.02 539.824 632.574C535.121 638.509 530.194 644.052 525.043 649.203C519.556 654.914 513.005 657.154 505.391 655.922C502.143 655.474 499.456 653.906 497.328 651.219C495.312 648.419 494.529 645.172 494.977 641.477C496.544 631.398 498.784 621.656 501.695 612.25C510.766 582.464 520.396 553.069 530.586 524.066C532.042 519.587 533.385 515.276 534.617 511.133C537.305 500.271 541.112 490.249 546.039 481.066C546.039 480.842 545.927 480.73 545.703 480.73C544.471 480.059 543.24 479.555 542.008 479.219C540.776 478.771 539.544 479.163 538.312 480.395C533.833 485.322 529.522 490.473 525.379 495.848C491.337 541.983 457.632 588.51 424.262 635.43C390.892 682.349 358.306 730.052 326.504 778.539C323.816 783.242 320.793 787.049 317.434 789.961C314.186 792.984 309.819 793.992 304.332 792.984C301.868 792.312 299.965 790.801 298.621 788.449C297.277 786.098 296.997 783.802 297.781 781.562C300.693 774.956 303.884 768.685 307.355 762.75C317.21 745.729 326.952 728.708 336.582 711.688C355.954 677.982 375.159 644.108 394.195 610.066C423.758 557.884 450.129 502.958 473.309 445.289C482.379 423.117 489.77 399.826 495.48 375.414C498.616 362.424 499.96 348.875 499.512 334.766C498.056 312.146 490.553 295.965 477.004 286.223C463.454 276.48 445.65 271.889 423.59 272.449C401.53 272.897 377.062 277.376 350.188 285.887C323.312 294.397 295.766 305.651 267.547 319.648C239.328 333.646 212.117 349.099 185.914 366.008C159.711 382.917 136.419 400.049 116.039 417.406C95.5469 434.763 79.5898 451.056 68.168 466.285C56.1862 483.082 45.9961 501.559 37.5977 521.715C33.3424 531.345 30.8789 541.815 30.207 553.125C29.9831 555.365 28.8633 557.044 26.8477 558.164C24.832 559.284 22.5924 559.62 20.1289 559.172C16.2096 557.94 13.7461 554.861 12.7383 549.934C12.0664 543.439 12.5703 537.504 14.25 532.129C17.9453 518.579 22.8724 505.758 29.0312 493.664C40.3411 472.5 57.5299 450.888 80.5977 428.828C103.665 406.768 130.54 385.66 161.223 365.504C191.905 345.236 223.931 327.207 257.301 311.418C290.671 295.517 323.312 283.199 355.227 274.465C387.141 265.618 415.863 261.643 441.395 262.539C467.038 263.435 487.25 270.49 502.031 283.703C516.812 296.805 523.979 317.521 523.531 345.852C522.747 364.104 519.892 381.461 514.965 397.922C507.798 422.109 499.512 445.513 490.105 468.133C480.811 490.641 470.901 512.701 460.375 534.312C457.128 541.031 456.4 544.335 458.191 544.223C460.095 543.999 462.895 541.423 466.59 536.496C479.915 518.803 493.241 501.335 506.566 484.09C515.637 472.556 524.875 461.246 534.281 450.16C535.513 448.592 536.745 447.081 537.977 445.625C543.352 439.018 549.846 434.595 557.461 432.355C563.172 431.124 567.987 432.411 571.906 436.219C575.826 440.026 577.169 445.737 575.938 453.352C575.714 454.135 575.49 454.919 575.266 455.703C573.25 465.557 570.898 475.132 568.211 484.426C561.044 507.158 553.654 529.721 546.039 552.117C542.344 563.651 538.648 575.353 534.953 587.223C534.169 588.902 533.049 591.982 531.594 596.461C530.138 600.38 528.738 604.243 527.395 608.051C526.051 611.858 524.987 614.77 524.203 616.785C525.211 616.001 534.337 605.755 551.582 586.047C574.986 559.172 602.701 527.706 634.727 491.648C666.753 455.591 691.892 428.044 710.145 409.008C743.85 375.078 779.348 344.228 816.637 316.457C854.038 288.574 892.783 263.379 932.871 240.871C942.725 235.72 952.859 231.073 963.273 226.93C965.513 226.146 967.697 225.25 969.824 224.242C979.678 220.323 990.148 218.867 1001.23 219.875C1022.51 221.891 1032.25 235.328 1030.46 260.188C1029.23 275.641 1025.81 290.142 1020.21 303.691ZM544.863 479.723C545.423 480.171 545.815 480.507 546.039 480.73C546.039 480.73 546.039 480.842 546.039 481.066C546.263 481.066 546.375 480.954 546.375 480.73C545.927 480.507 545.423 480.171 544.863 479.723Z" fill="white"/>
<path d="M1020.21 294.691C1019.43 296.707 1018.65 298.723 1017.86 300.738C1010.02 321.118 1001.57 341.163 992.5 360.871C945.693 458.181 895.414 552.299 841.664 643.227C824.195 672.565 806.335 701.4 788.082 729.73C769.829 758.061 751.465 786.28 732.988 814.387C728.621 820.993 724.198 827.6 719.719 834.207C719.495 834.767 719.271 835.159 719.047 835.383C718.039 837.398 716.863 839.078 715.52 840.422C714.176 841.766 712.384 842.438 710.145 842.438C709.137 842.438 708.073 842.158 706.953 841.598C705.833 841.15 704.938 840.534 704.266 839.75C703.706 839.078 703.314 837.958 703.09 836.391C702.866 834.935 702.978 833.759 703.426 832.863C706.449 826.368 709.809 820.21 713.504 814.387C721.79 800.837 730.133 787.288 738.531 773.738C754.32 748.543 769.829 723.292 785.059 697.984C818.876 641.547 851.182 583.934 881.977 525.145C912.771 466.355 942.837 406.951 972.176 346.93C983.934 323.75 993.62 298.947 1001.23 272.52C1002.8 267.928 1003.98 263.169 1004.76 258.242C1005.66 253.315 1006.11 248.22 1006.11 242.957C1005.32 231.647 1000.51 226.72 991.66 228.176C983.822 229.743 976.431 232.207 969.488 235.566C953.027 243.517 936.79 252.307 920.777 261.938C834.777 314.12 756.448 378.9 685.789 456.277C684.781 457.509 683.661 458.741 682.43 459.973C658.018 486.512 633.775 513.275 609.699 540.262C585.736 567.249 562.444 595.02 539.824 623.574C535.121 629.509 530.194 635.052 525.043 640.203C519.556 645.914 513.005 648.154 505.391 646.922C502.143 646.474 499.456 644.906 497.328 642.219C495.312 639.419 494.529 636.172 494.977 632.477C496.544 622.398 498.784 612.656 501.695 603.25C510.766 573.464 520.396 544.069 530.586 515.066C532.042 510.587 533.385 506.276 534.617 502.133C537.305 491.271 541.112 481.249 546.039 472.066C546.039 471.842 545.927 471.73 545.703 471.73C544.471 471.059 543.24 470.555 542.008 470.219C540.776 469.771 539.544 470.163 538.312 471.395C533.833 476.322 529.522 481.473 525.379 486.848C491.337 532.983 457.632 579.51 424.262 626.43C390.892 673.349 358.306 721.052 326.504 769.539C323.816 774.242 320.793 778.049 317.434 780.961C314.186 783.984 309.819 784.992 304.332 783.984C301.868 783.312 299.965 781.801 298.621 779.449C297.277 777.098 296.997 774.802 297.781 772.562C300.693 765.956 303.884 759.685 307.355 753.75C317.21 736.729 326.952 719.708 336.582 702.688C355.954 668.982 375.159 635.108 394.195 601.066C423.758 548.884 450.129 493.958 473.309 436.289C482.379 414.117 489.77 390.826 495.48 366.414C498.616 353.424 499.96 339.875 499.512 325.766C498.056 303.146 490.553 286.965 477.004 277.223C463.454 267.48 445.65 262.889 423.59 263.449C401.53 263.897 377.062 268.376 350.188 276.887C323.312 285.397 295.766 296.651 267.547 310.648C239.328 324.646 212.117 340.099 185.914 357.008C159.711 373.917 136.419 391.049 116.039 408.406C95.5469 425.763 79.5898 442.056 68.168 457.285C56.1862 474.082 45.9961 492.559 37.5977 512.715C33.3424 522.345 30.8789 532.815 30.207 544.125C29.9831 546.365 28.8633 548.044 26.8477 549.164C24.832 550.284 22.5924 550.62 20.1289 550.172C16.2096 548.94 13.7461 545.861 12.7383 540.934C12.0664 534.439 12.5703 528.504 14.25 523.129C17.9453 509.579 22.8724 496.758 29.0312 484.664C40.3411 463.5 57.5299 441.888 80.5977 419.828C103.665 397.768 130.54 376.66 161.223 356.504C191.905 336.236 223.931 318.207 257.301 302.418C290.671 286.517 323.312 274.199 355.227 265.465C387.141 256.618 415.863 252.643 441.395 253.539C467.038 254.435 487.25 261.49 502.031 274.703C516.812 287.805 523.979 308.521 523.531 336.852C522.747 355.104 519.892 372.461 514.965 388.922C507.798 413.109 499.512 436.513 490.105 459.133C480.811 481.641 470.901 503.701 460.375 525.312C457.128 532.031 456.4 535.335 458.191 535.223C460.095 534.999 462.895 532.423 466.59 527.496C479.915 509.803 493.241 492.335 506.566 475.09C515.637 463.556 524.875 452.246 534.281 441.16C535.513 439.592 536.745 438.081 537.977 436.625C543.352 430.018 549.846 425.595 557.461 423.355C563.172 422.124 567.987 423.411 571.906 427.219C575.826 431.026 577.169 436.737 575.938 444.352C575.714 445.135 575.49 445.919 575.266 446.703C573.25 456.557 570.898 466.132 568.211 475.426C561.044 498.158 553.654 520.721 546.039 543.117C542.344 554.651 538.648 566.353 534.953 578.223C534.169 579.902 533.049 582.982 531.594 587.461C530.138 591.38 528.738 595.243 527.395 599.051C526.051 602.858 524.987 605.77 524.203 607.785C525.211 607.001 534.337 596.755 551.582 577.047C574.986 550.172 602.701 518.706 634.727 482.648C666.753 446.591 691.892 419.044 710.145 400.008C743.85 366.078 779.348 335.228 816.637 307.457C854.038 279.574 892.783 254.379 932.871 231.871C942.725 226.72 952.859 222.073 963.273 217.93C965.513 217.146 967.697 216.25 969.824 215.242C979.678 211.323 990.148 209.867 1001.23 210.875C1022.51 212.891 1032.25 226.328 1030.46 251.188C1029.23 266.641 1025.81 281.142 1020.21 294.691ZM544.863 470.723C545.423 471.171 545.815 471.507 546.039 471.73C546.039 471.73 546.039 471.842 546.039 472.066C546.263 472.066 546.375 471.954 546.375 471.73C545.927 471.507 545.423 471.171 544.863 470.723Z" fill="white"/>
<path d="M1020.21 285.691C1019.43 287.707 1018.65 289.723 1017.86 291.738C1010.02 312.118 1001.57 332.163 992.5 351.871C945.693 449.181 895.414 543.299 841.664 634.227C824.195 663.565 806.335 692.4 788.082 720.73C769.829 749.061 751.465 777.28 732.988 805.387C728.621 811.993 724.198 818.6 719.719 825.207C719.495 825.767 719.271 826.159 719.047 826.383C718.039 828.398 716.863 830.078 715.52 831.422C714.176 832.766 712.384 833.438 710.145 833.438C709.137 833.438 708.073 833.158 706.953 832.598C705.833 832.15 704.938 831.534 704.266 830.75C703.706 830.078 703.314 828.958 703.09 827.391C702.866 825.935 702.978 824.759 703.426 823.863C706.449 817.368 709.809 811.21 713.504 805.387C721.79 791.837 730.133 778.288 738.531 764.738C754.32 739.543 769.829 714.292 785.059 688.984C818.876 632.547 851.182 574.934 881.977 516.145C912.771 457.355 942.837 397.951 972.176 337.93C983.934 314.75 993.62 289.947 1001.23 263.52C1002.8 258.928 1003.98 254.169 1004.76 249.242C1005.66 244.315 1006.11 239.22 1006.11 233.957C1005.32 222.647 1000.51 217.72 991.66 219.176C983.822 220.743 976.431 223.207 969.488 226.566C953.027 234.517 936.79 243.307 920.777 252.938C834.777 305.12 756.448 369.9 685.789 447.277C684.781 448.509 683.661 449.741 682.43 450.973C658.018 477.512 633.775 504.275 609.699 531.262C585.736 558.249 562.444 586.02 539.824 614.574C535.121 620.509 530.194 626.052 525.043 631.203C519.556 636.914 513.005 639.154 505.391 637.922C502.143 637.474 499.456 635.906 497.328 633.219C495.312 630.419 494.529 627.172 494.977 623.477C496.544 613.398 498.784 603.656 501.695 594.25C510.766 564.464 520.396 535.069 530.586 506.066C532.042 501.587 533.385 497.276 534.617 493.133C537.305 482.271 541.112 472.249 546.039 463.066C546.039 462.842 545.927 462.73 545.703 462.73C544.471 462.059 543.24 461.555 542.008 461.219C540.776 460.771 539.544 461.163 538.312 462.395C533.833 467.322 529.522 472.473 525.379 477.848C491.337 523.983 457.632 570.51 424.262 617.43C390.892 664.349 358.306 712.052 326.504 760.539C323.816 765.242 320.793 769.049 317.434 771.961C314.186 774.984 309.819 775.992 304.332 774.984C301.868 774.312 299.965 772.801 298.621 770.449C297.277 768.098 296.997 765.802 297.781 763.562C300.693 756.956 303.884 750.685 307.355 744.75C317.21 727.729 326.952 710.708 336.582 693.688C355.954 659.982 375.159 626.108 394.195 592.066C423.758 539.884 450.129 484.958 473.309 427.289C482.379 405.117 489.77 381.826 495.48 357.414C498.616 344.424 499.96 330.875 499.512 316.766C498.056 294.146 490.553 277.965 477.004 268.223C463.454 258.48 445.65 253.889 423.59 254.449C401.53 254.897 377.062 259.376 350.188 267.887C323.312 276.397 295.766 287.651 267.547 301.648C239.328 315.646 212.117 331.099 185.914 348.008C159.711 364.917 136.419 382.049 116.039 399.406C95.5469 416.763 79.5898 433.056 68.168 448.285C56.1862 465.082 45.9961 483.559 37.5977 503.715C33.3424 513.345 30.8789 523.815 30.207 535.125C29.9831 537.365 28.8633 539.044 26.8477 540.164C24.832 541.284 22.5924 541.62 20.1289 541.172C16.2096 539.94 13.7461 536.861 12.7383 531.934C12.0664 525.439 12.5703 519.504 14.25 514.129C17.9453 500.579 22.8724 487.758 29.0312 475.664C40.3411 454.5 57.5299 432.888 80.5977 410.828C103.665 388.768 130.54 367.66 161.223 347.504C191.905 327.236 223.931 309.207 257.301 293.418C290.671 277.517 323.312 265.199 355.227 256.465C387.141 247.618 415.863 243.643 441.395 244.539C467.038 245.435 487.25 252.49 502.031 265.703C516.812 278.805 523.979 299.521 523.531 327.852C522.747 346.104 519.892 363.461 514.965 379.922C507.798 404.109 499.512 427.513 490.105 450.133C480.811 472.641 470.901 494.701 460.375 516.312C457.128 523.031 456.4 526.335 458.191 526.223C460.095 525.999 462.895 523.423 466.59 518.496C479.915 500.803 493.241 483.335 506.566 466.09C515.637 454.556 524.875 443.246 534.281 432.16C535.513 430.592 536.745 429.081 537.977 427.625C543.352 421.018 549.846 416.595 557.461 414.355C563.172 413.124 567.987 414.411 571.906 418.219C575.826 422.026 577.169 427.737 575.938 435.352C575.714 436.135 575.49 436.919 575.266 437.703C573.25 447.557 570.898 457.132 568.211 466.426C561.044 489.158 553.654 511.721 546.039 534.117C542.344 545.651 538.648 557.353 534.953 569.223C534.169 570.902 533.049 573.982 531.594 578.461C530.138 582.38 528.738 586.243 527.395 590.051C526.051 593.858 524.987 596.77 524.203 598.785C525.211 598.001 534.337 587.755 551.582 568.047C574.986 541.172 602.701 509.706 634.727 473.648C666.753 437.591 691.892 410.044 710.145 391.008C743.85 357.078 779.348 326.228 816.637 298.457C854.038 270.574 892.783 245.379 932.871 222.871C942.725 217.72 952.859 213.073 963.273 208.93C965.513 208.146 967.697 207.25 969.824 206.242C979.678 202.323 990.148 200.867 1001.23 201.875C1022.51 203.891 1032.25 217.328 1030.46 242.188C1029.23 257.641 1025.81 272.142 1020.21 285.691ZM544.863 461.723C545.423 462.171 545.815 462.507 546.039 462.73C546.039 462.73 546.039 462.842 546.039 463.066C546.263 463.066 546.375 462.954 546.375 462.73C545.927 462.507 545.423 462.171 544.863 461.723Z" fill="white"/>
<path d="M1020.21 276.691C1019.43 278.707 1018.65 280.723 1017.86 282.738C1010.02 303.118 1001.57 323.163 992.5 342.871C945.693 440.181 895.414 534.299 841.664 625.227C824.195 654.565 806.335 683.4 788.082 711.73C769.829 740.061 751.465 768.28 732.988 796.387C728.621 802.993 724.198 809.6 719.719 816.207C719.495 816.767 719.271 817.159 719.047 817.383C718.039 819.398 716.863 821.078 715.52 822.422C714.176 823.766 712.384 824.438 710.145 824.438C709.137 824.438 708.073 824.158 706.953 823.598C705.833 823.15 704.938 822.534 704.266 821.75C703.706 821.078 703.314 819.958 703.09 818.391C702.866 816.935 702.978 815.759 703.426 814.863C706.449 808.368 709.809 802.21 713.504 796.387C721.79 782.837 730.133 769.288 738.531 755.738C754.32 730.543 769.829 705.292 785.059 679.984C818.876 623.547 851.182 565.934 881.977 507.145C912.771 448.355 942.837 388.951 972.176 328.93C983.934 305.75 993.62 280.947 1001.23 254.52C1002.8 249.928 1003.98 245.169 1004.76 240.242C1005.66 235.315 1006.11 230.22 1006.11 224.957C1005.32 213.647 1000.51 208.72 991.66 210.176C983.822 211.743 976.431 214.207 969.488 217.566C953.027 225.517 936.79 234.307 920.777 243.938C834.777 296.12 756.448 360.9 685.789 438.277C684.781 439.509 683.661 440.741 682.43 441.973C658.018 468.512 633.775 495.275 609.699 522.262C585.736 549.249 562.444 577.02 539.824 605.574C535.121 611.509 530.194 617.052 525.043 622.203C519.556 627.914 513.005 630.154 505.391 628.922C502.143 628.474 499.456 626.906 497.328 624.219C495.312 621.419 494.529 618.172 494.977 614.477C496.544 604.398 498.784 594.656 501.695 585.25C510.766 555.464 520.396 526.069 530.586 497.066C532.042 492.587 533.385 488.276 534.617 484.133C537.305 473.271 541.112 463.249 546.039 454.066C546.039 453.842 545.927 453.73 545.703 453.73C544.471 453.059 543.24 452.555 542.008 452.219C540.776 451.771 539.544 452.163 538.312 453.395C533.833 458.322 529.522 463.473 525.379 468.848C491.337 514.983 457.632 561.51 424.262 608.43C390.892 655.349 358.306 703.052 326.504 751.539C323.816 756.242 320.793 760.049 317.434 762.961C314.186 765.984 309.819 766.992 304.332 765.984C301.868 765.312 299.965 763.801 298.621 761.449C297.277 759.098 296.997 756.802 297.781 754.562C300.693 747.956 303.884 741.685 307.355 735.75C317.21 718.729 326.952 701.708 336.582 684.688C355.954 650.982 375.159 617.108 394.195 583.066C423.758 530.884 450.129 475.958 473.309 418.289C482.379 396.117 489.77 372.826 495.48 348.414C498.616 335.424 499.96 321.875 499.512 307.766C498.056 285.146 490.553 268.965 477.004 259.223C463.454 249.48 445.65 244.889 423.59 245.449C401.53 245.897 377.062 250.376 350.188 258.887C323.312 267.397 295.766 278.651 267.547 292.648C239.328 306.646 212.117 322.099 185.914 339.008C159.711 355.917 136.419 373.049 116.039 390.406C95.5469 407.763 79.5898 424.056 68.168 439.285C56.1862 456.082 45.9961 474.559 37.5977 494.715C33.3424 504.345 30.8789 514.815 30.207 526.125C29.9831 528.365 28.8633 530.044 26.8477 531.164C24.832 532.284 22.5924 532.62 20.1289 532.172C16.2096 530.94 13.7461 527.861 12.7383 522.934C12.0664 516.439 12.5703 510.504 14.25 505.129C17.9453 491.579 22.8724 478.758 29.0312 466.664C40.3411 445.5 57.5299 423.888 80.5977 401.828C103.665 379.768 130.54 358.66 161.223 338.504C191.905 318.236 223.931 300.207 257.301 284.418C290.671 268.517 323.312 256.199 355.227 247.465C387.141 238.618 415.863 234.643 441.395 235.539C467.038 236.435 487.25 243.49 502.031 256.703C516.812 269.805 523.979 290.521 523.531 318.852C522.747 337.104 519.892 354.461 514.965 370.922C507.798 395.109 499.512 418.513 490.105 441.133C480.811 463.641 470.901 485.701 460.375 507.312C457.128 514.031 456.4 517.335 458.191 517.223C460.095 516.999 462.895 514.423 466.59 509.496C479.915 491.803 493.241 474.335 506.566 457.09C515.637 445.556 524.875 434.246 534.281 423.16C535.513 421.592 536.745 420.081 537.977 418.625C543.352 412.018 549.846 407.595 557.461 405.355C563.172 404.124 567.987 405.411 571.906 409.219C575.826 413.026 577.169 418.737 575.938 426.352C575.714 427.135 575.49 427.919 575.266 428.703C573.25 438.557 570.898 448.132 568.211 457.426C561.044 480.158 553.654 502.721 546.039 525.117C542.344 536.651 538.648 548.353 534.953 560.223C534.169 561.902 533.049 564.982 531.594 569.461C530.138 573.38 528.738 577.243 527.395 581.051C526.051 584.858 524.987 587.77 524.203 589.785C525.211 589.001 534.337 578.755 551.582 559.047C574.986 532.172 602.701 500.706 634.727 464.648C666.753 428.591 691.892 401.044 710.145 382.008C743.85 348.078 779.348 317.228 816.637 289.457C854.038 261.574 892.783 236.379 932.871 213.871C942.725 208.72 952.859 204.073 963.273 199.93C965.513 199.146 967.697 198.25 969.824 197.242C979.678 193.323 990.148 191.867 1001.23 192.875C1022.51 194.891 1032.25 208.328 1030.46 233.188C1029.23 248.641 1025.81 263.142 1020.21 276.691ZM544.863 452.723C545.423 453.171 545.815 453.507 546.039 453.73C546.039 453.73 546.039 453.842 546.039 454.066C546.263 454.066 546.375 453.954 546.375 453.73C545.927 453.507 545.423 453.171 544.863 452.723Z" fill="white"/>
<path d="M998.215 310.691C997.431 312.707 996.647 314.723 995.863 316.738C988.025 337.118 979.57 357.163 970.5 376.871C923.693 474.181 873.414 568.299 819.664 659.227C802.195 688.565 784.335 717.4 766.082 745.73C747.829 774.061 729.465 802.28 710.988 830.387C706.621 836.993 702.198 843.6 697.719 850.207C697.495 850.767 697.271 851.159 697.047 851.383C696.039 853.398 694.863 855.078 693.52 856.422C692.176 857.766 690.384 858.438 688.145 858.438C687.137 858.438 686.073 858.158 684.953 857.598C683.833 857.15 682.938 856.534 682.266 855.75C681.706 855.078 681.314 853.958 681.09 852.391C680.866 850.935 680.978 849.759 681.426 848.863C684.449 842.368 687.809 836.21 691.504 830.387C699.79 816.837 708.133 803.288 716.531 789.738C732.32 764.543 747.829 739.292 763.059 713.984C796.876 657.547 829.182 599.934 859.977 541.145C890.771 482.355 920.837 422.951 950.176 362.93C961.934 339.75 971.62 314.947 979.234 288.52C980.802 283.928 981.978 279.169 982.762 274.242C983.658 269.315 984.105 264.22 984.105 258.957C983.322 247.647 978.507 242.72 969.66 244.176C961.822 245.743 954.431 248.207 947.488 251.566C931.027 259.517 914.79 268.307 898.777 277.938C812.777 330.12 734.448 394.9 663.789 472.277C662.781 473.509 661.661 474.741 660.43 475.973C636.018 502.512 611.775 529.275 587.699 556.262C563.736 583.249 540.444 611.02 517.824 639.574C513.121 645.509 508.194 651.052 503.043 656.203C497.556 661.914 491.005 664.154 483.391 662.922C480.143 662.474 477.456 660.906 475.328 658.219C473.312 655.419 472.529 652.172 472.977 648.477C474.544 638.398 476.784 628.656 479.695 619.25C488.766 589.464 498.396 560.069 508.586 531.066C510.042 526.587 511.385 522.276 512.617 518.133C515.305 507.271 519.112 497.249 524.039 488.066C524.039 487.842 523.927 487.73 523.703 487.73C522.471 487.059 521.24 486.555 520.008 486.219C518.776 485.771 517.544 486.163 516.312 487.395C511.833 492.322 507.522 497.473 503.379 502.848C469.337 548.983 435.632 595.51 402.262 642.43C368.892 689.349 336.306 737.052 304.504 785.539C301.816 790.242 298.793 794.049 295.434 796.961C292.186 799.984 287.819 800.992 282.332 799.984C279.868 799.312 277.965 797.801 276.621 795.449C275.277 793.098 274.997 790.802 275.781 788.562C278.693 781.956 281.884 775.685 285.355 769.75C295.21 752.729 304.952 735.708 314.582 718.688C333.954 684.982 353.159 651.108 372.195 617.066C401.758 564.884 428.129 509.958 451.309 452.289C460.379 430.117 467.77 406.826 473.48 382.414C476.616 369.424 477.96 355.875 477.512 341.766C476.056 319.146 468.553 302.965 455.004 293.223C441.454 283.48 423.65 278.889 401.59 279.449C379.53 279.897 355.062 284.376 328.188 292.887C301.312 301.397 273.766 312.651 245.547 326.648C217.328 340.646 190.117 356.099 163.914 373.008C137.711 389.917 114.419 407.049 94.0391 424.406C73.5469 441.763 57.5898 458.056 46.168 473.285C34.1862 490.082 23.9961 508.559 15.5977 528.715C11.3424 538.345 8.87891 548.815 8.20703 560.125C7.98307 562.365 6.86328 564.044 4.84766 565.164C2.83203 566.284 0.592448 566.62 -1.87109 566.172C-5.79036 564.94 -8.25391 561.861 -9.26172 556.934C-9.93359 550.439 -9.42969 544.504 -7.75 539.129C-4.05469 525.579 0.872396 512.758 7.03125 500.664C18.3411 479.5 35.5299 457.888 58.5977 435.828C81.6654 413.768 108.54 392.66 139.223 372.504C169.905 352.236 201.931 334.207 235.301 318.418C268.671 302.517 301.312 290.199 333.227 281.465C365.141 272.618 393.863 268.643 419.395 269.539C445.038 270.435 465.25 277.49 480.031 290.703C494.812 303.805 501.979 324.521 501.531 352.852C500.747 371.104 497.892 388.461 492.965 404.922C485.798 429.109 477.512 452.513 468.105 475.133C458.811 497.641 448.901 519.701 438.375 541.312C435.128 548.031 434.4 551.335 436.191 551.223C438.095 550.999 440.895 548.423 444.59 543.496C457.915 525.803 471.241 508.335 484.566 491.09C493.637 479.556 502.875 468.246 512.281 457.16C513.513 455.592 514.745 454.081 515.977 452.625C521.352 446.018 527.846 441.595 535.461 439.355C541.172 438.124 545.987 439.411 549.906 443.219C553.826 447.026 555.169 452.737 553.938 460.352C553.714 461.135 553.49 461.919 553.266 462.703C551.25 472.557 548.898 482.132 546.211 491.426C539.044 514.158 531.654 536.721 524.039 559.117C520.344 570.651 516.648 582.353 512.953 594.223C512.169 595.902 511.049 598.982 509.594 603.461C508.138 607.38 506.738 611.243 505.395 615.051C504.051 618.858 502.987 621.77 502.203 623.785C503.211 623.001 512.337 612.755 529.582 593.047C552.986 566.172 580.701 534.706 612.727 498.648C644.753 462.591 669.892 435.044 688.145 416.008C721.85 382.078 757.348 351.228 794.637 323.457C832.038 295.574 870.783 270.379 910.871 247.871C920.725 242.72 930.859 238.073 941.273 233.93C943.513 233.146 945.697 232.25 947.824 231.242C957.678 227.323 968.148 225.867 979.234 226.875C1000.51 228.891 1010.25 242.328 1008.46 267.188C1007.23 282.641 1003.81 297.142 998.215 310.691ZM522.863 486.723C523.423 487.171 523.815 487.507 524.039 487.73C524.039 487.73 524.039 487.842 524.039 488.066C524.263 488.066 524.375 487.954 524.375 487.73C523.927 487.507 523.423 487.171 522.863 486.723Z" fill="white"/>
</g>
</svg>
