<svg width="1313" height="1074" viewBox="0 0 1313 1074" fill="none" xmlns="http://www.w3.org/2000/svg">
<circle cx="620.5" cy="560.5" r="456.5" fill="white"/>
<path d="M1303.32 492.022C1305.51 493.877 1307.49 495.985 1309.26 498.346C1311.03 500.622 1312.17 503.362 1312.68 506.566C1313.27 510.107 1312 512.805 1308.88 514.66C1307.03 515.587 1305.21 515.714 1303.44 515.039C1301.67 514.365 1300.41 513.016 1299.65 510.992C1297.63 505.428 1294.55 501.044 1290.42 497.84C1286.37 494.552 1281.94 491.685 1277.14 489.24C1266.52 483.676 1255.56 479.165 1244.26 475.708C1232.96 472.167 1221.58 469.09 1210.11 466.477C1190.97 462.43 1165.47 459.816 1133.6 458.636C1101.82 457.371 1066.41 457.835 1027.37 460.027C988.336 462.135 948.373 466.308 907.482 472.547C866.592 478.701 827.43 487.217 789.997 498.093C752.647 508.884 719.809 522.374 691.48 538.562C663.237 554.665 642.159 573.677 628.248 595.597C616.613 614.651 614.295 634.759 621.292 655.921C626.351 670.422 633.602 683.617 643.044 695.504C657.124 713.294 672.722 729.608 689.836 744.446C704.253 757.599 718.797 770.751 733.467 783.903C747.715 796.55 762.006 809.365 776.338 822.349C792.273 837.019 807.955 851.857 823.383 866.864C824.817 868.298 826.292 869.689 827.81 871.038C836.156 878.794 843.491 887.394 849.814 896.836C856.306 907.628 857.529 915.975 853.482 921.876C849.519 927.862 841.931 931.909 830.718 934.017C819.505 936.125 806.479 936.757 791.641 935.914C776.802 935.155 761.837 933.3 746.746 930.35C731.738 927.483 718.375 924.026 706.656 919.979C695.021 915.933 686.801 911.759 681.996 907.459C672.384 898.523 671.752 889.08 680.099 879.131C689.12 868.93 700.122 861.511 713.106 856.874C731.907 849.623 750.919 849.033 770.142 855.103C773.851 856.452 777.392 858.222 780.765 860.415C781.102 860.583 781.397 860.794 781.65 861.047C782.577 861.553 783.21 862.312 783.547 863.323C783.884 864.335 783.715 865.431 783.041 866.611C781.523 868.466 779.669 869.014 777.477 868.255C775.369 867.497 773.388 866.569 771.533 865.473C758.212 858.813 744.511 857.422 730.432 861.3C716.352 865.178 704.464 872.85 694.769 884.316C690.553 889.881 690.342 894.729 694.136 898.86C697.93 903.075 703.705 906.616 711.462 909.483C719.303 912.434 727.144 914.71 734.984 916.312C742.91 917.998 748.811 919.136 752.689 919.727C753.448 919.727 753.996 919.811 754.333 919.979C755.092 919.979 756.02 920.064 757.116 920.232C762.09 921.328 768.877 922.467 777.477 923.647C786.16 924.912 795.097 925.755 804.287 926.176C813.477 926.682 821.36 926.092 827.936 924.406C834.512 922.72 838.222 919.474 839.065 914.668C839.908 909.862 836.241 902.738 828.062 893.295C819.379 883.263 810.189 873.525 800.493 864.082C776.381 840.728 751.636 818.091 726.258 796.17C717.153 787.992 708.047 779.814 698.942 771.636C683.766 757.978 668.843 743.983 654.173 729.65C640.599 716.498 628.627 702.038 618.257 686.272C610.838 674.806 605.653 662.455 602.702 649.218C598.234 627.551 602.238 607.527 614.716 589.147C628.375 568.576 648.187 550.365 674.155 534.515C700.122 518.664 730.221 505.133 764.451 493.919C798.681 482.706 835.145 473.643 873.843 466.729C912.541 459.732 951.619 454.8 991.076 451.933C1030.62 448.982 1068.51 447.971 1104.77 448.898C1141.02 449.825 1173.82 452.565 1203.16 457.118C1232.58 461.671 1256.69 467.952 1275.5 475.961C1285.44 479.84 1294.72 485.193 1303.32 492.022Z" fill="black"/>
<path d="M1008.21 276.691C1007.43 278.707 1006.65 280.723 1005.86 282.738C998.025 303.118 989.57 323.163 980.5 342.871C933.693 440.181 883.414 534.299 829.664 625.227C812.195 654.565 794.335 683.4 776.082 711.73C757.829 740.061 739.465 768.28 720.988 796.387C716.621 802.993 712.198 809.6 707.719 816.207C707.495 816.767 707.271 817.159 707.047 817.383C706.039 819.398 704.863 821.078 703.52 822.422C702.176 823.766 700.384 824.438 698.145 824.438C697.137 824.438 696.073 824.158 694.953 823.598C693.833 823.15 692.938 822.534 692.266 821.75C691.706 821.078 691.314 819.958 691.09 818.391C690.866 816.935 690.978 815.759 691.426 814.863C694.449 808.368 697.809 802.21 701.504 796.387C709.79 782.837 718.133 769.288 726.531 755.738C742.32 730.543 757.829 705.292 773.059 679.984C806.876 623.547 839.182 565.934 869.977 507.145C900.771 448.355 930.837 388.951 960.176 328.93C971.934 305.75 981.62 280.947 989.234 254.52C990.802 249.928 991.978 245.169 992.762 240.242C993.658 235.315 994.105 230.22 994.105 224.957C993.322 213.647 988.507 208.72 979.66 210.176C971.822 211.743 964.431 214.207 957.488 217.566C941.027 225.517 924.79 234.307 908.777 243.938C822.777 296.12 744.448 360.9 673.789 438.277C672.781 439.509 671.661 440.741 670.43 441.973C646.018 468.512 621.775 495.275 597.699 522.262C573.736 549.249 550.444 577.02 527.824 605.574C523.121 611.509 518.194 617.052 513.043 622.203C507.556 627.914 501.005 630.154 493.391 628.922C490.143 628.474 487.456 626.906 485.328 624.219C483.312 621.419 482.529 618.172 482.977 614.477C484.544 604.398 486.784 594.656 489.695 585.25C498.766 555.464 508.396 526.069 518.586 497.066C520.042 492.587 521.385 488.276 522.617 484.133C525.305 473.271 529.112 463.249 534.039 454.066C534.039 453.842 533.927 453.73 533.703 453.73C532.471 453.059 531.24 452.555 530.008 452.219C528.776 451.771 527.544 452.163 526.312 453.395C521.833 458.322 517.522 463.473 513.379 468.848C479.337 514.983 445.632 561.51 412.262 608.43C378.892 655.349 346.306 703.052 314.504 751.539C311.816 756.242 308.793 760.049 305.434 762.961C302.186 765.984 297.819 766.992 292.332 765.984C289.868 765.312 287.965 763.801 286.621 761.449C285.277 759.098 284.997 756.802 285.781 754.562C288.693 747.956 291.884 741.685 295.355 735.75C305.21 718.729 314.952 701.708 324.582 684.688C343.954 650.982 363.159 617.108 382.195 583.066C411.758 530.884 438.129 475.958 461.309 418.289C470.379 396.117 477.77 372.826 483.48 348.414C486.616 335.424 487.96 321.875 487.512 307.766C486.056 285.146 478.553 268.965 465.004 259.223C451.454 249.48 433.65 244.889 411.59 245.449C389.53 245.897 365.062 250.376 338.188 258.887C311.312 267.397 283.766 278.651 255.547 292.648C227.328 306.646 200.117 322.099 173.914 339.008C147.711 355.917 124.419 373.049 104.039 390.406C83.5469 407.763 67.5898 424.056 56.168 439.285C44.1862 456.082 33.9961 474.559 25.5977 494.715C21.3424 504.345 18.8789 514.815 18.207 526.125C17.9831 528.365 16.8633 530.044 14.8477 531.164C12.832 532.284 10.5924 532.62 8.12891 532.172C4.20964 530.94 1.74609 527.861 0.738281 522.934C0.0664062 516.439 0.570312 510.504 2.25 505.129C5.94531 491.579 10.8724 478.758 17.0312 466.664C28.3411 445.5 45.5299 423.888 68.5977 401.828C91.6654 379.768 118.54 358.66 149.223 338.504C179.905 318.236 211.931 300.207 245.301 284.418C278.671 268.517 311.312 256.199 343.227 247.465C375.141 238.618 403.863 234.643 429.395 235.539C455.038 236.435 475.25 243.49 490.031 256.703C504.812 269.805 511.979 290.521 511.531 318.852C510.747 337.104 507.892 354.461 502.965 370.922C495.798 395.109 487.512 418.513 478.105 441.133C468.811 463.641 458.901 485.701 448.375 507.312C445.128 514.031 444.4 517.335 446.191 517.223C448.095 516.999 450.895 514.423 454.59 509.496C467.915 491.803 481.241 474.335 494.566 457.09C503.637 445.556 512.875 434.246 522.281 423.16C523.513 421.592 524.745 420.081 525.977 418.625C531.352 412.018 537.846 407.595 545.461 405.355C551.172 404.124 555.987 405.411 559.906 409.219C563.826 413.026 565.169 418.737 563.938 426.352C563.714 427.135 563.49 427.919 563.266 428.703C561.25 438.557 558.898 448.132 556.211 457.426C549.044 480.158 541.654 502.721 534.039 525.117C530.344 536.651 526.648 548.353 522.953 560.223C522.169 561.902 521.049 564.982 519.594 569.461C518.138 573.38 516.738 577.243 515.395 581.051C514.051 584.858 512.987 587.77 512.203 589.785C513.211 589.001 522.337 578.755 539.582 559.047C562.986 532.172 590.701 500.706 622.727 464.648C654.753 428.591 679.892 401.044 698.145 382.008C731.85 348.078 767.348 317.228 804.637 289.457C842.038 261.574 880.783 236.379 920.871 213.871C930.725 208.72 940.859 204.073 951.273 199.93C953.513 199.146 955.697 198.25 957.824 197.242C967.678 193.323 978.148 191.867 989.234 192.875C1010.51 194.891 1020.25 208.328 1018.46 233.188C1017.23 248.641 1013.81 263.142 1008.21 276.691ZM532.863 452.723C533.423 453.171 533.815 453.507 534.039 453.73C534.039 453.73 534.039 453.842 534.039 454.066C534.263 454.066 534.375 453.954 534.375 453.73C533.927 453.507 533.423 453.171 532.863 452.723Z" fill="black"/>
<circle cx="620.5" cy="560.5" r="456.5" fill="black"/>
<mask id="mask0" mask-type="alpha" maskUnits="userSpaceOnUse" x="164" y="104" width="913" height="913">
<circle cx="620.5" cy="560.5" r="456.5" fill="black"/>
</mask>
<g mask="url(#mask0)">
<path d="M1303.32 492.022C1305.51 493.877 1307.49 495.985 1309.26 498.346C1311.03 500.622 1312.17 503.362 1312.68 506.566C1313.27 510.107 1312 512.805 1308.88 514.66C1307.03 515.587 1305.21 515.714 1303.44 515.039C1301.67 514.365 1300.41 513.016 1299.65 510.992C1297.63 505.428 1294.55 501.044 1290.42 497.84C1286.37 494.552 1281.94 491.685 1277.14 489.24C1266.52 483.676 1255.56 479.165 1244.26 475.708C1232.96 472.167 1221.58 469.09 1210.11 466.477C1190.97 462.43 1165.47 459.816 1133.6 458.636C1101.82 457.371 1066.41 457.835 1027.37 460.027C988.336 462.135 948.373 466.308 907.482 472.547C866.592 478.701 827.43 487.217 789.997 498.093C752.647 508.884 719.809 522.374 691.48 538.562C663.237 554.665 642.159 573.677 628.248 595.597C616.613 614.651 614.295 634.759 621.292 655.921C626.351 670.422 633.602 683.617 643.044 695.504C657.124 713.294 672.722 729.608 689.836 744.446C704.253 757.599 718.797 770.751 733.467 783.903C747.715 796.55 762.006 809.365 776.338 822.349C792.273 837.019 807.955 851.857 823.383 866.864C824.817 868.298 826.292 869.689 827.81 871.038C836.156 878.794 843.491 887.394 849.814 896.836C856.306 907.628 857.529 915.975 853.482 921.876C849.519 927.862 841.931 931.909 830.718 934.017C819.505 936.125 806.479 936.757 791.641 935.914C776.802 935.155 761.837 933.3 746.746 930.35C731.738 927.483 718.375 924.026 706.656 919.979C695.021 915.933 686.801 911.759 681.996 907.459C672.384 898.523 671.752 889.08 680.099 879.131C689.12 868.93 700.122 861.511 713.106 856.874C731.907 849.623 750.919 849.033 770.142 855.103C773.851 856.452 777.392 858.222 780.765 860.415C781.102 860.583 781.397 860.794 781.65 861.047C782.577 861.553 783.21 862.312 783.547 863.323C783.884 864.335 783.715 865.431 783.041 866.611C781.523 868.466 779.669 869.014 777.477 868.255C775.369 867.497 773.388 866.569 771.533 865.473C758.212 858.813 744.511 857.422 730.432 861.3C716.352 865.178 704.464 872.85 694.769 884.316C690.553 889.881 690.342 894.729 694.136 898.86C697.93 903.075 703.705 906.616 711.462 909.483C719.303 912.434 727.144 914.71 734.984 916.312C742.91 917.998 748.811 919.136 752.689 919.727C753.448 919.727 753.996 919.811 754.333 919.979C755.092 919.979 756.02 920.064 757.116 920.232C762.09 921.328 768.877 922.467 777.477 923.647C786.16 924.912 795.097 925.755 804.287 926.176C813.477 926.682 821.36 926.092 827.936 924.406C834.512 922.72 838.222 919.474 839.065 914.668C839.908 909.862 836.241 902.738 828.062 893.295C819.379 883.263 810.189 873.525 800.493 864.082C776.381 840.728 751.636 818.091 726.258 796.17C717.153 787.992 708.047 779.814 698.942 771.636C683.766 757.978 668.843 743.983 654.173 729.65C640.599 716.498 628.627 702.038 618.257 686.272C610.838 674.806 605.653 662.455 602.702 649.218C598.234 627.551 602.238 607.527 614.716 589.147C628.375 568.576 648.187 550.365 674.155 534.515C700.122 518.664 730.221 505.133 764.451 493.919C798.681 482.706 835.145 473.643 873.843 466.729C912.541 459.732 951.619 454.8 991.076 451.933C1030.62 448.982 1068.51 447.971 1104.77 448.898C1141.02 449.825 1173.82 452.565 1203.16 457.118C1232.58 461.671 1256.69 467.952 1275.5 475.961C1285.44 479.84 1294.72 485.193 1303.32 492.022Z" fill="white"/>
<path d="M1008.21 276.691C1007.43 278.707 1006.65 280.723 1005.86 282.738C998.025 303.118 989.57 323.163 980.5 342.871C933.693 440.181 883.414 534.299 829.664 625.227C812.195 654.565 794.335 683.4 776.082 711.73C757.829 740.061 739.465 768.28 720.988 796.387C716.621 802.993 712.198 809.6 707.719 816.207C707.495 816.767 707.271 817.159 707.047 817.383C706.039 819.398 704.863 821.078 703.52 822.422C702.176 823.766 700.384 824.438 698.145 824.438C697.137 824.438 696.073 824.158 694.953 823.598C693.833 823.15 692.938 822.534 692.266 821.75C691.706 821.078 691.314 819.958 691.09 818.391C690.866 816.935 690.978 815.759 691.426 814.863C694.449 808.368 697.809 802.21 701.504 796.387C709.79 782.837 718.133 769.288 726.531 755.738C742.32 730.543 757.829 705.292 773.059 679.984C806.876 623.547 839.182 565.934 869.977 507.145C900.771 448.355 930.837 388.951 960.176 328.93C971.934 305.75 981.62 280.947 989.234 254.52C990.802 249.928 991.978 245.169 992.762 240.242C993.658 235.315 994.105 230.22 994.105 224.957C993.322 213.647 988.507 208.72 979.66 210.176C971.822 211.743 964.431 214.207 957.488 217.566C941.027 225.517 924.79 234.307 908.777 243.938C822.777 296.12 744.448 360.9 673.789 438.277C672.781 439.509 671.661 440.741 670.43 441.973C646.018 468.512 621.775 495.275 597.699 522.262C573.736 549.249 550.444 577.02 527.824 605.574C523.121 611.509 518.194 617.052 513.043 622.203C507.556 627.914 501.005 630.154 493.391 628.922C490.143 628.474 487.456 626.906 485.328 624.219C483.312 621.419 482.529 618.172 482.977 614.477C484.544 604.398 486.784 594.656 489.695 585.25C498.766 555.464 508.396 526.069 518.586 497.066C520.042 492.587 521.385 488.276 522.617 484.133C525.305 473.271 529.112 463.249 534.039 454.066C534.039 453.842 533.927 453.73 533.703 453.73C532.471 453.059 531.24 452.555 530.008 452.219C528.776 451.771 527.544 452.163 526.312 453.395C521.833 458.322 517.522 463.473 513.379 468.848C479.337 514.983 445.632 561.51 412.262 608.43C378.892 655.349 346.306 703.052 314.504 751.539C311.816 756.242 308.793 760.049 305.434 762.961C302.186 765.984 297.819 766.992 292.332 765.984C289.868 765.312 287.965 763.801 286.621 761.449C285.277 759.098 284.997 756.802 285.781 754.562C288.693 747.956 291.884 741.685 295.355 735.75C305.21 718.729 314.952 701.708 324.582 684.688C343.954 650.982 363.159 617.108 382.195 583.066C411.758 530.884 438.129 475.958 461.309 418.289C470.379 396.117 477.77 372.826 483.48 348.414C486.616 335.424 487.96 321.875 487.512 307.766C486.056 285.146 478.553 268.965 465.004 259.223C451.454 249.48 433.65 244.889 411.59 245.449C389.53 245.897 365.062 250.376 338.188 258.887C311.312 267.397 283.766 278.651 255.547 292.648C227.328 306.646 200.117 322.099 173.914 339.008C147.711 355.917 124.419 373.049 104.039 390.406C83.5469 407.763 67.5898 424.056 56.168 439.285C44.1862 456.082 33.9961 474.559 25.5977 494.715C21.3424 504.345 18.8789 514.815 18.207 526.125C17.9831 528.365 16.8633 530.044 14.8477 531.164C12.832 532.284 10.5924 532.62 8.12891 532.172C4.20964 530.94 1.74609 527.861 0.738281 522.934C0.0664062 516.439 0.570312 510.504 2.25 505.129C5.94531 491.579 10.8724 478.758 17.0312 466.664C28.3411 445.5 45.5299 423.888 68.5977 401.828C91.6654 379.768 118.54 358.66 149.223 338.504C179.905 318.236 211.931 300.207 245.301 284.418C278.671 268.517 311.312 256.199 343.227 247.465C375.141 238.618 403.863 234.643 429.395 235.539C455.038 236.435 475.25 243.49 490.031 256.703C504.812 269.805 511.979 290.521 511.531 318.852C510.747 337.104 507.892 354.461 502.965 370.922C495.798 395.109 487.512 418.513 478.105 441.133C468.811 463.641 458.901 485.701 448.375 507.312C445.128 514.031 444.4 517.335 446.191 517.223C448.095 516.999 450.895 514.423 454.59 509.496C467.915 491.803 481.241 474.335 494.566 457.09C503.637 445.556 512.875 434.246 522.281 423.16C523.513 421.592 524.745 420.081 525.977 418.625C531.352 412.018 537.846 407.595 545.461 405.355C551.172 404.124 555.987 405.411 559.906 409.219C563.826 413.026 565.169 418.737 563.938 426.352C563.714 427.135 563.49 427.919 563.266 428.703C561.25 438.557 558.898 448.132 556.211 457.426C549.044 480.158 541.654 502.721 534.039 525.117C530.344 536.651 526.648 548.353 522.953 560.223C522.169 561.902 521.049 564.982 519.594 569.461C518.138 573.38 516.738 577.243 515.395 581.051C514.051 584.858 512.987 587.77 512.203 589.785C513.211 589.001 522.337 578.755 539.582 559.047C562.986 532.172 590.701 500.706 622.727 464.648C654.753 428.591 679.892 401.044 698.145 382.008C731.85 348.078 767.348 317.228 804.637 289.457C842.038 261.574 880.783 236.379 920.871 213.871C930.725 208.72 940.859 204.073 951.273 199.93C953.513 199.146 955.697 198.25 957.824 197.242C967.678 193.323 978.148 191.867 989.234 192.875C1010.51 194.891 1020.25 208.328 1018.46 233.188C1017.23 248.641 1013.81 263.142 1008.21 276.691ZM532.863 452.723C533.423 453.171 533.815 453.507 534.039 453.73C534.039 453.73 534.039 453.842 534.039 454.066C534.263 454.066 534.375 453.954 534.375 453.73C533.927 453.507 533.423 453.171 532.863 452.723Z" fill="white"/>
</g>
</svg>
